NunitoSans-ExpandedRegular.ufo
<glyph name="exclam" format="2">
  <advance width="272.9096385542169"/>
  <unicode hex="0021"/>
  <outline>
    <contour>
      <point x="109.12048192771084" y="188.96385542168676" type="line"/>
      <point x="163.78915662650604" y="188.96385542168676" type="line"/>
      <point x="191.71084337349396" y="705.0" type="line"/>
      <point x="81.19879518072288" y="705.0" type="line"/>
    </contour>
    <contour>
      <point x="80.48192771084338" y="0.0" type="line"/>
      <point x="192.19277108433735" y="0.0" type="line"/>
      <point x="192.19277108433735" y="109.47590361445782" type="line"/>
      <point x="80.48192771084338" y="109.47590361445782" type="line"/>
    </contour>
  </outline>
</glyph>
<glyph name="numbersign" format="2">
  <advance width="725.7590361445783"/>
  <unicode hex="0023"/>
  <outline>
    <contour>
      <point x="106.54216867469879" y="0.0" type="line"/>
      <point x="178.8012048192771" y="0.0" type="line"/>
      <point x="222.92168674698797" y="180.13253012048193" type="line"/>
      <point x="417.01807228915663" y="180.13253012048193" type="line"/>
      <point x="372.8975903614458" y="0.0" type="line"/>
      <point x="445.15662650602405" y="0.0" type="line"/>
      <point x="489.04216867469876" y="180.13253012048193" type="line"/>
      <point x="667.8855421686748" y="180.13253012048193" type="line"/>
      <point x="667.8855421686748" y="242.80722891566265" type="line"/>
      <point x="503.50602409638554" y="242.80722891566265" type="line"/>
      <point x="559.3373493975904" y="470.1927710843374" type="line"/>
      <point x="692.8253012048193" y="470.1927710843374" type="line"/>
      <point x="692.8253012048193" y="532.867469879518" type="line"/>
      <point x="573.8012048192771" y="532.867469879518" type="line"/>
      <point x="616.1566265060242" y="705.0" type="line"/>
      <point x="543.8975903614457" y="705.0" type="line"/>
      <point x="501.77710843373495" y="532.867469879518" type="line"/>
      <point x="307.91566265060237" y="532.867469879518" type="line"/>
      <point x="350.03614457831327" y="705.0" type="line"/>
      <point x="277.5421686746988" y="705.0" type="line"/>
      <point x="235.65662650602408" y="532.867469879518" type="line"/>
      <point x="57.873493975903614" y="532.867469879518" type="line"/>
      <point x="57.873493975903614" y="470.1927710843374" type="line"/>
      <point x="221.19277108433735" y="470.1927710843374" type="line"/>
      <point x="165.36144578313255" y="242.80722891566265" type="line"/>
      <point x="32.933734939759034" y="242.80722891566265" type="line"/>
      <point x="32.933734939759034" y="180.13253012048193" type="line"/>
      <point x="150.4277108433735" y="180.13253012048193" type="line"/>
    </contour>
    <contour>
      <point x="237.62048192771084" y="242.80722891566265" type="line"/>
      <point x="293.68674698795184" y="470.1927710843374" type="line"/>
      <point x="487.0783132530121" y="470.1927710843374" type="line"/>
      <point x="431.0120481927711" y="242.80722891566265" type="line"/>
    </contour>
  </outline>
</glyph>
<glyph name="dollar" format="2">
  <advance width="748.0"/>
  <unicode hex="0024"/>
  <outline>
    <contour>
      <point x="347.49397590361446" y="-115.0" type="line"/>
      <point x="424.50602409638554" y="-115.0" type="line"/>
      <point x="424.50602409638554" y="13.759036144578314" type="line"/>
      <point x="399.51807228915663" y="-4.704819277108434" type="line"/>
      <point x="579.1566265060242" y="0.8192771084337355"/>
      <point x="684.0361445783133" y="71.3433734939759"/>
      <point x="684.0361445783133" y="189.45180722891567" type="curve" smooth="yes"/>
      <point x="684.0361445783133" y="296.09638554216866"/>
      <point x="618.6265060240964" y="352.0903614457832"/>
      <point x="466.7409638554217" y="373.7951807228916" type="curve" smooth="yes"/>
      <point x="313.2831325301205" y="395.9096385542169" type="line" smooth="yes"/>
      <point x="215.25301204819277" y="409.32530120481925"/>
      <point x="170.24698795180723" y="441.63253012048193"/>
      <point x="170.24698795180723" y="509.59638554216866" type="curve" smooth="yes"/>
      <point x="170.24698795180723" y="585.6807228915663"/>
      <point x="247.855421686747" y="631.4036144578313"/>
      <point x="378.5903614457832" y="631.4036144578313" type="curve" smooth="yes"/>
      <point x="479.7048192771084" y="631.4036144578313"/>
      <point x="553.9939759036145" y="607.5180722891566"/>
      <point x="625.7048192771084" y="550.0963855421687" type="curve"/>
      <point x="661.5120481927711" y="619.8734939759036" type="line"/>
      <point x="599.6265060240963" y="675.1746987951807"/>
      <point x="512.4518072289156" y="705.5301204819277"/>
      <point x="408.921686746988" y="709.4698795180723" type="curve"/>
      <point x="424.50602409638554" y="694.8253012048193" type="line"/>
      <point x="424.50602409638554" y="820.0" type="line"/>
      <point x="347.49397590361446" y="820.0" type="line"/>
      <point x="347.49397590361446" y="694.8253012048193" type="line"/>
      <point x="365.9036144578313" y="709.0" type="line"/>
      <point x="189.66867469879517" y="704.7710843373494"/>
      <point x="78.78313253012048" y="625.9518072289158"/>
      <point x="78.78313253012048" y="504.3072289156626" type="curve" smooth="yes"/>
      <point x="78.78313253012048" y="396.42771084337346"/>
      <point x="150.24698795180723" y="336.1385542168675"/>
      <point x="295.6024096385542" y="316.60843373493975" type="curve" smooth="yes"/>
      <point x="450.355421686747" y="295.66867469879514" type="line" smooth="yes"/>
      <point x="551.7409638554218" y="281.7228915662651"/>
      <point x="593.0421686746988" y="251.53614457831327"/>
      <point x="593.0421686746988" y="182.9277108433735" type="curve" smooth="yes"/>
      <point x="593.0421686746988" y="112.66867469879517"/>
      <point x="519.0843373493976" y="73.59638554216868"/>
      <point x="384.4096385542169" y="73.59638554216868" type="curve" smooth="yes"/>
      <point x="265.1144578313253" y="73.59638554216868"/>
      <point x="180.59036144578312" y="96.89156626506025"/>
      <point x="95.29518072289156" y="153.66265060240963" type="curve"/>
      <point x="59.48795180722892" y="81.3012048192771" type="line"/>
      <point x="135.07831325301206" y="27.765060240963855"/>
      <point x="240.4277108433735" y="-2.765060240963855"/>
      <point x="364.31325301204816" y="-4.9397590361445785" type="curve"/>
      <point x="347.49397590361446" y="12.759036144578314" type="line"/>
    </contour>
  </outline>
</glyph>
<glyph name="percent" format="2">
  <advance width="1149.9156626506024"/>
  <unicode hex="0025"/>
  <outline>
    <contour>
      <point x="348.0843373493976" y="-25.819277108433734" type="line"/>
      <point x="860.8554216867469" y="690.078313253012" type="line"/>
      <point x="802.3012048192771" y="730.0542168674699" type="line"/>
      <point x="289.0602409638554" y="14.156626506024097" type="line"/>
    </contour>
    <contour>
      <point x="279.18072289156623" y="284.1144578313253" type="curve" smooth="yes"/>
      <point x="410.2289156626506" y="284.1144578313253"/>
      <point x="487.6385542168675" y="365.0542168674699"/>
      <point x="487.6385542168675" y="498.644578313253" type="curve" smooth="yes"/>
      <point x="487.6385542168675" y="632.4698795180723"/>
      <point x="410.69879518072287" y="713.644578313253"/>
      <point x="279.18072289156623" y="713.644578313253" type="curve" smooth="yes"/>
      <point x="147.4277108433735" y="713.644578313253"/>
      <point x="70.72289156626506" y="631.5301204819277"/>
      <point x="70.72289156626506" y="498.644578313253" type="curve" smooth="yes"/>
      <point x="70.72289156626506" y="365.28915662650604"/>
      <point x="148.13253012048196" y="284.1144578313253"/>
    </contour>
    <contour>
      <point x="279.18072289156623" y="346.078313253012" type="curve" smooth="yes"/>
      <point x="197.27710843373495" y="346.078313253012"/>
      <point x="148.43975903614458" y="401.3855421686747"/>
      <point x="148.43975903614458" y="498.644578313253" type="curve" smooth="yes"/>
      <point x="148.43975903614458" y="595.6686746987951"/>
      <point x="197.27710843373495" y="651.6807228915663"/>
      <point x="279.18072289156623" y="651.6807228915663" type="curve" smooth="yes"/>
      <point x="361.31927710843377" y="651.6807228915663"/>
      <point x="409.9216867469879" y="595.9036144578313"/>
      <point x="409.9216867469879" y="498.644578313253" type="curve" smooth="yes"/>
      <point x="409.9216867469879" y="401.15060240963857"/>
      <point x="361.08433734939763" y="346.078313253012"/>
    </contour>
    <contour>
      <point x="871.2048192771084" y="-9.174698795180722" type="curve" smooth="yes"/>
      <point x="1002.2530120481928" y="-9.174698795180722"/>
      <point x="1079.6626506024097" y="71.76506024096386"/>
      <point x="1079.6626506024097" y="205.35542168674698" type="curve" smooth="yes"/>
      <point x="1079.6626506024097" y="339.1807228915663"/>
      <point x="1002.722891566265" y="420.35542168674704"/>
      <point x="871.2048192771084" y="420.35542168674704" type="curve" smooth="yes"/>
      <point x="739.4518072289156" y="420.35542168674704"/>
      <point x="662.7469879518072" y="338.24096385542174"/>
      <point x="662.7469879518072" y="205.35542168674698" type="curve" smooth="yes"/>
      <point x="662.7469879518072" y="72.0"/>
      <point x="740.156626506024" y="-9.174698795180722"/>
    </contour>
    <contour>
      <point x="871.2048192771084" y="52.78915662650603" type="curve" smooth="yes"/>
      <point x="789.3012048192771" y="52.78915662650603"/>
      <point x="740.4638554216867" y="108.09638554216868"/>
      <point x="740.4638554216867" y="205.35542168674698" type="curve" smooth="yes"/>
      <point x="740.4638554216867" y="302.37951807228916"/>
      <point x="789.3012048192771" y="358.39156626506025"/>
      <point x="871.2048192771084" y="358.39156626506025" type="curve" smooth="yes"/>
      <point x="953.3433734939758" y="358.39156626506025"/>
      <point x="1001.9457831325301" y="302.6144578313253"/>
      <point x="1001.9457831325301" y="205.35542168674698" type="curve" smooth="yes"/>
      <point x="1001.9457831325301" y="107.86144578313252"/>
      <point x="953.1084337349397" y="52.78915662650603"/>
    </contour>
  </outline>
</glyph>
<glyph name="ampersand" format="2">
  <advance width="850.8313253012047"/>
  <unicode hex="0026"/>
  <outline>
    <contour>
      <point x="339.0361445783132" y="-8.939759036144578" type="curve" smooth="yes"/>
      <point x="460.27710843373495" y="-8.939759036144578"/>
      <point x="559.5120481927711" y="30.240963855421686"/>
      <point x="629.8614457831325" y="101.8975903614458" type="curve"/>
      <point x="612.8674698795181" y="101.8975903614458" type="line"/>
      <point x="725.0542168674698" y="0.0" type="line"/>
      <point x="836.7409638554218" y="0.0" type="line"/>
      <point x="663.066265060241" y="151.69277108433735" type="line"/>
      <point x="664.5361445783133" y="136.04819277108433" type="line"/>
      <point x="719.5903614457831" y="206.45783132530119"/>
      <point x="752.4698795180723" y="301.86746987951807"/>
      <point x="758.7048192771084" y="414.86746987951807" type="curve"/>
      <point x="679.8132530120481" y="414.86746987951807" type="line"/>
      <point x="675.578313253012" y="318.91566265060237"/>
      <point x="650.8132530120481" y="239.84939759036146"/>
      <point x="608.1626506024097" y="181.6686746987952" type="curve"/>
      <point x="625.7469879518073" y="181.6686746987952" type="line"/>
      <point x="393.710843373494" y="391.00602409638554" type="line"/>
      <point x="382.9578313253012" y="371.8433734939759" type="line"/>
      <point x="507.5963855421687" y="426.0240963855422"/>
      <point x="570.1807228915662" y="489.54819277108436"/>
      <point x="570.1807228915662" y="568.8373493975904" type="curve" smooth="yes"/>
      <point x="570.1807228915662" y="655.9457831325301"/>
      <point x="496.3674698795181" y="713.9397590361446"/>
      <point x="380.09638554216866" y="713.9397590361446" type="curve" smooth="yes"/>
      <point x="263.6445783132531" y="713.9397590361446"/>
      <point x="183.77710843373492" y="652.0060240963855"/>
      <point x="183.77710843373492" y="561.9578313253012" type="curve" smooth="yes"/>
      <point x="183.77710843373492" y="493.0120481927711"/>
      <point x="231.13855421686745" y="439.71686746987956"/>
      <point x="290.60843373493975" y="387.06626506024094" type="curve"/>
      <point x="304.06626506024094" y="406.1686746987952" type="line"/>
      <point x="269.12048192771084" y="388.9879518072289" type="line" smooth="yes"/>
      <point x="166.36746987951807" y="342.7469879518072"/>
      <point x="75.00602409638554" y="278.933734939759"/>
      <point x="75.00602409638554" y="172.3975903614458" type="curve" smooth="yes"/>
      <point x="75.00602409638554" y="60.933734939759034"/>
      <point x="176.40361445783134" y="-8.939759036144578"/>
    </contour>
    <contour>
      <point x="343.4397590361446" y="61.367469879518076" type="curve" smooth="yes"/>
      <point x="226.42168674698794" y="61.367469879518076"/>
      <point x="163.76506024096386" y="103.90361445783132"/>
      <point x="163.76506024096386" y="178.03614457831324" type="curve" smooth="yes"/>
      <point x="163.76506024096386" y="259.7650602409638"/>
      <point x="235.43373493975903" y="302.3614457831325"/>
      <point x="317.3855421686747" y="341.1385542168675" type="curve" smooth="yes"/>
      <point x="353.15662650602405" y="358.84939759036143" type="line"/>
      <point x="320.5301204819277" y="361.90361445783134" type="line"/>
      <point x="571.1385542168675" y="135.51807228915663" type="line"/>
      <point x="571.1385542168674" y="147.4578313253012" type="line"/>
      <point x="517.5421686746988" y="90.84939759036143"/>
      <point x="440.5240963855422" y="61.367469879518076"/>
    </contour>
    <contour>
      <point x="379.8614457831325" y="649.6265060240963" type="curve" smooth="yes"/>
      <point x="447.16867469879514" y="649.6265060240963"/>
      <point x="490.46987951807233" y="615.8848915662651"/>
      <point x="490.46987951807233" y="564.7228915662652" type="curve" smooth="yes"/>
      <point x="490.46987951807233" y="492.4759036144578"/>
      <point x="406.40361445783134" y="452.5240963855422"/>
      <point x="337.8734939759036" y="420.2831325301205" type="curve"/>
      <point x="361.37951807228916" y="418.4036144578313" type="line"/>
      <point x="300.60843373493975" y="472.76506024096386"/>
      <point x="263.72289156626505" y="509.066265060241"/>
      <point x="263.72289156626505" y="558.6626506024097" type="curve" smooth="yes"/>
      <point x="263.72289156626505" y="614.1320722891567"/>
      <point x="310.0843373493976" y="649.6265060240963"/>
    </contour>
  </outline>
</glyph>
<glyph name="parenleft" format="2">
  <advance width="378.58433734939763"/>
  <unicode hex="0028"/>
  <outline>
    <contour>
      <point x="273.27108433734935" y="-192.34939759036143" type="curve"/>
      <point x="335.17469879518075" y="-164.66265060240966" type="line"/>
      <point x="254.87951807228916" y="-17.433734939759038"/>
      <point x="218.63855421686748" y="115.58433734939759"/>
      <point x="218.63855421686748" y="263.0" type="curve" smooth="yes"/>
      <point x="218.63855421686748" y="410.8855421686747"/>
      <point x="254.87951807228916" y="543.433734939759"/>
      <point x="335.17469879518075" y="690.6626506024096" type="curve"/>
      <point x="273.27108433734935" y="718.3493975903615" type="line"/>
      <point x="173.2289156626506" y="571.0481927710844"/>
      <point x="124.59036144578313" y="423.10843373493975"/>
      <point x="124.59036144578313" y="263.0" type="curve" smooth="yes"/>
      <point x="124.59036144578313" y="103.36144578313252"/>
      <point x="173.2289156626506" y="-45.28313253012048"/>
    </contour>
  </outline>
</glyph>
<glyph name="parenright" format="2">
  <advance width="378.58433734939763"/>
  <unicode hex="0029"/>
  <outline>
    <contour>
      <point x="105.3132530120482" y="-192.34939759036143" type="line"/>
      <point x="205.35542168674698" y="-45.28313253012048"/>
      <point x="253.99397590361446" y="103.36144578313252"/>
      <point x="253.99397590361446" y="263.0" type="curve" smooth="yes"/>
      <point x="253.99397590361446" y="422.8734939759036"/>
      <point x="205.35542168674698" y="571.2831325301205"/>
      <point x="105.3132530120482" y="718.3493975903615" type="curve"/>
      <point x="43.40963855421687" y="690.6626506024096" type="line"/>
      <point x="123.46987951807229" y="543.433734939759"/>
      <point x="160.4156626506024" y="410.65060240963857"/>
      <point x="160.4156626506024" y="263.0" type="curve" smooth="yes"/>
      <point x="160.4156626506024" y="115.34939759036145"/>
      <point x="123.46987951807229" y="-17.433734939759038"/>
      <point x="43.40963855421687" y="-164.66265060240966" type="curve"/>
    </contour>
  </outline>
</glyph>
<glyph name="asterisk" format="2">
  <advance width="493.2289156626506"/>
  <unicode hex="002A"/>
  <outline>
    <contour>
      <point x="170.33734939759034" y="322.84939759036143" type="line"/>
      <point x="252.2289156626506" y="479.2048192771084" type="line"/>
      <point x="241.70481927710844" y="479.2048192771084" type="line"/>
      <point x="322.3614457831325" y="323.37951807228916" type="line"/>
      <point x="380.21084337349396" y="356.066265060241" type="line"/>
      <point x="284.0361445783132" y="509.01204819277115" type="line"/>
      <point x="272.16265060240966" y="493.08433734939763" type="line"/>
      <point x="454.578313253012" y="485.7349397590362" type="line"/>
      <point x="454.578313253012" y="551.4036144578314" type="line"/>
      <point x="272.16265060240966" y="544.3493975903615" type="line"/>
      <point x="284.0361445783132" y="529.421686746988" type="line"/>
      <point x="380.21084337349396" y="681.132530120482" type="line"/>
      <point x="322.3614457831325" y="715.289156626506" type="line"/>
      <point x="241.70481927710844" y="559.4036144578313" type="line"/>
      <point x="252.2289156626506" y="559.4036144578313" type="line"/>
      <point x="170.80722891566265" y="715.289156626506" type="line"/>
      <point x="112.95783132530121" y="681.6024096385543" type="line"/>
      <point x="209.8975903614458" y="528.9518072289156" type="line"/>
      <point x="221.00602409638554" y="544.3493975903615" type="line"/>
      <point x="39.12048192771084" y="551.4036144578314" type="line"/>
      <point x="39.12048192771084" y="485.7349397590362" type="line"/>
      <point x="221.00602409638554" y="493.08433734939763" type="line"/>
      <point x="209.4277108433735" y="509.01204819277115" type="line"/>
      <point x="112.48795180722892" y="356.066265060241" type="line"/>
    </contour>
  </outline>
</glyph>
<glyph name="hyphen" format="2">
  <advance width="521.5722891566265"/>
  <unicode hex="002D"/>
  <outline>
    <contour>
      <point x="88.47590361445782" y="230.43373493975903" type="line"/>
      <point x="433.09638554216866" y="230.43373493975903" type="line"/>
      <point x="433.09638554216866" y="303.3855421686747" type="line"/>
      <point x="88.47590361445782" y="303.3855421686747" type="line"/>
    </contour>
  </outline>
</glyph>
<glyph name="period" format="2">
  <advance width="272.67469879518075"/>
  <unicode hex="002E"/>
  <outline>
    <contour>
      <point x="80.48192771084338" y="0.0" type="line"/>
      <point x="192.19277108433735" y="0.0" type="line"/>
      <point x="192.19277108433735" y="109.47590361445782" type="line"/>
      <point x="80.48192771084338" y="109.47590361445782" type="line"/>
    </contour>
  </outline>
</glyph>
<glyph name="slash" format="2">
  <advance width="339.0120481927711"/>
  <unicode hex="002F"/>
  <outline>
    <contour>
      <point x="45.66265060240964" y="-63.45783132530121" type="line"/>
      <point x="362.48192771084337" y="725.8855421686748" type="line"/>
      <point x="293.3493975903614" y="752.4578313253012" type="line"/>
      <point x="-23.46987951807229" y="-36.8855421686747" type="line"/>
    </contour>
  </outline>
</glyph>
<glyph name="zero" format="2">
  <advance width="748.0"/>
  <unicode hex="0030"/>
  <outline>
    <contour>
      <point x="374.0" y="-8.939759036144578" type="curve" smooth="yes"/>
      <point x="570.9337349397591" y="-8.939759036144578"/>
      <point x="679.867469879518" y="120.40963855421687"/>
      <point x="679.867469879518" y="353.23493975903614" type="curve" smooth="yes"/>
      <point x="679.867469879518" y="585.0602409638554"/>
      <point x="570.9337349397591" y="713.9397590361446"/>
      <point x="374.0" y="713.9397590361446" type="curve" smooth="yes"/>
      <point x="177.3012048192771" y="713.9397590361446"/>
      <point x="68.13253012048193" y="585.0602409638554"/>
      <point x="68.13253012048193" y="352.0" type="curve" smooth="yes"/>
      <point x="68.13253012048193" y="120.17469879518073"/>
      <point x="177.3012048192771" y="-8.939759036144578"/>
    </contour>
    <contour>
      <point x="374.0" y="67.1867469879518" type="curve" smooth="yes"/>
      <point x="229.90963855421688" y="67.1867469879518"/>
      <point x="158.48192771084337" y="160.90963855421688"/>
      <point x="158.48192771084337" y="352.23493975903614" type="curve" smooth="yes"/>
      <point x="158.48192771084337" y="542.6204819277109"/>
      <point x="229.90963855421688" y="637.8132530120482"/>
      <point x="374.0" y="637.8132530120482" type="curve" smooth="yes"/>
      <point x="518.3253012048193" y="637.8132530120482"/>
      <point x="589.5180722891566" y="543.6204819277108"/>
      <point x="589.5180722891566" y="353.23493975903614" type="curve" smooth="yes"/>
      <point x="589.5180722891566" y="161.90963855421688"/>
      <point x="518.0903614457832" y="67.1867469879518"/>
    </contour>
  </outline>
</glyph>
<glyph name="one" format="2">
  <advance width="748.0"/>
  <unicode hex="0031"/>
  <outline>
    <contour>
      <point x="149.96385542168676" y="0.0" type="line"/>
      <point x="647.7289156626506" y="0.0" type="line"/>
      <point x="647.7289156626506" y="76.53614457831326" type="line"/>
      <point x="450.9578313253012" y="76.53614457831326" type="line"/>
      <point x="450.9578313253012" y="705.0" type="line"/>
      <point x="384.30120481927713" y="705.0" type="line"/>
      <point x="145.68072289156626" y="564.9518072289156" type="line"/>
      <point x="181.95180722891567" y="500.17469879518075" type="line"/>
      <point x="405.46987951807233" y="629.7590361445783" type="line"/>
      <point x="360.0843373493976" y="629.7590361445783" type="line"/>
      <point x="360.0843373493976" y="76.53614457831326" type="line"/>
      <point x="149.96385542168676" y="76.53614457831326" type="line"/>
    </contour>
  </outline>
</glyph>
<glyph name="two" format="2">
  <advance width="748.0"/>
  <unicode hex="0032"/>
  <outline>
    <contour>
      <point x="113.60240963855422" y="0.0" type="line"/>
      <point x="669.9277108433735" y="0.0" type="line"/>
      <point x="669.9277108433735" y="76.53614457831326" type="line"/>
      <point x="222.52409638554218" y="76.53614457831326" type="line"/>
      <point x="224.1686746987952" y="62.71686746987952" type="line"/>
      <point x="489.10843373493975" y="276.3012048192771" type="line" smooth="yes"/>
      <point x="550.855421686747" y="323.4096385542169"/>
      <point x="634.3373493975903" y="402.05421686746985"/>
      <point x="634.3373493975903" y="518.7710843373494" type="curve" smooth="yes"/>
      <point x="634.3373493975903" y="644.8855421686748"/>
      <point x="538.1686746987953" y="713.9397590361446"/>
      <point x="372.06626506024094" y="713.9397590361446" type="curve" smooth="yes"/>
      <point x="255.1265060240964" y="713.9397590361446"/>
      <point x="153.83734939759037" y="679.5843373493976"/>
      <point x="83.3132530120482" y="617.4036144578313" type="curve"/>
      <point x="121.46987951807229" y="547.3915662650602" type="line"/>
      <point x="189.8855421686747" y="606.5180722891566"/>
      <point x="268.5903614457831" y="635.4036144578313"/>
      <point x="366.0120481927711" y="635.4036144578313" type="curve" smooth="yes"/>
      <point x="479.9759036144578" y="635.4036144578313"/>
      <point x="542.1084337349397" y="595.4518072289156"/>
      <point x="542.1084337349397" y="509.36746987951807" type="curve" smooth="yes"/>
      <point x="542.1084337349397" y="417.10843373493975"/>
      <point x="470.62650602409633" y="358.9819277108434"/>
      <point x="433.0963855421687" y="328.1566265060241" type="curve" smooth="yes"/>
      <point x="113.60240963855422" y="67.42168674698796" type="line"/>
    </contour>
  </outline>
</glyph>
<glyph name="three" format="2">
  <advance width="748.0"/>
  <unicode hex="0033"/>
  <outline>
    <contour>
      <point x="368.06626506024094" y="-8.939759036144578" type="curve" smooth="yes"/>
      <point x="545.1686746987951" y="-8.939759036144578"/>
      <point x="656.9819277108434" y="64.40963855421687"/>
      <point x="656.9819277108434" y="190.58433734939757" type="curve" smooth="yes"/>
      <point x="656.9819277108434" y="288.644578313253"/>
      <point x="588.5120481927711" y="352.5843373493976"/>
      <point x="464.39156626506025" y="369.644578313253" type="curve"/>
      <point x="464.39156626506025" y="358.4698795180723" type="line"/>
      <point x="569.921686746988" y="378.4698795180723"/>
      <point x="632.0421686746987" y="443.355421686747"/>
      <point x="632.0421686746987" y="533.4759036144578" type="curve" smooth="yes"/>
      <point x="632.0421686746987" y="646.8855421686748"/>
      <point x="533.5783132530121" y="713.9397590361446"/>
      <point x="370.9457831325301" y="713.9397590361446" type="curve" smooth="yes"/>
      <point x="254.8313253012048" y="713.9397590361446"/>
      <point x="152.13253012048196" y="679.3493975903615"/>
      <point x="83.54819277108435" y="617.4036144578313" type="curve"/>
      <point x="121.23493975903614" y="548.9216867469879" type="line"/>
      <point x="189.8855421686747" y="608.5180722891566"/>
      <point x="266.2409638554217" y="635.4036144578313"/>
      <point x="364.5421686746988" y="635.4036144578313" type="curve" smooth="yes"/>
      <point x="478.15060240963857" y="635.4036144578313"/>
      <point x="541.4578313253012" y="596.156626506024"/>
      <point x="541.4578313253012" y="521.722891566265" type="curve" smooth="yes"/>
      <point x="541.4578313253012" y="443.46385542168673"/>
      <point x="471.79518072289153" y="395.7409638554217"/>
      <point x="350.89156626506025" y="395.7409638554217" type="curve" smooth="yes"/>
      <point x="230.13253012048193" y="395.7409638554217" type="line"/>
      <point x="230.13253012048193" y="319.43975903614455" type="line"/>
      <point x="358.06024096385545" y="319.43975903614455" type="line" smooth="yes"/>
      <point x="497.26506024096386" y="319.43975903614455"/>
      <point x="566.3975903614457" y="279.0722891566265"/>
      <point x="566.3975903614457" y="196.4578313253012" type="curve" smooth="yes"/>
      <point x="566.3975903614457" y="113.66867469879517"/>
      <point x="497.4457831325301" y="69.59638554216868"/>
      <point x="366.8915662650602" y="69.59638554216868" type="curve" smooth="yes"/>
      <point x="264.4759036144578" y="69.59638554216868"/>
      <point x="184.59036144578315" y="95.1867469879518"/>
      <point x="105.46987951807229" y="152.72289156626508" type="curve"/>
      <point x="68.54819277108435" y="81.7710843373494" type="line"/>
      <point x="139.84337349397592" y="24.59036144578313"/>
      <point x="248.54216867469881" y="-8.939759036144578"/>
    </contour>
  </outline>
</glyph>
<glyph name="four" format="2">
  <advance width="748.0"/>
  <unicode hex="0034"/>
  <outline>
    <contour>
      <point x="479.2168674698795" y="0.0" type="line"/>
      <point x="568.9156626506024" y="0.0" type="line"/>
      <point x="568.9156626506024" y="148.5542168674699" type="line"/>
      <point x="701.8072289156627" y="148.5542168674699" type="line"/>
      <point x="701.8072289156627" y="224.15060240963857" type="line"/>
      <point x="568.9156626506024" y="224.15060240963857" type="line"/>
      <point x="568.9156626506024" y="705.0" type="line"/>
      <point x="493.26506024096386" y="705.0" type="line"/>
      <point x="65.83734939759036" y="215.8012048192771" type="line"/>
      <point x="65.83734939759036" y="148.5542168674699" type="line"/>
      <point x="479.2168674698795" y="148.5542168674699" type="line"/>
    </contour>
    <contour>
      <point x="479.2168674698795" y="224.15060240963857" type="line"/>
      <point x="139.73493975903614" y="224.15060240963857" type="line"/>
      <point x="139.73493975903614" y="193.93975903614458" type="line"/>
      <point x="509.9698795180723" y="614.6566265060242" type="line"/>
      <point x="479.2168674698795" y="614.6566265060242" type="line"/>
    </contour>
  </outline>
</glyph>
<glyph name="five" format="2">
  <advance width="748.0"/>
  <unicode hex="0035"/>
  <outline>
    <contour>
      <point x="392.421686746988" y="-8.939759036144578" type="curve" smooth="yes"/>
      <point x="573.2891566265059" y="-8.939759036144578"/>
      <point x="687.9277108433735" y="77.70481927710843"/>
      <point x="687.9277108433735" y="221.6987951807229" type="curve" smooth="yes"/>
      <point x="687.9277108433735" y="356.6385542168675"/>
      <point x="587.0481927710844" y="442.578313253012"/>
      <point x="422.2289156626506" y="442.578313253012" type="curve" smooth="yes"/>
      <point x="324.2168674698795" y="442.578313253012"/>
      <point x="242.44578313253012" y="411.5120481927711"/>
      <point x="197.85542168674698" y="357.9698795180723" type="curve"/>
      <point x="219.60843373493975" y="357.9698795180723" type="line"/>
      <point x="219.60843373493975" y="628.933734939759" type="line"/>
      <point x="635.7530120481928" y="628.933734939759" type="line"/>
      <point x="635.7530120481928" y="705.0" type="line"/>
      <point x="131.789156626506" y="705.0" type="line"/>
      <point x="131.789156626506" y="284.3072289156627" type="line"/>
      <point x="199.3975903614458" y="284.3072289156627" type="line"/>
      <point x="250.9277108433735" y="339.7951807228916"/>
      <point x="317.34939759036143" y="366.6265060240964"/>
      <point x="401.48192771084337" y="366.6265060240964" type="curve" smooth="yes"/>
      <point x="526.210843373494" y="366.6265060240964"/>
      <point x="597.3433734939758" y="308.8433734939759"/>
      <point x="597.3433734939758" y="217.6987951807229" type="curve" smooth="yes"/>
      <point x="597.3433734939758" y="121.78915662650603"/>
      <point x="519.9156626506024" y="69.59638554216868"/>
      <point x="391.95180722891564" y="69.59638554216868" type="curve" smooth="yes"/>
      <point x="297.5963855421687" y="69.59638554216868"/>
      <point x="217.77108433734938" y="96.1867469879518"/>
      <point x="139.82530120481928" y="152.25301204819277" type="curve"/>
      <point x="102.90361445783132" y="81.3012048192771" type="line"/>
      <point x="172.02409638554218" y="24.825301204819276"/>
      <point x="280.1927710843373" y="-8.939759036144578"/>
    </contour>
  </outline>
</glyph>
<glyph name="six" format="2">
  <advance width="748.0"/>
  <unicode hex="0036"/>
  <outline>
    <contour>
      <point x="402.2951807228916" y="-8.939759036144578" type="curve" smooth="yes"/>
      <point x="567.6927710843374" y="-8.939759036144578"/>
      <point x="681.5722891566264" y="86.40963855421687"/>
      <point x="681.5722891566264" y="220.40361445783134" type="curve" smooth="yes"/>
      <point x="681.5722891566264" y="351.5180722891566"/>
      <point x="572.9819277108434" y="444.1626506024096"/>
      <point x="413.6867469879518" y="444.1626506024096" type="curve" smooth="yes"/>
      <point x="278.0843373493976" y="444.1626506024096"/>
      <point x="174.66265060240963" y="373.91566265060237"/>
      <point x="160.54819277108436" y="263.3072289156626" type="curve"/>
      <point x="170.60240963855424" y="263.3072289156626" type="line"/>
      <point x="170.60240963855424" y="353.4518072289157" type="line" smooth="yes"/>
      <point x="170.60240963855424" y="540.1445783132531"/>
      <point x="265.2048192771084" y="635.4036144578313"/>
      <point x="430.22891566265065" y="635.4036144578313" type="curve" smooth="yes"/>
      <point x="508.289156626506" y="635.4036144578313"/>
      <point x="583.2349397590361" y="609.7530120481928"/>
      <point x="643.2951807228916" y="558.4518072289156" type="curve"/>
      <point x="679.2168674698795" y="628.4638554216868" type="line"/>
      <point x="621.9879518072289" y="680.5240963855422"/>
      <point x="523.632530120482" y="713.9397590361446"/>
      <point x="431.46385542168673" y="713.9397590361446" type="curve" smooth="yes"/>
      <point x="211.5963855421687" y="713.9397590361446"/>
      <point x="81.48795180722892" y="579.1746987951807"/>
      <point x="81.48795180722892" y="334.05421686746985" type="curve" smooth="yes"/>
      <point x="81.48795180722892" y="116.76506024096386"/>
      <point x="198.8313253012048" y="-8.939759036144578"/>
    </contour>
    <contour>
      <point x="398.0" y="66.30722891566265" type="curve" smooth="yes"/>
      <point x="280.7409638554217" y="66.30722891566265"/>
      <point x="201.66265060240963" y="127.56024096385542"/>
      <point x="201.66265060240963" y="217.2289156626506" type="curve" smooth="yes"/>
      <point x="201.66265060240963" y="307.66265060240966"/>
      <point x="280.7409638554217" y="369.3855421686747"/>
      <point x="398.0" y="369.3855421686747" type="curve" smooth="yes"/>
      <point x="514.2590361445783" y="369.3855421686747"/>
      <point x="593.3373493975904" y="307.66265060240966"/>
      <point x="593.3373493975904" y="217.2289156626506" type="curve" smooth="yes"/>
      <point x="593.3373493975904" y="127.56024096385542"/>
      <point x="514.2590361445783" y="66.30722891566265"/>
    </contour>
  </outline>
</glyph>
<glyph name="seven" format="2">
  <advance width="748.0"/>
  <unicode hex="0037"/>
  <outline>
    <contour>
      <point x="146.39156626506022" y="0.0" type="line"/>
      <point x="250.25301204819277" y="0.0" type="line"/>
      <point x="663.4518072289156" y="637.4036144578313" type="line"/>
      <point x="663.4518072289156" y="705.0" type="line"/>
      <point x="83.72289156626506" y="705.0" type="line"/>
      <point x="83.72289156626506" y="626.1144578313254" type="line"/>
      <point x="585.5722891566265" y="626.1144578313254" type="line"/>
      <point x="584.8674698795181" y="664.2168674698795" type="line"/>
    </contour>
  </outline>
</glyph>
<glyph name="eight" format="2">
  <advance width="748.0"/>
  <unicode hex="0038"/>
  <outline>
    <contour>
      <point x="374.0" y="-8.939759036144578" type="curve" smooth="yes"/>
      <point x="573.8734939759037" y="-8.939759036144578"/>
      <point x="685.3373493975903" y="64.87951807228916"/>
      <point x="685.3373493975903" y="186.75903614457832" type="curve" smooth="yes"/>
      <point x="685.3373493975903" y="286.7590361445783"/>
      <point x="610.6325301204819" y="354.1686746987952"/>
      <point x="485.8072289156627" y="367.2289156626506" type="curve"/>
      <point x="485.8072289156627" y="351.8855421686747" type="line"/>
      <point x="596.6325301204819" y="370.18072289156623"/>
      <point x="664.867469879518" y="436.355421686747"/>
      <point x="664.867469879518" y="527.355421686747" type="curve" smooth="yes"/>
      <point x="664.867469879518" y="643.4698795180723"/>
      <point x="556.5783132530121" y="713.9397590361446"/>
      <point x="374.0" y="713.9397590361446" type="curve" smooth="yes"/>
      <point x="191.65662650602408" y="713.9397590361446"/>
      <point x="83.60240963855422" y="643.2349397590361"/>
      <point x="83.60240963855422" y="527.8253012048193" type="curve" smooth="yes"/>
      <point x="83.60240963855422" y="436.5903614457831"/>
      <point x="151.83734939759037" y="370.4156626506024"/>
      <point x="262.1927710843374" y="351.8855421686747" type="curve"/>
      <point x="262.1927710843374" y="367.2289156626506" type="line"/>
      <point x="137.83734939759037" y="353.933734939759"/>
      <point x="62.66265060240964" y="286.5240963855422"/>
      <point x="62.66265060240964" y="186.75903614457832" type="curve" smooth="yes"/>
      <point x="62.66265060240964" y="64.87951807228916"/>
      <point x="174.1265060240964" y="-8.939759036144578"/>
    </contour>
    <contour>
      <point x="374.0" y="64.83734939759036" type="curve" smooth="yes"/>
      <point x="225.20481927710844" y="64.83734939759036"/>
      <point x="150.66265060240963" y="109.31927710843374"/>
      <point x="150.66265060240963" y="194.57831325301206" type="curve" smooth="yes"/>
      <point x="150.66265060240963" y="279.3072289156627"/>
      <point x="224.20481927710844" y="319.7289156626506"/>
      <point x="374.0" y="319.7289156626506" type="curve" smooth="yes"/>
      <point x="524.2650602409639" y="319.7289156626506"/>
      <point x="597.3373493975904" y="279.3072289156627"/>
      <point x="597.3373493975904" y="194.57831325301206" type="curve" smooth="yes"/>
      <point x="597.3373493975904" y="109.31927710843374"/>
      <point x="523.2650602409639" y="64.83734939759036"/>
    </contour>
    <contour>
      <point x="374.0" y="394.2710843373494" type="curve" smooth="yes"/>
      <point x="244.32530120481928" y="394.2710843373494"/>
      <point x="171.60240963855424" y="439.0481927710843"/>
      <point x="171.60240963855424" y="517.9518072289156" type="curve" smooth="yes"/>
      <point x="171.60240963855424" y="596.3855421686748"/>
      <point x="243.79518072289156" y="640.1626506024096"/>
      <point x="374.0" y="640.1626506024096" type="curve" smooth="yes"/>
      <point x="504.20481927710847" y="640.1626506024096"/>
      <point x="576.867469879518" y="596.3855421686748"/>
      <point x="576.867469879518" y="517.9518072289156" type="curve" smooth="yes"/>
      <point x="576.867469879518" y="439.0481927710843"/>
      <point x="503.67469879518075" y="394.2710843373494"/>
    </contour>
  </outline>
</glyph>
<glyph name="nine" format="2">
  <advance width="748.0"/>
  <unicode hex="0039"/>
  <outline>
    <contour>
      <point x="317.0060240963856" y="-8.939759036144578" type="curve" smooth="yes"/>
      <point x="536.4036144578313" y="-8.939759036144578"/>
      <point x="666.5120481927711" y="126.29518072289157"/>
      <point x="666.5120481927711" y="370.94578313253015" type="curve" smooth="yes"/>
      <point x="666.5120481927711" y="588.2349397590361"/>
      <point x="549.6385542168675" y="713.9397590361446"/>
      <point x="345.7048192771084" y="713.9397590361446" type="curve" smooth="yes"/>
      <point x="180.77710843373495" y="713.9397590361446"/>
      <point x="66.4277108433735" y="619.0602409638554"/>
      <point x="66.4277108433735" y="484.59638554216866" type="curve" smooth="yes"/>
      <point x="66.4277108433735" y="353.4819277108434"/>
      <point x="175.4879518072289" y="260.8373493975904"/>
      <point x="334.3132530120482" y="260.8373493975904" type="curve" smooth="yes"/>
      <point x="470.3855421686747" y="260.8373493975904"/>
      <point x="573.8072289156627" y="331.08433734939763"/>
      <point x="587.4518072289156" y="441.6927710843374" type="curve"/>
      <point x="577.867469879518" y="441.6927710843374" type="line"/>
      <point x="577.867469879518" y="351.5481927710843" type="line" smooth="yes"/>
      <point x="577.867469879518" y="164.85542168674698"/>
      <point x="483.26506024096386" y="69.59638554216868"/>
      <point x="317.7710843373494" y="69.59638554216868" type="curve" smooth="yes"/>
      <point x="239.710843373494" y="69.59638554216868"/>
      <point x="164.76506024096386" y="95.71686746987952"/>
      <point x="105.17469879518072" y="147.01807228915663" type="curve"/>
      <point x="68.78313253012048" y="77.00602409638553" type="line"/>
      <point x="126.48192771084337" y="24.94578313253012"/>
      <point x="224.36746987951807" y="-8.939759036144578"/>
    </contour>
    <contour>
      <point x="350.4698795180723" y="336.0843373493976" type="curve" smooth="yes"/>
      <point x="234.210843373494" y="336.0843373493976"/>
      <point x="155.13253012048193" y="397.33734939759034"/>
      <point x="155.13253012048193" y="487.7710843373494" type="curve" smooth="yes"/>
      <point x="155.13253012048193" y="577.4397590361447"/>
      <point x="234.210843373494" y="639.1626506024096"/>
      <point x="350.4698795180723" y="639.1626506024096" type="curve" smooth="yes"/>
      <point x="467.72891566265065" y="639.1626506024096"/>
      <point x="546.8072289156627" y="577.4397590361447"/>
      <point x="546.8072289156627" y="487.7710843373494" type="curve" smooth="yes"/>
      <point x="546.8072289156627" y="397.33734939759034"/>
      <point x="467.72891566265065" y="336.0843373493976"/>
    </contour>
  </outline>
</glyph>
<glyph name="semicolon" format="2">
  <advance width="272.67469879518075"/>
  <unicode hex="003B"/>
  <outline>
    <contour>
      <point x="125.92168674698794" y="-117.855421686747" type="line"/>
      <point x="172.60843373493975" y="-73.99397590361447"/>
      <point x="192.19277108433735" y="-31.240963855421683"/>
      <point x="192.19277108433735" y="31.33132530120482" type="curve" smooth="yes"/>
      <point x="192.19277108433735" y="109.47590361445782" type="line"/>
      <point x="80.48192771084338" y="109.47590361445782" type="line"/>
      <point x="80.48192771084338" y="0.0" type="line"/>
      <point x="154.03012048192772" y="0.0" type="line"/>
      <point x="132.45180722891564" y="16.867469879518072" type="line"/>
      <point x="132.2168674698795" y="-25.00602409638554"/>
      <point x="119.3975903614458" y="-51.174698795180724"/>
      <point x="86.17469879518072" y="-85.69277108433734" type="curve"/>
    </contour>
    <contour>
      <point x="80.48192771084338" y="377.3433734939759" type="line"/>
      <point x="192.19277108433735" y="377.3433734939759" type="line"/>
      <point x="192.19277108433735" y="486.34939759036143" type="line"/>
      <point x="80.48192771084338" y="486.34939759036143" type="line"/>
    </contour>
  </outline>
</glyph>
<glyph name="less" format="2">
  <advance width="748.0"/>
  <unicode hex="003C"/>
  <outline>
    <contour>
      <point x="640.4096385542168" y="29.475903614457827" type="line"/>
      <point x="640.4096385542168" y="104.96385542168674" type="line"/>
      <point x="142.16867469879517" y="308.63253012048193" type="line"/>
      <point x="142.16867469879517" y="265.6024096385542" type="line"/>
      <point x="640.4096385542168" y="469.03614457831327" type="line"/>
      <point x="640.4096385542168" y="544.9939759036145" type="line"/>
      <point x="103.0" y="322.2710843373494" type="line"/>
      <point x="103.0" y="251.96385542168676" type="line"/>
    </contour>
  </outline>
</glyph>
<glyph name="equal" format="2">
  <advance width="748.0"/>
  <unicode hex="003D"/>
  <outline>
    <contour>
      <point x="103.0" y="356.6626506024096" type="line"/>
      <point x="645.0" y="356.6626506024096" type="line"/>
      <point x="645.0" y="422.2710843373494" type="line"/>
      <point x="103.0" y="422.2710843373494" type="line"/>
    </contour>
    <contour>
      <point x="103.0" y="152.19879518072287" type="line"/>
      <point x="645.0" y="152.19879518072287" type="line"/>
      <point x="645.0" y="217.33734939759037" type="line"/>
      <point x="103.0" y="217.33734939759037" type="line"/>
    </contour>
  </outline>
</glyph>
<glyph name="greater" format="2">
  <advance width="748.0"/>
  <unicode hex="003E"/>
  <outline>
    <contour>
      <point x="103.0" y="29.475903614457827" type="line"/>
      <point x="640.4096385542168" y="251.96385542168676" type="line"/>
      <point x="640.4096385542168" y="322.2710843373494" type="line"/>
      <point x="103.0" y="544.9939759036145" type="line"/>
      <point x="103.0" y="469.03614457831327" type="line"/>
      <point x="601.710843373494" y="265.6024096385542" type="line"/>
      <point x="601.710843373494" y="308.63253012048193" type="line"/>
      <point x="103.0" y="104.96385542168674" type="line"/>
    </contour>
  </outline>
</glyph>
<glyph name="question" format="2">
  <advance width="542.9156626506025"/>
  <unicode hex="003F"/>
  <outline>
    <contour>
      <point x="225.40963855421685" y="188.96385542168676" type="line"/>
      <point x="280.0783132530121" y="188.96385542168676" type="line"/>
      <point x="282.31325301204816" y="211.90361445783134" type="line" smooth="yes"/>
      <point x="287.5481927710843" y="262.3855421686747"/>
      <point x="313.3734939759036" y="304.5120481927711"/>
      <point x="399.1987951807229" y="373.5843373493976" type="curve" smooth="yes"/>
      <point x="484.0240963855421" y="442.89156626506025"/>
      <point x="514.1385542168674" y="491.4216867469879"/>
      <point x="514.1385542168674" y="550.1265060240963" type="curve" smooth="yes"/>
      <point x="514.1385542168674" y="653.1807228915662"/>
      <point x="420.9156626506024" y="713.9397590361446"/>
      <point x="280.51807228915663" y="713.9397590361446" type="curve" smooth="yes"/>
      <point x="171.57831325301206" y="713.9397590361446"/>
      <point x="65.2289156626506" y="676.5843373493976"/>
      <point x="-0.29518072289156627" y="617.4036144578313" type="curve"/>
      <point x="37.39156626506024" y="547.3915662650602" type="line"/>
      <point x="108.27710843373494" y="606.7530120481928"/>
      <point x="185.22289156626508" y="635.4036144578313"/>
      <point x="275.9939759036144" y="635.4036144578313" type="curve" smooth="yes"/>
      <point x="366.6024096385542" y="635.4036144578313"/>
      <point x="421.9096385542168" y="605.2168674698795"/>
      <point x="421.9096385542168" y="541.843373493976" type="curve" smooth="yes"/>
      <point x="421.9096385542168" y="501.7710843373494"/>
      <point x="400.3734939759036" y="465.69879518072287"/>
      <point x="334.4216867469879" y="411.09638554216866" type="curve" smooth="yes"/>
      <point x="245.87951807228916" y="338.3734939759036"/>
      <point x="225.40963855421685" y="280.3072289156627"/>
      <point x="225.40963855421685" y="219.53614457831324" type="curve" smooth="yes"/>
    </contour>
    <contour>
      <point x="196.7710843373494" y="0.0" type="line"/>
      <point x="308.71686746987956" y="0.0" type="line"/>
      <point x="308.71686746987956" y="109.47590361445782" type="line"/>
      <point x="196.7710843373494" y="109.47590361445782" type="line"/>
    </contour>
  </outline>
</glyph>
<glyph name="at" format="2">
  <advance width="1178.8132530120483"/>
  <unicode hex="0040"/>
  <outline>
    <contour>
      <point x="599.1686746987951" y="-163.644578313253" type="curve" smooth="yes"/>
      <point x="750.8855421686748" y="-163.644578313253"/>
      <point x="881.1204819277108" y="-124.87349397590361"/>
      <point x="964.1807228915662" y="-54.33132530120482" type="curve"/>
      <point x="925.8975903614459" y="-4.240963855421687" type="line"/>
      <point x="852.6626506024096" y="-67.78313253012048"/>
      <point x="736.5361445783133" y="-103.144578313253"/>
      <point x="599.4036144578313" y="-103.144578313253" type="curve" smooth="yes"/>
      <point x="322.7469879518072" y="-103.144578313253"/>
      <point x="147.62048192771087" y="38.22289156626506"/>
      <point x="147.62048192771087" y="268.355421686747" type="curve" smooth="yes"/>
      <point x="147.62048192771087" y="500.42771084337346"/>
      <point x="326.1566265060241" y="653.4397590361447"/>
      <point x="618.4578313253012" y="653.4397590361447" type="curve" smooth="yes"/>
      <point x="875.7650602409639" y="653.4397590361447"/>
      <point x="1035.0722891566265" y="533.5421686746988"/>
      <point x="1035.0722891566265" y="338.4698795180723" type="curve" smooth="yes"/>
      <point x="1035.0722891566265" y="208.27710843373495"/>
      <point x="965.0" y="117.03012048192771"/>
      <point x="863.1024096385543" y="117.03012048192771" type="curve" smooth="yes"/>
      <point x="813.7409638554217" y="117.03012048192771"/>
      <point x="790.0903614457832" y="138.15060240963854"/>
      <point x="790.0903614457832" y="183.39156626506025" type="curve" smooth="yes"/>
      <point x="790.0903614457832" y="199.50602409638554"/>
      <point x="793.5" y="217.96987951807228"/>
      <point x="796.5" y="230.9698795180723" type="curve" smooth="yes"/>
      <point x="854.2108433734941" y="486.5843373493976" type="line"/>
      <point x="778.6626506024096" y="486.5843373493976" type="line"/>
      <point x="757.4277108433735" y="392.05421686746985" type="line"/>
      <point x="770.5963855421687" y="392.05421686746985" type="line"/>
      <point x="753.7168674698795" y="460.2289156626506"/>
      <point x="695.3614457831326" y="495.7590361445783"/>
      <point x="601.2409638554217" y="495.7590361445783" type="curve" smooth="yes"/>
      <point x="441.8855421686747" y="495.7590361445783"/>
      <point x="331.12048192771084" y="391.28915662650604"/>
      <point x="331.12048192771084" y="242.93373493975903" type="curve" smooth="yes"/>
      <point x="331.12048192771084" y="124.81927710843374"/>
      <point x="402.11445783132535" y="59.0"/>
      <point x="524.7590361445782" y="59.0" type="curve" smooth="yes"/>
      <point x="625.2831325301205" y="59.0"/>
      <point x="703.1084337349397" y="104.2289156626506"/>
      <point x="743.1084337349397" y="184.09638554216866" type="curve"/>
      <point x="724.6566265060242" y="186.82530120481928" type="line"/>
      <point x="712.8795180722891" y="106.76506024096385"/>
      <point x="760.4638554216867" y="59.0"/>
      <point x="857.2831325301205" y="59.0" type="curve" smooth="yes"/>
      <point x="1004.5120481927711" y="59.0"/>
      <point x="1103.921686746988" y="173.23493975903617"/>
      <point x="1103.921686746988" y="339.93975903614455" type="curve" smooth="yes"/>
      <point x="1103.921686746988" y="569.644578313253"/>
      <point x="914.1626506024096" y="713.9397590361446"/>
      <point x="618.6385542168674" y="713.9397590361446" type="curve" smooth="yes"/>
      <point x="289.5903614457831" y="713.9397590361446"/>
      <point x="74.89156626506025" y="536.5903614457831"/>
      <point x="74.89156626506025" y="268.5301204819277" type="curve" smooth="yes"/>
      <point x="74.89156626506025" y="3.590361445783132"/>
      <point x="283.17469879518075" y="-163.644578313253"/>
    </contour>
    <contour>
      <point x="538.6867469879518" y="120.20481927710843" type="curve" smooth="yes"/>
      <point x="454.08433734939763" y="120.20481927710843"/>
      <point x="409.01807228915663" y="163.03614457831324"/>
      <point x="409.01807228915663" y="245.63855421686745" type="curve" smooth="yes"/>
      <point x="409.01807228915663" y="358.2469879518072"/>
      <point x="490.9156626506024" y="434.5542168674699"/>
      <point x="614.5843373493976" y="434.5542168674699" type="curve" smooth="yes"/>
      <point x="699.5421686746987" y="434.5542168674699"/>
      <point x="740.9578313253012" y="398.2530120481928"/>
      <point x="740.9578313253012" y="318.710843373494" type="curve" smooth="yes"/>
      <point x="740.9578313253012" y="205.45180722891567"/>
      <point x="657.7048192771084" y="120.20481927710843"/>
    </contour>
  </outline>
</glyph>
<glyph name="A" format="2">
  <advance width="898.6807228915662"/>
  <unicode hex="0041"/>
  <anchor x="449.4578313253012" y="0.0" name="bottom"/>
  <anchor x="856.5120481927711" y="0.0" name="ogonek"/>
  <anchor x="449.6927710843373" y="705.0" name="top"/>
  <outline>
    <contour>
      <point x="23.55421686746988" y="0.0" type="line"/>
      <point x="119.60240963855422" y="0.0" type="line"/>
      <point x="228.25301204819277" y="200.710843373494" type="line"/>
      <point x="178.6867469879518" y="176.5542168674699" type="line"/>
      <point x="717.4036144578313" y="176.5542168674699" type="line"/>
      <point x="669.132530120482" y="200.710843373494" type="line"/>
      <point x="778.0180722891566" y="0.0" type="line"/>
      <point x="875.5963855421687" y="0.0" type="line"/>
      <point x="491.2530120481928" y="705.0" type="line"/>
      <point x="407.8975903614458" y="705.0" type="line"/>
    </contour>
    <contour>
      <point x="447.6927710843373" y="614.5301204819277" type="line"/>
      <point x="449.6927710843373" y="614.5301204819277" type="line"/>
      <point x="652.843373493976" y="230.58433734939757" type="line"/>
      <point x="684.3072289156627" y="250.56626506024097" type="line"/>
      <point x="211.7831325301205" y="250.56626506024097" type="line"/>
      <point x="244.77710843373495" y="230.58433734939757" type="line"/>
    </contour>
  </outline>
</glyph>
<glyph name="B" format="2">
  <advance width="837.8012048192771"/>
  <unicode hex="0042"/>
  <anchor x="420.93373493975906" y="0.0" name="bottom"/>
  <anchor x="421.16867469879514" y="705.0" name="top"/>
  <outline>
    <contour>
      <point x="108.60240963855422" y="0.0" type="line"/>
      <point x="482.56626506024094" y="0.0" type="line" smooth="yes"/>
      <point x="664.1374457831325" y="0.0"/>
      <point x="760.9638554216867" y="69.5843373493976"/>
      <point x="760.9638554216867" y="191.05421686746988" type="curve" smooth="yes"/>
      <point x="760.9638554216867" y="297.0602409638554"/>
      <point x="687.8998554216868" y="355.56019277108436"/>
      <point x="557.3132530120482" y="367.5843373493976" type="curve"/>
      <point x="557.3132530120482" y="353.1144578313253" type="line"/>
      <point x="675.7318313253012" y="372.05163253012046"/>
      <point x="739.789156626506" y="430.5240963855422"/>
      <point x="739.789156626506" y="524.7048192771084" type="curve" smooth="yes"/>
      <point x="739.789156626506" y="639.0602409638554"/>
      <point x="645.0992891566265" y="705.0"/>
      <point x="467.5060240963855" y="705.0" type="curve" smooth="yes"/>
      <point x="108.60240963855422" y="705.0" type="line"/>
    </contour>
    <contour>
      <point x="198.7710843373494" y="71.83734939759036" type="line"/>
      <point x="198.7710843373494" y="321.433734939759" type="line"/>
      <point x="477.5180722891566" y="321.433734939759" type="line" smooth="yes"/>
      <point x="544.632530120482" y="321.433734939759"/>
      <point x="668.2650602409639" y="317.9096385542168"/>
      <point x="668.2650602409639" y="197.5180722891566" type="curve" smooth="yes"/>
      <point x="668.2650602409639" y="75.83132530120481"/>
      <point x="540.8072289156627" y="71.83734939759036"/>
      <point x="475.22289156626505" y="71.83734939759036" type="curve" smooth="yes"/>
    </contour>
    <contour>
      <point x="198.7710843373494" y="393.2710843373494" type="line"/>
      <point x="198.7710843373494" y="633.1626506024096" type="line"/>
      <point x="456.8132530120482" y="633.1626506024096" type="line" smooth="yes"/>
      <point x="587.132530120482" y="633.1626506024096"/>
      <point x="647.3253012048193" y="594.3855421686746"/>
      <point x="647.3253012048193" y="512.9518072289156" type="curve" smooth="yes"/>
      <point x="647.3253012048193" y="431.2831325301205"/>
      <point x="587.8975903614459" y="393.2710843373494"/>
      <point x="458.3433734939759" y="393.2710843373494" type="curve" smooth="yes"/>
    </contour>
  </outline>
</glyph>
<glyph name="C" format="2">
  <advance width="832.5180722891565"/>
  <unicode hex="0043"/>
  <anchor x="475.04819277108436" y="0.0" name="bottom"/>
  <anchor x="476.81325301204816" y="705.0" name="top"/>
  <outline>
    <contour>
      <point x="479.27710843373495" y="-8.939759036144578" type="curve" smooth="yes"/>
      <point x="603.7469879518071" y="-8.939759036144578"/>
      <point x="709.6265060240963" y="25.65060240963855"/>
      <point x="780.8614457831326" y="89.12650602409639" type="curve"/>
      <point x="742.1144578313254" y="161.4277108433735" type="line"/>
      <point x="666.5240963855422" y="100.06626506024097"/>
      <point x="587.2831325301205" y="72.65060240963855"/>
      <point x="483.09638554216866" y="72.65060240963855" type="curve" smooth="yes"/>
      <point x="285.2311506024096" y="72.65060240963855"/>
      <point x="173.22891566265062" y="173.25903614457832"/>
      <point x="173.22891566265062" y="351.4698795180723" type="curve" smooth="yes"/>
      <point x="173.22891566265062" y="529.9156626506025"/>
      <point x="285.9962108433735" y="632.3493975903614"/>
      <point x="483.09638554216866" y="632.3493975903614" type="curve" smooth="yes"/>
      <point x="587.2831325301205" y="632.3493975903614"/>
      <point x="666.5240963855422" y="604.933734939759"/>
      <point x="742.1144578313254" y="543.5722891566264" type="curve"/>
      <point x="780.8614457831326" y="615.8734939759036" type="line"/>
      <point x="709.6265060240963" y="679.8192771084337"/>
      <point x="604.512048192771" y="713.9397590361446"/>
      <point x="480.8072289156627" y="713.9397590361446" type="curve" smooth="yes"/>
      <point x="229.5843373493976" y="713.9397590361446"/>
      <point x="74.89156626506025" y="576.5903614457832"/>
      <point x="74.89156626506025" y="352.0" type="curve" smooth="yes"/>
      <point x="74.89156626506025" y="128.17469879518072"/>
      <point x="228.5843373493976" y="-8.939759036144578"/>
    </contour>
  </outline>
</glyph>
<glyph name="D" format="2">
  <advance width="916.4397590361446"/>
  <unicode hex="0044"/>
  <anchor x="456.3975903614458" y="0.0" name="bottom"/>
  <anchor x="221.5722891566265" y="358.0" name="center"/>
  <anchor x="456.63253012048193" y="705.0" name="top"/>
  <outline>
    <contour>
      <point x="108.60240963855422" y="0.0" type="line"/>
      <point x="413.45180722891564" y="0.0" type="line" smooth="yes"/>
      <point x="695.4397590361446" y="0.0"/>
      <point x="842.0180722891566" y="120.64457831325302"/>
      <point x="842.0180722891566" y="353.0" type="curve" smooth="yes"/>
      <point x="842.0180722891566" y="584.5903614457832"/>
      <point x="695.9698795180723" y="705.0"/>
      <point x="413.45180722891564" y="705.0" type="curve" smooth="yes"/>
      <point x="108.60240963855422" y="705.0" type="line"/>
    </contour>
    <contour>
      <point x="201.35542168674698" y="77.00602409638554" type="line"/>
      <point x="201.35542168674698" y="627.9939759036145" type="line"/>
      <point x="407.1024096385542" y="627.9939759036145" type="line" smooth="yes"/>
      <point x="639.3674698795181" y="627.9939759036145"/>
      <point x="744.8554216867469" y="542.210843373494"/>
      <point x="744.8554216867469" y="353.0" type="curve" smooth="yes"/>
      <point x="744.8554216867469" y="163.02409638554218"/>
      <point x="639.6024096385543" y="77.00602409638554"/>
      <point x="407.1024096385542" y="77.00602409638554" type="curve" smooth="yes"/>
    </contour>
  </outline>
</glyph>
<glyph name="E" format="2">
  <advance width="717.5060240963855"/>
  <unicode hex="0045"/>
  <anchor x="399.93373493975906" y="0.0" name="bottom"/>
  <anchor x="615.6927710843373" y="0.0" name="ogonek"/>
  <anchor x="399.93373493975906" y="705.0" name="top"/>
  <anchor x="28.590361445783135" y="705.0" name="topleft"/>
  <outline>
    <contour>
      <point x="108.60240963855422" y="0.0" type="line"/>
      <point x="658.3313253012049" y="0.0" type="line"/>
      <point x="658.3313253012049" y="74.42168674698796" type="line"/>
      <point x="198.7710843373494" y="74.42168674698796" type="line"/>
      <point x="198.7710843373494" y="321.0240963855422" type="line"/>
      <point x="622.9759036144578" y="321.0240963855422" type="line"/>
      <point x="622.9759036144578" y="395.44578313253015" type="line"/>
      <point x="198.7710843373494" y="395.44578313253015" type="line"/>
      <point x="198.7710843373494" y="630.578313253012" type="line"/>
      <point x="658.3313253012049" y="630.578313253012" type="line"/>
      <point x="658.3313253012049" y="705.0" type="line"/>
      <point x="108.60240963855422" y="705.0" type="line"/>
    </contour>
  </outline>
</glyph>
<glyph name="F" format="2">
  <advance width="675.0361445783133"/>
  <unicode hex="0046"/>
  <anchor x="366.2289156626506" y="0.0" name="bottom"/>
  <anchor x="367.8734939759036" y="705.0" name="top"/>
  <outline>
    <contour>
      <point x="108.60240963855422" y="0.0" type="line"/>
      <point x="201.35542168674698" y="0.0" type="line"/>
      <point x="201.35542168674698" y="318.43975903614455" type="line"/>
      <point x="620.8012048192771" y="318.43975903614455" type="line"/>
      <point x="620.8012048192771" y="392.8614457831325" type="line"/>
      <point x="201.35542168674698" y="392.8614457831325" type="line"/>
      <point x="201.35542168674698" y="630.578313253012" type="line"/>
      <point x="646.2710843373494" y="630.578313253012" type="line"/>
      <point x="646.2710843373494" y="705.0" type="line"/>
      <point x="108.60240963855422" y="705.0" type="line"/>
    </contour>
  </outline>
</glyph>
<glyph name="G" format="2">
  <advance width="898.8072289156627"/>
  <unicode hex="0047"/>
  <anchor x="492.1024096385542" y="0.0" name="bottom"/>
  <anchor x="483.1024096385542" y="705.0" name="top"/>
  <outline>
    <contour>
      <point x="501.86746987951807" y="-8.939759036144578" type="curve" smooth="yes"/>
      <point x="610.4518072289156" y="-8.939759036144578"/>
      <point x="726.6867469879519" y="12.295180722891567"/>
      <point x="797.9698795180723" y="45.174698795180724" type="curve"/>
      <point x="797.9698795180723" y="369.39156626506025" type="line"/>
      <point x="489.8795180722891" y="369.39156626506025" type="line"/>
      <point x="489.8795180722891" y="298.9638554216868" type="line"/>
      <point x="716.2590361445783" y="298.9638554216868" type="line"/>
      <point x="716.2590361445783" y="81.1987951807229" type="line"/>
      <point x="732.1927710843373" y="109.13253012048193" type="line"/>
      <point x="661.5421686746988" y="83.89156626506025"/>
      <point x="584.7650602409639" y="70.53614457831326"/>
      <point x="505.63253012048193" y="70.53614457831326" type="curve" smooth="yes"/>
      <point x="286.6072469879518" y="70.53614457831326"/>
      <point x="172.0542168674699" y="166.789156626506"/>
      <point x="172.0542168674699" y="349.70481927710847" type="curve" smooth="yes"/>
      <point x="172.0542168674699" y="531.855421686747"/>
      <point x="284.79768674698795" y="633.289156626506"/>
      <point x="486.855421686747" y="633.289156626506" type="curve" smooth="yes"/>
      <point x="592.1566265060242" y="633.289156626506"/>
      <point x="673.3373493975903" y="606.578313253012"/>
      <point x="749.6325301204819" y="546.3915662650602" type="curve"/>
      <point x="788.8493975903615" y="617.9879518072289" type="line"/>
      <point x="716.144578313253" y="680.0542168674698"/>
      <point x="609.6204819277109" y="713.9397590361446"/>
      <point x="485.9759036144578" y="713.9397590361446" type="curve" smooth="yes"/>
      <point x="230.52409638554215" y="713.9397590361446"/>
      <point x="74.89156626506025" y="577.2951807228916"/>
      <point x="74.89156626506025" y="350.76506024096386" type="curve" smooth="yes"/>
      <point x="74.89156626506025" y="122.93975903614458"/>
      <point x="230.87951807228916" y="-8.939759036144578"/>
    </contour>
  </outline>
</glyph>
<glyph name="H" format="2">
  <advance width="942.8012048192771"/>
  <unicode hex="0048"/>
  <anchor x="471.51807228915663" y="0.0" name="bottom"/>
  <anchor x="471.51807228915663" y="554.5180722891566" name="center"/>
  <anchor x="471.2831325301205" y="705.0" name="top"/>
  <anchor x="28.590361445783135" y="705.0" name="topleft"/>
  <outline>
    <contour>
      <point x="108.60240963855422" y="0.0" type="line"/>
      <point x="201.35542168674698" y="0.0" type="line"/>
      <point x="201.35542168674698" y="319.37951807228916" type="line"/>
      <point x="741.4457831325302" y="319.37951807228916" type="line"/>
      <point x="741.4457831325302" y="0.0" type="line"/>
      <point x="834.1987951807229" y="0.0" type="line"/>
      <point x="834.1987951807229" y="705.0" type="line"/>
      <point x="741.4457831325302" y="705.0" type="line"/>
      <point x="741.4457831325302" y="396.3855421686747" type="line"/>
      <point x="201.35542168674698" y="396.3855421686747" type="line"/>
      <point x="201.35542168674698" y="705.0" type="line"/>
      <point x="108.60240963855422" y="705.0" type="line"/>
    </contour>
  </outline>
</glyph>
<glyph name="J" format="2">
  <advance width="392.3614457831325"/>
  <unicode hex="004A"/>
  <anchor x="238.79518072289156" y="0.0" name="bottom"/>
  <anchor x="237.03012048192772" y="705.0" name="top"/>
  <outline>
    <contour>
      <point x="-8.710843373493978" y="-7.409638554216867" type="line"/>
      <point x="67.73493975903615" y="-3.174698795180723" type="line" smooth="yes"/>
      <point x="207.5857168674699" y="5.483367469879519"/>
      <point x="283.75903614457826" y="75.46385542168674"/>
      <point x="283.75903614457826" y="197.0963855421687" type="curve" smooth="yes"/>
      <point x="283.75903614457826" y="705.0" type="line"/>
      <point x="191.00602409638554" y="705.0" type="line"/>
      <point x="191.00602409638554" y="197.6867469879518" type="line" smooth="yes"/>
      <point x="191.00602409638554" y="123.66867469879519"/>
      <point x="143.87951807228916" y="77.6566265060241"/>
      <point x="57.04216867469879" y="72.36144578313254" type="curve" smooth="yes"/>
      <point x="-15.295180722891565" y="68.12650602409639" type="line"/>
    </contour>
  </outline>
</glyph>
<glyph name="K" format="2">
  <advance width="763.9397590361446"/>
  <unicode hex="004B"/>
  <anchor x="386.68072289156623" y="0.0" name="bottom"/>
  <anchor x="386.91566265060237" y="705.0" name="top"/>
  <anchor x="28.590361445783135" y="705.0" name="topleft"/>
  <outline>
    <contour>
      <point x="108.60240963855422" y="0.0" type="line"/>
      <point x="201.35542168674698" y="0.0" type="line"/>
      <point x="201.35542168674698" y="332.421686746988" type="line"/>
      <point x="203.35542168674698" y="332.421686746988" type="line"/>
      <point x="649.3614457831325" y="0.0" type="line"/>
      <point x="782.2168674698795" y="0.0" type="line"/>
      <point x="266.6506024096385" y="376.51807228915663" type="line"/>
      <point x="266.4156626506024" y="344.94578313253015" type="line"/>
      <point x="755.4457831325301" y="705.0" type="line"/>
      <point x="629.4096385542168" y="705.0" type="line"/>
      <point x="203.35542168674698" y="384.6927710843374" type="line"/>
      <point x="201.35542168674698" y="384.6927710843374" type="line"/>
      <point x="201.35542168674698" y="705.0" type="line"/>
      <point x="108.60240963855422" y="705.0" type="line"/>
    </contour>
  </outline>
</glyph>
<glyph name="L" format="2">
  <advance width="667.7349397590361"/>
  <unicode hex="004C"/>
  <anchor x="380.289156626506" y="0.0" name="bottom"/>
  <anchor x="209.33132530120483" y="387.0" name="center"/>
  <anchor x="495.0843373493976" y="390.2289156626506" name="dot"/>
  <anchor x="155.0963855421687" y="705.0" name="top"/>
  <anchor x="344.2530120481928" y="705.0" name="topright"/>
  <outline>
    <contour>
      <point x="108.60240963855422" y="0.0" type="line"/>
      <point x="651.9759036144579" y="0.0" type="line"/>
      <point x="651.9759036144579" y="78.18072289156628" type="line"/>
      <point x="201.35542168674698" y="78.18072289156628" type="line"/>
      <point x="201.35542168674698" y="705.0" type="line"/>
      <point x="108.60240963855422" y="705.0" type="line"/>
    </contour>
  </outline>
</glyph>
<glyph name="M" format="2">
  <advance width="1061.620481927711"/>
  <unicode hex="004D"/>
  <anchor x="531.9277108433736" y="0.0" name="bottom"/>
  <anchor x="531.9277108433736" y="705.0" name="top"/>
  <outline>
    <contour>
      <point x="110.60240963855422" y="0.0" type="line"/>
      <point x="196.95180722891567" y="0.0" type="line"/>
      <point x="196.95180722891567" y="592.0963855421687" type="line"/>
      <point x="173.30722891566265" y="592.0963855421687" type="line"/>
      <point x="502.8855421686747" y="108.355421686747" type="line"/>
      <point x="560.5602409638554" y="108.355421686747" type="line"/>
      <point x="887.0783132530121" y="591.0963855421687" type="line"/>
      <point x="865.1385542168674" y="591.0963855421687" type="line"/>
      <point x="865.1385542168674" y="0.0" type="line"/>
      <point x="951.4879518072289" y="0.0" type="line"/>
      <point x="951.4879518072289" y="705.0" type="line"/>
      <point x="870.5481927710844" y="705.0" type="line"/>
      <point x="514.222891566265" y="172.87951807228916" type="line"/>
      <point x="549.5722891566265" y="172.87951807228916" type="line"/>
      <point x="191.83734939759037" y="705.0" type="line"/>
      <point x="110.60240963855422" y="705.0" type="line"/>
    </contour>
  </outline>
</glyph>
<glyph name="N" format="2">
  <advance width="917.5120481927711"/>
  <unicode hex="004E"/>
  <anchor x="458.8734939759036" y="0.0" name="bottom"/>
  <anchor x="458.8734939759036" y="705.0" name="top"/>
  <outline>
    <contour>
      <point x="108.60240963855422" y="0.0" type="line"/>
      <point x="197.00602409638554" y="0.0" type="line"/>
      <point x="197.00602409638554" y="599.0903614457832" type="line"/>
      <point x="174.60240963855424" y="599.0903614457832" type="line"/>
      <point x="734.2530120481928" y="0.0" type="line"/>
      <point x="808.9096385542168" y="0.0" type="line"/>
      <point x="808.9096385542168" y="705.0" type="line"/>
      <point x="720.5060240963855" y="705.0" type="line"/>
      <point x="720.5060240963855" y="106.37951807228916" type="line"/>
      <point x="743.9096385542168" y="106.37951807228916" type="line"/>
      <point x="183.49397590361446" y="705.0" type="line"/>
      <point x="108.60240963855422" y="705.0" type="line"/>
    </contour>
  </outline>
</glyph>
<glyph name="O" format="2">
  <advance width="947.3795180722891"/>
  <unicode hex="004F"/>
  <anchor x="473.8072289156626" y="-8.939759036144578" name="Qtail"/>
  <anchor x="473.8072289156626" y="0.0" name="bottom"/>
  <anchor x="474.3975903614458" y="353.0" name="center"/>
  <anchor x="543.9819277108433" y="0.0" name="ogonek"/>
  <anchor x="474.0421686746988" y="705.0" name="top"/>
  <anchor x="29.704819277108435" y="705.0" name="topleft"/>
  <anchor x="564.632530120482" y="705.0" name="topright"/>
  <outline>
    <contour>
      <point x="474.04216867469876" y="-8.939759036144578" type="curve" smooth="yes"/>
      <point x="717.5602409638554" y="-8.939759036144578"/>
      <point x="872.9578313253012" y="131.87951807228913"/>
      <point x="872.9578313253012" y="353.23493975903614" type="curve" smooth="yes"/>
      <point x="872.9578313253012" y="574.5903614457832"/>
      <point x="717.5602409638554" y="713.9397590361446"/>
      <point x="474.04216867469876" y="713.9397590361446" type="curve" smooth="yes"/>
      <point x="230.289156626506" y="713.9397590361446"/>
      <point x="74.89156626506025" y="573.5903614457832"/>
      <point x="74.89156626506025" y="352.0" type="curve" smooth="yes"/>
      <point x="74.89156626506025" y="130.644578313253"/>
      <point x="230.05421686746988" y="-8.939759036144578"/>
    </contour>
    <contour>
      <point x="474.04216867469876" y="70.53614457831326" type="curve" smooth="yes"/>
      <point x="285.2469879518073" y="70.53614457831326"/>
      <point x="172.0542168674699" y="176.31927710843374"/>
      <point x="172.0542168674699" y="352.0" type="curve" smooth="yes"/>
      <point x="172.0542168674699" y="528.1506024096385"/>
      <point x="286.2469879518073" y="634.4638554216867"/>
      <point x="474.04216867469876" y="634.4638554216867" type="curve" smooth="yes"/>
      <point x="662.8373493975903" y="634.4638554216867"/>
      <point x="775.7951807228916" y="529.1506024096386"/>
      <point x="775.7951807228916" y="353.0" type="curve" smooth="yes"/>
      <point x="775.7951807228916" y="177.31927710843374"/>
      <point x="661.6024096385541" y="70.53614457831326"/>
    </contour>
  </outline>
</glyph>
<glyph name="P" format="2">
  <advance width="781.0843373493975"/>
  <unicode hex="0050"/>
  <anchor x="398.9277108433735" y="0.0" name="bottom"/>
  <anchor x="399.16265060240966" y="705.0" name="top"/>
  <outline>
    <contour>
      <point x="108.60240963855422" y="0.0" type="line"/>
      <point x="201.35542168674698" y="0.0" type="line"/>
      <point x="201.35542168674698" y="278.0843373493976" type="line"/>
      <point x="463.26506024096386" y="278.0843373493976" type="line" smooth="yes"/>
      <point x="648.1179337349398" y="278.0843373493976"/>
      <point x="743.078313253012" y="350.5481927710843"/>
      <point x="743.078313253012" y="491.77710843373495" type="curve" smooth="yes"/>
      <point x="743.078313253012" y="633.7710843373494"/>
      <point x="648.1179337349398" y="705.0"/>
      <point x="463.26506024096386" y="705.0" type="curve" smooth="yes"/>
      <point x="108.60240963855422" y="705.0" type="line"/>
    </contour>
    <contour>
      <point x="201.35542168674698" y="352.03614457831327" type="line"/>
      <point x="201.35542168674698" y="631.0481927710844" type="line"/>
      <point x="455.5722891566265" y="631.0481927710844" type="line" smooth="yes"/>
      <point x="590.777108433735" y="631.0481927710844"/>
      <point x="650.6144578313254" y="588.8012048192771"/>
      <point x="650.6144578313254" y="492.0120481927711" type="curve" smooth="yes"/>
      <point x="650.6144578313254" y="395.4578313253012"/>
      <point x="589.0722891566265" y="352.03614457831327"/>
      <point x="455.5722891566265" y="352.03614457831327" type="curve" smooth="yes"/>
    </contour>
  </outline>
</glyph>
<glyph name="R" format="2">
  <advance width="826.9698795180723"/>
  <unicode hex="0052"/>
  <anchor x="414.3373493975904" y="0.0" name="bottom"/>
  <anchor x="414.1024096385542" y="705.0" name="top"/>
  <outline>
    <contour>
      <point x="108.60240963855422" y="0.0" type="line"/>
      <point x="201.35542168674698" y="0.0" type="line"/>
      <point x="201.35542168674698" y="293.31927710843377" type="line"/>
      <point x="383.7590361445783" y="293.31927710843377" type="line" smooth="yes"/>
      <point x="472.01204819277103" y="293.31927710843377"/>
      <point x="503.5481927710843" y="277.2590361445783"/>
      <point x="541.7951807228915" y="221.7710843373494" type="curve" smooth="yes"/>
      <point x="692.2108433734941" y="0.0" type="line"/>
      <point x="796.9578313253012" y="0.0" type="line"/>
      <point x="639.7108433734941" y="226.66867469879517" type="line" smooth="yes"/>
      <point x="599.710843373494" y="284.7289156626506"/>
      <point x="551.8313253012049" y="310.4939759036145"/>
      <point x="487.8313253012048" y="310.4939759036145" type="curve" smooth="yes"/>
      <point x="462.4457831325301" y="310.4939759036145" type="line"/>
      <point x="449.3855421686747" y="296.31927710843377" type="line"/>
      <point x="638.3192771084338" y="296.31927710843377"/>
      <point x="743.078313253012" y="370.84337349397595"/>
      <point x="743.078313253012" y="504.77710843373495" type="curve" smooth="yes"/>
      <point x="743.078313253012" y="634.2409638554217"/>
      <point x="644.5542168674699" y="705.0"/>
      <point x="462.3253012048193" y="705.0" type="curve" smooth="yes"/>
      <point x="108.60240963855422" y="705.0" type="line"/>
    </contour>
    <contour>
      <point x="201.35542168674698" y="363.98192771084337" type="line"/>
      <point x="201.35542168674698" y="631.0481927710844" type="line"/>
      <point x="452.04216867469876" y="631.0481927710844" type="line" smooth="yes"/>
      <point x="588.7168674698796" y="631.0481927710844"/>
      <point x="650.6144578313254" y="588.3313253012047"/>
      <point x="650.6144578313254" y="498.60240963855426" type="curve" smooth="yes"/>
      <point x="650.6144578313254" y="407.6385542168674"/>
      <point x="588.7168674698796" y="363.98192771084337"/>
      <point x="452.04216867469876" y="363.98192771084337" type="curve" smooth="yes"/>
    </contour>
  </outline>
</glyph>
<glyph name="S" format="2">
  <advance width="757.3855421686748"/>
  <unicode hex="0053"/>
  <anchor x="391.6927710843373" y="0.0" name="bottom"/>
  <anchor x="385.7469879518072" y="705.0" name="top"/>
  <outline>
    <contour>
      <point x="387.5180722891566" y="-8.939759036144578" type="curve" smooth="yes"/>
      <point x="588.9156626506025" y="-8.939759036144578"/>
      <point x="710.1987951807229" y="64.99397590361446"/>
      <point x="710.1987951807229" y="188.27710843373495" type="curve" smooth="yes"/>
      <point x="710.1987951807229" y="299.2168674698795"/>
      <point x="629.5542168674699" y="351.32530120481925"/>
      <point x="470.3192771084337" y="374.03012048192767" type="curve" smooth="yes"/>
      <point x="320.62048192771084" y="395.43975903614455" type="line" smooth="yes"/>
      <point x="216.18072289156626" y="410.32530120481925"/>
      <point x="170.64457831325302" y="441.86746987951807"/>
      <point x="170.64457831325302" y="510.3012048192771" type="curve" smooth="yes"/>
      <point x="170.64457831325302" y="588.9156626506025"/>
      <point x="250.01807228915663" y="635.8734939759036"/>
      <point x="386.1626506024096" y="635.8734939759036" type="curve" smooth="yes"/>
      <point x="495.86746987951807" y="635.8734939759036"/>
      <point x="574.1024096385543" y="609.5180722891566"/>
      <point x="651.3975903614457" y="549.156626506024" type="curve"/>
      <point x="687.2048192771084" y="618.933734939759" type="line"/>
      <point x="615.7349397590361" y="680.644578313253"/>
      <point x="511.03614457831327" y="713.9397590361446"/>
      <point x="388.9216867469879" y="713.9397590361446" type="curve" smooth="yes"/>
      <point x="199.7590361445783" y="713.9397590361446"/>
      <point x="77.53614457831326" y="633.1204819277109"/>
      <point x="77.53614457831326" y="504.3072289156626" type="curve" smooth="yes"/>
      <point x="77.53614457831326" y="396.72289156626505"/>
      <point x="149.29518072289156" y="336.43373493975906"/>
      <point x="302.4698795180723" y="315.1987951807229" type="curve" smooth="yes"/>
      <point x="457.4578313253012" y="294.2590361445783" type="line" smooth="yes"/>
      <point x="558.9578313253012" y="280.078313253012"/>
      <point x="616.8554216867469" y="258.48192771084337"/>
      <point x="616.8554216867469" y="183.63253012048193" type="curve" smooth="yes"/>
      <point x="616.8554216867469" y="109.66867469879517"/>
      <point x="537.3072289156627" y="69.12650602409639"/>
      <point x="390.7469879518072" y="69.12650602409639" type="curve" smooth="yes"/>
      <point x="271.68674698795184" y="69.12650602409639"/>
      <point x="185.4578313253012" y="94.36144578313254"/>
      <point x="94.28313253012048" y="154.6024096385542" type="curve"/>
      <point x="58.24096385542168" y="82.24096385542168" type="line"/>
      <point x="139.65060240963857" y="23.295180722891565"/>
      <point x="255.63855421686745" y="-8.939759036144578"/>
    </contour>
  </outline>
</glyph>
<glyph name="T" format="2">
  <advance width="741.5"/>
  <unicode hex="0054"/>
  <anchor x="370.86746987951807" y="0.0" name="bottom"/>
  <anchor x="371.1024096385542" y="358.0" name="center"/>
  <anchor x="371.1024096385542" y="705.0" name="top"/>
  <outline>
    <contour>
      <point x="324.60843373493975" y="0.0" type="line"/>
      <point x="417.3614457831325" y="0.0" type="line"/>
      <point x="417.3614457831325" y="627.9939759036145" type="line"/>
      <point x="740.3253012048193" y="627.9939759036145" type="line"/>
      <point x="740.3253012048193" y="705.0" type="line"/>
      <point x="1.644578313253012" y="705.0" type="line"/>
      <point x="1.644578313253012" y="627.9939759036145" type="line"/>
      <point x="324.60843373493975" y="627.9939759036145" type="line"/>
    </contour>
  </outline>
</glyph>
<glyph name="U" format="2">
  <advance width="903.4518072289156"/>
  <unicode hex="0055"/>
  <anchor x="451.3433734939759" y="0.0" name="bottom"/>
  <anchor x="522.1084337349397" y="0.0" name="ogonek"/>
  <anchor x="451.3433734939759" y="705.0" name="top"/>
  <anchor x="724.9518072289156" y="705.0" name="topright"/>
  <outline>
    <contour>
      <point x="451.81325301204816" y="-8.939759036144578" type="curve" smooth="yes"/>
      <point x="684.3855421686746" y="-8.939759036144578"/>
      <point x="800.8493975903614" y="88.52409638554217"/>
      <point x="800.8493975903614" y="278.5722891566265" type="curve" smooth="yes"/>
      <point x="800.8493975903614" y="705.0" type="line"/>
      <point x="708.566265060241" y="705.0" type="line"/>
      <point x="708.566265060241" y="282.92771084337346" type="line" smooth="yes"/>
      <point x="708.566265060241" y="141.72289156626505"/>
      <point x="624.1987951807229" y="70.53614457831326"/>
      <point x="451.81325301204816" y="70.53614457831326" type="curve" smooth="yes"/>
      <point x="280.1927710843374" y="70.53614457831326"/>
      <point x="194.59036144578312" y="141.72289156626505"/>
      <point x="194.59036144578312" y="282.92771084337346" type="curve" smooth="yes"/>
      <point x="194.59036144578312" y="705.0" type="line"/>
      <point x="101.83734939759037" y="705.0" type="line"/>
      <point x="101.83734939759037" y="278.5722891566265" type="line" smooth="yes"/>
      <point x="101.83734939759037" y="88.99397590361446"/>
      <point x="219.00602409638554" y="-8.939759036144578"/>
    </contour>
  </outline>
</glyph>
<glyph name="V" format="2">
  <advance width="847.3734939759037"/>
  <unicode hex="0056"/>
  <anchor x="423.68674698795184" y="0.0" name="bottom"/>
  <anchor x="423.68674698795184" y="705.0" name="top"/>
  <outline>
    <contour>
      <point x="379.8313253012048" y="0.0" type="line"/>
      <point x="467.5421686746988" y="0.0" type="line"/>
      <point x="849.5361445783133" y="705.0" type="line"/>
      <point x="749.2590361445783" y="705.0" type="line"/>
      <point x="409.45783132530124" y="69.05421686746989" type="line"/>
      <point x="442.2650602409638" y="69.05421686746989" type="line"/>
      <point x="101.99397590361446" y="705.0" type="line"/>
      <point x="-2.1626506024096392" y="705.0" type="line"/>
    </contour>
  </outline>
</glyph>
<glyph name="W" format="2">
  <advance width="1366.4518072289156"/>
  <unicode hex="0057"/>
  <anchor x="684.8734939759036" y="0.0" name="bottom"/>
  <anchor x="683.578313253012" y="705.0" name="top"/>
  <outline>
    <contour>
      <point x="342.1867469879518" y="0.0" type="line"/>
      <point x="425.13253012048193" y="0.0" type="line"/>
      <point x="693.5180722891566" y="602.3373493975903" type="line"/>
      <point x="671.6385542168674" y="602.3373493975903" type="line"/>
      <point x="940.2590361445783" y="0.0" type="line"/>
      <point x="1024.5" y="0.0" type="line"/>
      <point x="1330.1445783132529" y="705.0" type="line"/>
      <point x="1235.2710843373495" y="705.0" type="line"/>
      <point x="963.8253012048193" y="78.91566265060241" type="line"/>
      <point x="999.578313253012" y="78.91566265060241" type="line"/>
      <point x="722.9036144578313" y="705.0" type="line"/>
      <point x="645.4819277108435" y="705.0" type="line"/>
      <point x="368.5722891566265" y="78.91566265060241" type="line"/>
      <point x="408.1506024096385" y="78.91566265060241" type="line"/>
      <point x="136.70481927710844" y="705.0" type="line"/>
      <point x="37.01204819277108" y="705.0" type="line"/>
    </contour>
  </outline>
</glyph>
<glyph name="X" format="2">
  <advance width="800.5542168674699"/>
  <unicode hex="0058"/>
  <anchor x="401.27710843373495" y="0.0" name="bottom"/>
  <anchor x="401.27710843373495" y="705.0" name="top"/>
  <outline>
    <contour>
      <point x="12.259036144578312" y="0.0" type="line"/>
      <point x="126.76506024096386" y="0.0" type="line"/>
      <point x="416.3855421686747" y="315.27108433734935" type="line"/>
      <point x="381.69879518072287" y="315.27108433734935" type="line"/>
      <point x="671.8493975903615" y="0.0" type="line"/>
      <point x="788.7048192771085" y="0.0" type="line"/>
      <point x="441.13253012048193" y="377.63253012048193" type="line"/>
      <point x="441.13253012048193" y="342.60843373493975" type="line"/>
      <point x="772.5843373493975" y="705.0" type="line"/>
      <point x="658.3132530120482" y="705.0" type="line"/>
      <point x="389.289156626506" y="407.0903614457831" type="line"/>
      <point x="415.79518072289153" y="407.0903614457831" type="line"/>
      <point x="143.82530120481928" y="705.0" type="line"/>
      <point x="26.96987951807229" y="705.0" type="line"/>
      <point x="359.89156626506025" y="342.60843373493975" type="line"/>
      <point x="359.89156626506025" y="377.63253012048193" type="line"/>
    </contour>
  </outline>
</glyph>
<glyph name="Y" format="2">
  <advance width="732.3192771084338"/>
  <unicode hex="0059"/>
  <anchor x="365.27710843373495" y="0.0" name="bottom"/>
  <anchor x="365.98192771084337" y="705.0" name="top"/>
  <anchor x="17.704819277108435" y="705.0" name="topleft"/>
  <outline>
    <contour>
      <point x="319.2530120481928" y="0.0" type="line"/>
      <point x="412.00602409638554" y="0.0" type="line"/>
      <point x="412.00602409638554" y="357.23493975903614" type="line"/>
      <point x="393.2530120481928" y="304.3855421686747" type="line"/>
      <point x="747.7710843373494" y="705.0" type="line"/>
      <point x="644.0843373493975" y="705.0" type="line"/>
      <point x="356.45783132530124" y="383.5602409638554" type="line"/>
      <point x="380.2710843373494" y="383.5602409638554" type="line"/>
      <point x="95.40963855421687" y="705.0" type="line"/>
      <point x="-15.451807228915664" y="705.0" type="line"/>
      <point x="339.7710843373494" y="304.3855421686747" type="line"/>
      <point x="319.2530120481928" y="357.23493975903614" type="line"/>
    </contour>
  </outline>
</glyph>
<glyph name="Z" format="2">
  <advance width="725.1506024096386"/>
  <unicode hex="005A"/>
  <anchor x="378.51807228915663" y="0.0" name="bottom"/>
  <anchor x="378.2831325301205" y="705.0" name="top"/>
  <outline>
    <contour>
      <point x="56.765060240963855" y="0.0" type="line"/>
      <point x="700.3855421686748" y="0.0" type="line"/>
      <point x="700.3855421686748" y="75.36144578313254" type="line"/>
      <point x="149.9277108433735" y="75.36144578313254" type="line"/>
      <point x="149.9277108433735" y="45.07831325301205" type="line"/>
      <point x="683.6807228915663" y="638.578313253012" type="line"/>
      <point x="683.6807228915663" y="705.0" type="line"/>
      <point x="56.765060240963855" y="705.0" type="line"/>
      <point x="56.765060240963855" y="629.6385542168675" type="line"/>
      <point x="591.2831325301205" y="629.6385542168675" type="line"/>
      <point x="591.2831325301205" y="660.3915662650602" type="line"/>
      <point x="56.765060240963855" y="66.42168674698796" type="line"/>
    </contour>
  </outline>
</glyph>
<glyph name="bracketleft" format="2">
  <advance width="377.2349397590362"/>
  <unicode hex="005B"/>
  <outline>
    <contour>
      <point x="133.65060240963854" y="-180.0" type="line"/>
      <point x="371.53614457831327" y="-180.0" type="line"/>
      <point x="371.53614457831327" y="-110.63253012048193" type="line"/>
      <point x="222.87951807228916" y="-110.63253012048193" type="line"/>
      <point x="222.87951807228916" y="635.6325301204819" type="line"/>
      <point x="371.53614457831327" y="635.6325301204819" type="line"/>
      <point x="371.53614457831327" y="705.0" type="line"/>
      <point x="133.65060240963854" y="705.0" type="line"/>
    </contour>
  </outline>
</glyph>
<glyph name="bracketright" format="2">
  <advance width="377.2349397590362"/>
  <unicode hex="005D"/>
  <outline>
    <contour>
      <point x="5.698795180722892" y="-180.0" type="line"/>
      <point x="243.81927710843374" y="-180.0" type="line"/>
      <point x="243.81927710843374" y="705.0" type="line"/>
      <point x="5.698795180722892" y="705.0" type="line"/>
      <point x="5.698795180722892" y="635.6325301204819" type="line"/>
      <point x="154.59036144578312" y="635.6325301204819" type="line"/>
      <point x="154.59036144578312" y="-110.63253012048193" type="line"/>
      <point x="5.698795180722892" y="-110.63253012048193" type="line"/>
    </contour>
  </outline>
</glyph>
<glyph name="asciicircum" format="2">
  <advance width="748.0"/>
  <unicode hex="005E"/>
  <outline>
    <contour>
      <point x="86.8433734939759" y="143.71686746987953" type="line"/>
      <point x="161.80120481927713" y="143.71686746987953" type="line"/>
      <point x="395.63253012048193" y="589.8313253012049" type="line"/>
      <point x="352.83734939759034" y="589.8313253012049" type="line"/>
      <point x="586.1987951807229" y="143.71686746987953" type="line"/>
      <point x="661.1566265060242" y="143.71686746987953" type="line"/>
      <point x="409.03614457831327" y="627.2349397590361" type="line"/>
      <point x="338.96385542168673" y="627.2349397590361" type="line"/>
    </contour>
  </outline>
</glyph>
<glyph name="underscore" format="2">
  <advance width="618.4096385542168"/>
  <unicode hex="005F"/>
  <outline>
    <contour>
      <point x="21.704819277108435" y="-56.6144578313253" type="line"/>
      <point x="596.7048192771084" y="-56.6144578313253" type="line"/>
      <point x="596.7048192771084" y="0.0" type="line"/>
      <point x="21.704819277108435" y="0.0" type="line"/>
    </contour>
  </outline>
</glyph>
<glyph name="a" format="2">
  <advance width="652.855421686747"/>
  <unicode hex="0061"/>
  <anchor x="329.51807228915663" y="0.0" name="bottom"/>
  <anchor x="547.9156626506024" y="0.0" name="ogonek"/>
  <anchor x="333.9879518072289" y="484.0" name="top"/>
  <outline>
    <contour>
      <point x="278.06024096385545" y="-8.939759036144578" type="curve" smooth="yes"/>
      <point x="385.8313253012048" y="-8.939759036144578"/>
      <point x="457.54216867469876" y="39.53614457831325"/>
      <point x="487.01807228915663" y="115.36144578313254" type="curve"/>
      <point x="474.1927710843374" y="114.59638554216868" type="line"/>
      <point x="474.1927710843374" y="0.0" type="line"/>
      <point x="558.8975903614457" y="0.0" type="line"/>
      <point x="558.8975903614457" y="305.3734939759036" type="line" smooth="yes"/>
      <point x="558.8975903614457" y="434.06024096385545"/>
      <point x="481.55421686746985" y="495.28915662650604"/>
      <point x="329.289156626506" y="495.28915662650604" type="curve" smooth="yes"/>
      <point x="245.17469879518072" y="495.28915662650604"/>
      <point x="152.1867469879518" y="471.5240963855422"/>
      <point x="93.4277108433735" y="433.7590361445783" type="curve"/>
      <point x="122.88554216867469" y="367.91566265060237" type="line"/>
      <point x="181.23493975903614" y="405.3313253012048"/>
      <point x="252.87951807228916" y="424.6265060240964"/>
      <point x="329.0542168674699" y="424.6265060240964" type="curve" smooth="yes"/>
      <point x="425.5963855421687" y="424.6265060240964"/>
      <point x="472.72289156626505" y="390.2048192771084"/>
      <point x="472.72289156626505" y="315.06626506024094" type="curve" smooth="yes"/>
      <point x="472.72289156626505" y="201.70481927710844" type="line" smooth="yes"/>
      <point x="472.72289156626505" y="115.86144578313252"/>
      <point x="392.71084337349396" y="56.43373493975904"/>
      <point x="290.22289156626505" y="56.43373493975904" type="curve" smooth="yes"/>
      <point x="208.26506024096386" y="56.43373493975904"/>
      <point x="158.36746987951807" y="92.15060240963855"/>
      <point x="158.36746987951807" y="146.40361445783134" type="curve" smooth="yes"/>
      <point x="158.36746987951807" y="199.1265060240964"/>
      <point x="196.60843373493975" y="224.78313253012047"/>
      <point x="379.4759036144578" y="224.78313253012047" type="curve" smooth="yes"/>
      <point x="488.6024096385542" y="224.78313253012047" type="line"/>
      <point x="488.6024096385542" y="282.34337349397595" type="line"/>
      <point x="377.18072289156623" y="282.34337349397595" type="line" smooth="yes"/>
      <point x="139.1265060240964" y="282.34337349397595"/>
      <point x="68.4277108433735" y="235.93373493975903"/>
      <point x="68.4277108433735" y="144.22891566265062" type="curve" smooth="yes"/>
      <point x="68.4277108433735" y="55.644578313253014"/>
      <point x="154.95180722891567" y="-8.939759036144578"/>
    </contour>
  </outline>
</glyph>
<glyph name="b" format="2">
  <advance width="722.6807228915662"/>
  <unicode hex="0062"/>
  <anchor x="385.355421686747" y="0.0" name="bottom"/>
  <anchor x="379.81325301204816" y="705.0" name="top"/>
  <outline>
    <contour>
      <point x="397.49397590361446" y="-8.939759036144578" type="curve" smooth="yes"/>
      <point x="556.4337349397591" y="-8.939759036144578"/>
      <point x="664.4337349397591" y="90.23493975903614"/>
      <point x="664.4337349397591" y="243.40963855421685" type="curve" smooth="yes"/>
      <point x="664.4337349397591" y="396.58433734939763"/>
      <point x="556.4337349397591" y="495.28915662650604"/>
      <point x="397.49397590361446" y="495.28915662650604" type="curve" smooth="yes"/>
      <point x="290.48192771084337" y="495.28915662650604"/>
      <point x="203.89156626506022" y="446.45783132530124"/>
      <point x="172.24698795180723" y="370.50602409638554" type="curve"/>
      <point x="185.65662650602408" y="370.50602409638554" type="line"/>
      <point x="185.65662650602408" y="705.0" type="line"/>
      <point x="96.4277108433735" y="705.0" type="line"/>
      <point x="96.4277108433735" y="0.0" type="line"/>
      <point x="184.71686746987953" y="0.0" type="line"/>
      <point x="184.71686746987953" y="116.3132530120482" type="line"/>
      <point x="172.24698795180723" y="116.3132530120482" type="line"/>
      <point x="203.89156626506022" y="39.89156626506024"/>
      <point x="290.2469879518072" y="-8.939759036144578"/>
    </contour>
    <contour>
      <point x="378.81325301204816" y="61.95783132530121" type="curve" smooth="yes"/>
      <point x="257.61445783132524" y="61.95783132530121"/>
      <point x="184.1867469879518" y="131.62048192771084"/>
      <point x="184.1867469879518" y="243.40963855421685" type="curve" smooth="yes"/>
      <point x="184.1867469879518" y="355.19879518072287"/>
      <point x="257.61445783132524" y="424.39156626506025"/>
      <point x="378.81325301204816" y="424.39156626506025" type="curve" smooth="yes"/>
      <point x="499.54216867469876" y="424.39156626506025"/>
      <point x="573.4397590361447" y="355.19879518072287"/>
      <point x="573.4397590361447" y="243.40963855421685" type="curve" smooth="yes"/>
      <point x="573.4397590361447" y="131.62048192771084"/>
      <point x="499.54216867469876" y="61.95783132530121"/>
    </contour>
  </outline>
</glyph>
<glyph name="c" format="2">
  <advance width="571.6325301204819"/>
  <unicode hex="0063"/>
  <anchor x="344.4036144578313" y="0.0" name="bottom"/>
  <anchor x="344.4036144578313" y="484.0" name="top"/>
  <outline>
    <contour>
      <point x="342.16265060240966" y="-8.939759036144578" type="curve" smooth="yes"/>
      <point x="424.5120481927711" y="-8.939759036144578"/>
      <point x="498.7409638554217" y="15.120481927710845"/>
      <point x="549.7409638554217" y="57.596385542168676" type="curve"/>
      <point x="516.1084337349398" y="121.78915662650601" type="line"/>
      <point x="467.51807228915663" y="82.78313253012048"/>
      <point x="409.63253012048193" y="62.897590361445786"/>
      <point x="346.09638554216866" y="62.897590361445786" type="curve" smooth="yes"/>
      <point x="224.07831325301206" y="62.897590361445786"/>
      <point x="150.41566265060243" y="132.32530120481928"/>
      <point x="150.41566265060243" y="242.93975903614455" type="curve" smooth="yes"/>
      <point x="150.41566265060243" y="353.49397590361446"/>
      <point x="224.07831325301206" y="423.4518072289157"/>
      <point x="346.3313253012048" y="423.4518072289157" type="curve" smooth="yes"/>
      <point x="409.1024096385542" y="423.4518072289157"/>
      <point x="466.9277108433735" y="404.09638554216866"/>
      <point x="516.1084337349398" y="365.7951807228916" type="curve"/>
      <point x="549.7409638554217" y="428.7530120481928" type="line"/>
      <point x="499.9759036144578" y="471.6987951807229"/>
      <point x="425.5120481927711" y="495.28915662650604"/>
      <point x="342.16265060240966" y="495.28915662650604" type="curve" smooth="yes"/>
      <point x="170.12048192771084" y="495.28915662650604"/>
      <point x="58.24698795180723" y="395.5843373493976"/>
      <point x="58.24698795180723" y="243.17469879518072" type="curve" smooth="yes"/>
      <point x="58.24698795180723" y="90.53012048192771"/>
      <point x="170.12048192771084" y="-8.939759036144578"/>
    </contour>
  </outline>
</glyph>
<glyph name="d" format="2">
  <advance width="722.6807228915662"/>
  <unicode hex="0064"/>
  <anchor x="362.9879518072289" y="0.0" name="bottom"/>
  <anchor x="360.69879518072287" y="245.46987951807228" name="center"/>
  <anchor x="517.6385542168675" y="584.2289156626506" name="stroke"/>
  <anchor x="361.22289156626505" y="484.0" name="top"/>
  <anchor x="684.6144578313252" y="705.0" name="topright"/>
  <outline>
    <contour>
      <point x="327.48192771084337" y="-8.939759036144578" type="curve" smooth="yes"/>
      <point x="433.49397590361446" y="-8.939759036144578"/>
      <point x="521.3795180722891" y="38.36144578313253"/>
      <point x="550.7289156626506" y="114.01807228915663" type="curve"/>
      <point x="537.9638554216867" y="114.01807228915663" type="line"/>
      <point x="537.9638554216867" y="0.0" type="line"/>
      <point x="626.2530120481928" y="0.0" type="line"/>
      <point x="626.2530120481928" y="705.0" type="line"/>
      <point x="537.0240963855422" y="705.0" type="line"/>
      <point x="537.0240963855422" y="372.80120481927713" type="line"/>
      <point x="550.7289156626506" y="372.80120481927713" type="line"/>
      <point x="521.3795180722891" y="447.9879518072289"/>
      <point x="433.72891566265065" y="495.28915662650604"/>
      <point x="327.48192771084337" y="495.28915662650604" type="curve" smooth="yes"/>
      <point x="164.7168674698795" y="495.28915662650604"/>
      <point x="58.24698795180723" y="396.58433734939763"/>
      <point x="58.24698795180723" y="243.40963855421685" type="curve" smooth="yes"/>
      <point x="58.24698795180723" y="90.23493975903614"/>
      <point x="164.7168674698795" y="-8.939759036144578"/>
    </contour>
    <contour>
      <point x="343.86746987951807" y="61.95783132530121" type="curve" smooth="yes"/>
      <point x="222.66867469879517" y="61.95783132530121"/>
      <point x="149.24096385542168" y="131.62048192771084"/>
      <point x="149.24096385542168" y="243.40963855421685" type="curve" smooth="yes"/>
      <point x="149.24096385542168" y="355.19879518072287"/>
      <point x="222.66867469879517" y="424.39156626506025"/>
      <point x="343.86746987951807" y="424.39156626506025" type="curve" smooth="yes"/>
      <point x="464.59638554216866" y="424.39156626506025"/>
      <point x="538.4939759036145" y="355.19879518072287"/>
      <point x="538.4939759036145" y="243.40963855421685" type="curve" smooth="yes"/>
      <point x="538.4939759036145" y="131.62048192771084"/>
      <point x="464.59638554216866" y="61.95783132530121"/>
    </contour>
  </outline>
</glyph>
<glyph name="e" format="2">
  <advance width="655.4578313253012"/>
  <unicode hex="0065"/>
  <anchor x="346.17469879518075" y="0.0" name="bottom"/>
  <anchor x="458.84939759036143" y="0.0" name="ogonek"/>
  <anchor x="351.34337349397595" y="484.0" name="top"/>
  <outline>
    <contour>
      <point x="362.0421686746988" y="-8.939759036144578" type="curve" smooth="yes"/>
      <point x="460.6867469879518" y="-8.939759036144578"/>
      <point x="550.8012048192771" y="18.180722891566266"/>
      <point x="597.1506024096385" y="59.891566265060234" type="curve"/>
      <point x="568.3975903614457" y="121.50000000000001" type="line"/>
      <point x="516.9216867469879" y="81.07831325301204"/>
      <point x="450.8072289156627" y="61.72289156626506"/>
      <point x="368.4518072289157" y="61.72289156626506" type="curve" smooth="yes"/>
      <point x="218.855421686747" y="61.72289156626506"/>
      <point x="145.95180722891567" y="127.73493975903615"/>
      <point x="145.95180722891567" y="244.2289156626506" type="curve" smooth="yes"/>
      <point x="145.95180722891567" y="250.93373493975903" type="line" smooth="yes"/>
      <point x="145.95180722891567" y="360.6024096385542"/>
      <point x="221.5" y="430.855421686747"/>
      <point x="349.6385542168675" y="430.855421686747" type="curve" smooth="yes"/>
      <point x="464.3072289156626" y="430.855421686747"/>
      <point x="528.4397590361446" y="373.1927710843373"/>
      <point x="529.144578313253" y="266.81325301204816" type="curve"/>
      <point x="550.8493975903615" y="281.86746987951807" type="line"/>
      <point x="124.77710843373494" y="281.86746987951807" type="line"/>
      <point x="124.77710843373494" y="223.83734939759034" type="line"/>
      <point x="607.1506024096385" y="223.83734939759034" type="line"/>
      <point x="607.1506024096385" y="256.00602409638554" type="line" smooth="yes"/>
      <point x="607.1506024096385" y="406.76506024096386"/>
      <point x="509.27710843373495" y="495.28915662650604"/>
      <point x="348.05421686746985" y="495.28915662650604" type="curve" smooth="yes"/>
      <point x="176.4156626506024" y="495.28915662650604"/>
      <point x="58.24698795180723" y="393.1144578313253"/>
      <point x="58.24698795180723" y="239.64457831325302" type="curve" smooth="yes"/>
      <point x="58.24698795180723" y="85.46987951807229"/>
      <point x="176.59036144578315" y="-8.939759036144578"/>
    </contour>
  </outline>
</glyph>
<glyph name="f" format="2">
  <advance width="401.7168674698795"/>
  <unicode hex="0066"/>
  <anchor x="169.79518072289156" y="0.0" name="bottom"/>
  <anchor x="169.79518072289156" y="705.0" name="top"/>
  <outline>
    <contour>
      <point x="124.94578313253011" y="0.0" type="line"/>
      <point x="214.17469879518075" y="0.0" type="line"/>
      <point x="214.17469879518075" y="418.45180722891564" type="line"/>
      <point x="390.59638554216866" y="418.45180722891564" type="line"/>
      <point x="390.59638554216866" y="486.34939759036143" type="line"/>
      <point x="194.77710843373495" y="486.34939759036143" type="line"/>
      <point x="214.17469879518075" y="467.18674698795184" type="line"/>
      <point x="214.17469879518075" y="509.88554216867465" type="line" smooth="yes"/>
      <point x="214.17469879518075" y="592.6746987951807"/>
      <point x="261.1867469879518" y="631.7469879518072"/>
      <point x="356.4879518072289" y="636.5120481927711" type="curve" smooth="yes"/>
      <point x="419.59638554216866" y="639.9819277108434" type="line"/>
      <point x="411.95180722891564" y="708.4096385542168" type="line"/>
      <point x="359.68072289156623" y="705.2349397590361" type="line" smooth="yes"/>
      <point x="201.58433734939757" y="695.5903614457832"/>
      <point x="124.94578313253011" y="628.8313253012049"/>
      <point x="124.94578313253011" y="498.54819277108436" type="curve" smooth="yes"/>
      <point x="124.94578313253011" y="466.95180722891564" type="line"/>
      <point x="144.57831325301206" y="486.34939759036143" type="line"/>
      <point x="4.590361445783132" y="486.34939759036143" type="line"/>
      <point x="4.590361445783132" y="418.45180722891564" type="line"/>
      <point x="124.94578313253011" y="418.45180722891564" type="line"/>
    </contour>
  </outline>
</glyph>
<glyph name="g" format="2">
  <advance width="723.8554216867469"/>
  <unicode hex="0067"/>
  <anchor x="362.9879518072289" y="484.0" name="top"/>
  <outline>
    <contour>
      <point x="356.355421686747" y="-188.93975903614458" type="curve" smooth="yes"/>
      <point x="536.5" y="-188.93975903614458"/>
      <point x="627.4277108433735" y="-113.71084337349397"/>
      <point x="627.4277108433735" y="36.86144578313253" type="curve" smooth="yes"/>
      <point x="627.4277108433735" y="486.34939759036143" type="line"/>
      <point x="539.1385542168675" y="486.34939759036143" type="line"/>
      <point x="539.1385542168675" y="372.80120481927713" type="line"/>
      <point x="551.433734939759" y="372.80120481927713" type="line"/>
      <point x="524.9036144578313" y="447.9879518072289"/>
      <point x="438.4277108433735" y="495.28915662650604"/>
      <point x="328.1867469879518" y="495.28915662650604" type="curve" smooth="yes"/>
      <point x="164.24698795180723" y="495.28915662650604"/>
      <point x="58.24698795180723" y="401.28915662650604"/>
      <point x="58.24698795180723" y="253.87951807228916" type="curve" smooth="yes"/>
      <point x="58.24698795180723" y="106.46987951807229"/>
      <point x="164.48192771084337" y="12.0"/>
      <point x="328.8915662650602" y="12.0" type="curve" smooth="yes"/>
      <point x="438.66265060240966" y="12.0"/>
      <point x="524.9036144578313" y="59.3012048192771"/>
      <point x="551.433734939759" y="134.72289156626505" type="curve"/>
      <point x="539.3734939759037" y="134.72289156626505" type="line"/>
      <point x="539.3734939759037" y="25.63253012048193" type="line" smooth="yes"/>
      <point x="539.3734939759037" y="-68.56024096385542"/>
      <point x="476.54216867469876" y="-118.27710843373494"/>
      <point x="356.18072289156623" y="-118.27710843373494" type="curve" smooth="yes"/>
      <point x="263.5903614457831" y="-118.27710843373494"/>
      <point x="190.66265060240966" y="-102.63253012048193"/>
      <point x="122.24096385542168" y="-53.91566265060241" type="curve"/>
      <point x="92.25301204819277" y="-117.6987951807229" type="line"/>
      <point x="155.9036144578313" y="-167.46987951807228"/>
      <point x="249.77710843373492" y="-188.93975903614458"/>
    </contour>
    <contour>
      <point x="344.57228915662654" y="82.89759036144578" type="curve" smooth="yes"/>
      <point x="223.60843373493975" y="82.89759036144578"/>
      <point x="149.24096385542168" y="148.56024096385542"/>
      <point x="149.24096385542168" y="253.87951807228916" type="curve" smooth="yes"/>
      <point x="149.24096385542168" y="359.1987951807229"/>
      <point x="223.60843373493975" y="424.39156626506025"/>
      <point x="344.57228915662654" y="424.39156626506025" type="curve" smooth="yes"/>
      <point x="465.53614457831327" y="424.39156626506025"/>
      <point x="539.9036144578313" y="359.1987951807229"/>
      <point x="539.9036144578313" y="253.87951807228916" type="curve" smooth="yes"/>
      <point x="539.9036144578313" y="148.56024096385542"/>
      <point x="465.53614457831327" y="82.89759036144578"/>
    </contour>
  </outline>
</glyph>
<glyph name="h" format="2">
  <advance width="703.6807228915662"/>
  <unicode hex="0068"/>
  <anchor x="350.63253012048193" y="0.0" name="bottom"/>
  <anchor x="350.63253012048193" y="246.644578313253" name="center"/>
  <anchor x="295.39156626506025" y="352.5301204819277" name="dot"/>
  <anchor x="202.5120481927711" y="584.2289156626506" name="stroke"/>
  <anchor x="351.86746987951807" y="705.0" name="top"/>
  <anchor x="230.25301204819277" y="705.0" name="topright"/>
  <outline>
    <contour>
      <point x="96.4277108433735" y="0.0" type="line"/>
      <point x="185.65662650602408" y="0.0" type="line"/>
      <point x="185.65662650602408" y="253.18072289156626" type="line" smooth="yes"/>
      <point x="185.65662650602408" y="352.26506024096386"/>
      <point x="256.7289156626506" y="422.7469879518072"/>
      <point x="373.51807228915663" y="422.7469879518072" type="curve" smooth="yes"/>
      <point x="467.2469879518072" y="422.7469879518072"/>
      <point x="520.4939759036145" y="384.855421686747"/>
      <point x="520.4939759036145" y="273.1265060240964" type="curve" smooth="yes"/>
      <point x="520.4939759036145" y="0.0" type="line"/>
      <point x="609.722891566265" y="0.0" type="line"/>
      <point x="609.722891566265" y="277.30120481927713" type="line" smooth="yes"/>
      <point x="609.722891566265" y="439.4156626506024"/>
      <point x="526.1867469879518" y="495.28915662650604"/>
      <point x="393.4277108433735" y="495.28915662650604" type="curve" smooth="yes"/>
      <point x="284.7710843373494" y="495.28915662650604"/>
      <point x="214.24096385542168" y="448.7530120481928"/>
      <point x="175.65662650602408" y="373.27710843373495" type="curve"/>
      <point x="185.89156626506022" y="373.27710843373495" type="line"/>
      <point x="185.65662650602408" y="705.0" type="line"/>
      <point x="96.4277108433735" y="705.0" type="line"/>
    </contour>
  </outline>
</glyph>
<glyph name="i" format="2">
  <advance width="282.0843373493976"/>
  <unicode hex="0069"/>
  <anchor x="141.27710843373492" y="0.0" name="bottom"/>
  <anchor x="172.73493975903614" y="0.0" name="ogonek"/>
  <outline>
    <contour>
      <point x="83.30722891566266" y="605.0783132530121" type="line"/>
      <point x="197.5421686746988" y="605.0783132530121" type="line"/>
      <point x="197.5421686746988" y="701.3855421686746" type="line"/>
      <point x="83.30722891566266" y="701.3855421686746" type="line"/>
    </contour>
    <contour>
      <point x="96.4277108433735" y="0.0" type="line"/>
      <point x="185.65662650602408" y="0.0" type="line"/>
      <point x="185.65662650602408" y="486.34939759036143" type="line"/>
      <point x="96.4277108433735" y="486.34939759036143" type="line"/>
    </contour>
  </outline>
</glyph>
<glyph name="j" format="2">
  <advance width="281.433734939759"/>
  <unicode hex="006A"/>
  <outline>
    <contour>
      <point x="85.48192771084338" y="605.0783132530121" type="line"/>
      <point x="199.71686746987953" y="605.0783132530121" type="line"/>
      <point x="199.71686746987953" y="701.3855421686746" type="line"/>
      <point x="85.48192771084338" y="701.3855421686746" type="line"/>
    </contour>
    <contour>
      <point x="-67.89156626506023" y="-193.0" type="line"/>
      <point x="-11.77710843373494" y="-189.76506024096386" type="line" smooth="yes"/>
      <point x="128.12048192771084" y="-181.65060240963857"/>
      <point x="187.06626506024097" y="-116.12650602409639"/>
      <point x="187.06626506024097" y="-1.3795180722891551" type="curve" smooth="yes"/>
      <point x="187.06626506024097" y="486.34939759036143" type="line"/>
      <point x="97.83734939759037" y="486.34939759036143" type="line"/>
      <point x="97.83734939759037" y="-11.367469879518072" type="line" smooth="yes"/>
      <point x="97.83734939759037" y="-78.03012048192771"/>
      <point x="58.65060240963855" y="-115.10240963855422"/>
      <point x="-18.012048192771083" y="-120.57228915662651" type="curve" smooth="yes"/>
      <point x="-74.18072289156626" y="-124.74698795180721" type="line"/>
    </contour>
  </outline>
</glyph>
<glyph name="k" format="2">
  <advance width="608.6506024096385"/>
  <unicode hex="006B"/>
  <anchor x="304.32530120481925" y="0.0" name="bottom"/>
  <anchor x="351.86746987951807" y="705.0" name="top"/>
  <outline>
    <contour>
      <point x="94.13253012048193" y="0.0" type="line"/>
      <point x="183.36144578313252" y="0.0" type="line"/>
      <point x="183.36144578313252" y="226.13253012048193" type="line"/>
      <point x="185.36144578313252" y="226.13253012048193" type="line"/>
      <point x="491.71084337349396" y="0.0" type="line"/>
      <point x="619.0481927710842" y="0.0" type="line"/>
      <point x="246.48795180722894" y="272.69879518072287" type="line"/>
      <point x="246.48795180722894" y="231.59036144578315" type="line"/>
      <point x="590.8614457831326" y="486.34939759036143" type="line"/>
      <point x="468.46385542168673" y="486.34939759036143" type="line"/>
      <point x="185.36144578313252" y="271.8072289156626" type="line"/>
      <point x="183.36144578313252" y="271.8072289156626" type="line"/>
      <point x="183.36144578313252" y="705.0" type="line"/>
      <point x="94.13253012048193" y="705.0" type="line"/>
    </contour>
  </outline>
</glyph>
<glyph name="l" format="2">
  <advance width="356.43373493975906"/>
  <unicode hex="006C"/>
  <anchor x="227.57831325301203" y="0.0" name="bottom"/>
  <anchor x="150.80722891566265" y="357.0" name="center"/>
  <anchor x="331.355421686747" y="357.0" name="dot"/>
  <anchor x="138.5120481927711" y="705.0" name="top"/>
  <anchor x="241.19277108433735" y="705.0" name="topright"/>
  <outline>
    <contour>
      <point x="276.1024096385542" y="-8.939759036144578" type="curve" smooth="yes"/>
      <point x="298.9759036144578" y="-8.939759036144578"/>
      <point x="322.67469879518075" y="-6.234939759036144"/>
      <point x="346.55421686746985" y="-1.5301204819277108" type="curve"/>
      <point x="350.0843373493976" y="71.48192771084338" type="line"/>
      <point x="333.90361445783134" y="67.71686746987952"/>
      <point x="312.433734939759" y="65.95180722891567"/>
      <point x="295.43373493975906" y="65.95180722891567" type="curve" smooth="yes"/>
      <point x="220.77710843373495" y="65.95180722891567"/>
      <point x="183.36144578313252" y="104.54819277108433"/>
      <point x="183.36144578313252" y="175.4457831325301" type="curve" smooth="yes"/>
      <point x="183.36144578313252" y="705.0" type="line"/>
      <point x="94.13253012048193" y="705.0" type="line"/>
      <point x="94.13253012048193" y="167.2710843373494" type="line" smooth="yes"/>
      <point x="94.13253012048193" y="54.28915662650603"/>
      <point x="157.65662650602408" y="-8.939759036144578"/>
    </contour>
  </outline>
</glyph>
<glyph name="m" format="2">
  <advance width="1063.7349397590363"/>
  <unicode hex="006D"/>
  <anchor x="533.1024096385541" y="0.0" name="bottom"/>
  <anchor x="533.1024096385541" y="484.0" name="top"/>
  <outline>
    <contour>
      <point x="98.4277108433735" y="0.0" type="line"/>
      <point x="187.65662650602408" y="0.0" type="line"/>
      <point x="187.65662650602408" y="253.18072289156623" type="line" smooth="yes"/>
      <point x="187.65662650602408" y="352.26506024096386"/>
      <point x="252.43373493975903" y="422.7469879518072"/>
      <point x="358.3975903614458" y="422.7469879518072" type="curve" smooth="yes"/>
      <point x="441.3012048192771" y="422.7469879518072"/>
      <point x="488.2530120481928" y="384.855421686747"/>
      <point x="488.2530120481928" y="272.89156626506025" type="curve" smooth="yes"/>
      <point x="488.2530120481928" y="0.0" type="line"/>
      <point x="577.4819277108435" y="0.0" type="line"/>
      <point x="577.4819277108435" y="253.18072289156623" type="line" smooth="yes"/>
      <point x="577.4819277108435" y="352.26506024096386"/>
      <point x="642.7289156626506" y="422.7469879518072"/>
      <point x="748.222891566265" y="422.7469879518072" type="curve" smooth="yes"/>
      <point x="831.5963855421687" y="422.7469879518072"/>
      <point x="878.5481927710844" y="384.855421686747"/>
      <point x="878.5481927710844" y="272.89156626506025" type="curve" smooth="yes"/>
      <point x="878.5481927710844" y="0.0" type="line"/>
      <point x="967.777108433735" y="0.0" type="line"/>
      <point x="967.777108433735" y="277.30120481927713" type="line" smooth="yes"/>
      <point x="967.777108433735" y="439.4156626506024"/>
      <point x="890.3788313253011" y="495.28915662650604"/>
      <point x="766.2530120481927" y="495.28915662650604" type="curve" smooth="yes"/>
      <point x="662.499626506024" y="495.28915662650604"/>
      <point x="593.3865421686746" y="448.4177951807229"/>
      <point x="555.1927710843373" y="373.0421686746988" type="curve"/>
      <point x="565.7228915662649" y="373.0421686746988" type="line"/>
      <point x="540.0632771084338" y="463.0256927710843"/>
      <point x="472.8961807228916" y="495.28915662650604"/>
      <point x="378.3072289156627" y="495.28915662650604" type="curve" smooth="yes"/>
      <point x="278.4759036144578" y="495.28915662650604"/>
      <point x="213.3012048192771" y="447.7530120481928"/>
      <point x="175.48192771084337" y="373.27710843373495" type="curve"/>
      <point x="185.7168674698795" y="373.27710843373495" type="line"/>
      <point x="185.7168674698795" y="486.34939759036143" type="line"/>
      <point x="98.4277108433735" y="486.34939759036143" type="line"/>
    </contour>
  </outline>
</glyph>
<glyph name="n" format="2">
  <advance width="703.6807228915662"/>
  <unicode hex="006E"/>
  <anchor x="349.63253012048193" y="0.0" name="bottom"/>
  <anchor x="349.63253012048193" y="484.0" name="top"/>
  <outline>
    <contour>
      <point x="96.4277108433735" y="0.0" type="line"/>
      <point x="185.65662650602408" y="0.0" type="line"/>
      <point x="185.65662650602408" y="253.18072289156626" type="line" smooth="yes"/>
      <point x="185.65662650602408" y="352.26506024096386"/>
      <point x="256.7289156626506" y="422.7469879518072"/>
      <point x="373.51807228915663" y="422.7469879518072" type="curve" smooth="yes"/>
      <point x="467.2469879518072" y="422.7469879518072"/>
      <point x="520.4939759036145" y="384.855421686747"/>
      <point x="520.4939759036145" y="273.1265060240964" type="curve" smooth="yes"/>
      <point x="520.4939759036145" y="0.0" type="line"/>
      <point x="609.722891566265" y="0.0" type="line"/>
      <point x="609.722891566265" y="277.30120481927713" type="line" smooth="yes"/>
      <point x="609.722891566265" y="439.41566265060237"/>
      <point x="526.1867469879518" y="495.28915662650604"/>
      <point x="393.4277108433735" y="495.28915662650604" type="curve" smooth="yes"/>
      <point x="284.7710843373494" y="495.28915662650604"/>
      <point x="212.06626506024097" y="448.7530120481928"/>
      <point x="173.48192771084337" y="373.27710843373495" type="curve"/>
      <point x="183.7168674698795" y="373.27710843373495" type="line"/>
      <point x="183.7168674698795" y="486.34939759036143" type="line"/>
      <point x="96.4277108433735" y="486.34939759036143" type="line"/>
    </contour>
  </outline>
</glyph>
<glyph name="o" format="2">
  <advance width="687.7349397590361"/>
  <unicode hex="006F"/>
  <anchor x="343.86746987951807" y="0.0" name="bottom"/>
  <anchor x="340.8072289156627" y="243.40963855421685" name="center"/>
  <anchor x="378.6807228915663" y="0.0" name="ogonek"/>
  <anchor x="343.86746987951807" y="484.0" name="top"/>
  <anchor x="403.6265060240964" y="484.0" name="topright"/>
  <outline>
    <contour>
      <point x="343.86746987951807" y="-8.939759036144578" type="curve" smooth="yes"/>
      <point x="519.7891566265059" y="-8.939759036144578"/>
      <point x="629.4879518072289" y="92.17469879518072"/>
      <point x="629.4879518072289" y="243.40963855421685" type="curve" smooth="yes"/>
      <point x="629.4879518072289" y="394.17469879518075"/>
      <point x="519.7891566265059" y="495.28915662650604"/>
      <point x="343.86746987951807" y="495.28915662650604" type="curve" smooth="yes"/>
      <point x="167.47590361445785" y="495.28915662650604"/>
      <point x="58.24698795180723" y="394.17469879518075"/>
      <point x="58.24698795180723" y="243.40963855421685" type="curve" smooth="yes"/>
      <point x="58.24698795180723" y="92.17469879518072"/>
      <point x="167.47590361445785" y="-8.939759036144578"/>
    </contour>
    <contour>
      <point x="343.86746987951807" y="61.95783132530121" type="curve" smooth="yes"/>
      <point x="221.9036144578313" y="61.95783132530121"/>
      <point x="149.24096385542168" y="131.62048192771084"/>
      <point x="149.24096385542168" y="243.40963855421685" type="curve" smooth="yes"/>
      <point x="149.24096385542168" y="355.19879518072287"/>
      <point x="221.9036144578313" y="424.39156626506025"/>
      <point x="343.86746987951807" y="424.39156626506025" type="curve" smooth="yes"/>
      <point x="465.3614457831325" y="424.39156626506025"/>
      <point x="538.4939759036145" y="355.19879518072287"/>
      <point x="538.4939759036145" y="243.40963855421685" type="curve" smooth="yes"/>
      <point x="538.4939759036145" y="131.62048192771084"/>
      <point x="465.3614457831325" y="61.95783132530121"/>
    </contour>
  </outline>
</glyph>
<glyph name="p" format="2">
  <advance width="722.4457831325301"/>
  <unicode hex="0070"/>
  <anchor x="358.92771084337346" y="0.0" name="bottom"/>
  <anchor x="358.92771084337346" y="484.0" name="top"/>
  <outline>
    <contour>
      <point x="96.4277108433735" y="-180.0" type="line"/>
      <point x="185.65662650602408" y="-180.0" type="line"/>
      <point x="185.65662650602408" y="113.78313253012048" type="line"/>
      <point x="171.95180722891567" y="113.78313253012048" type="line"/>
      <point x="198.7168674698795" y="38.36144578313253"/>
      <point x="284.4879518072289" y="-8.939759036144578"/>
      <point x="394.0240963855421" y="-8.939759036144578" type="curve" smooth="yes"/>
      <point x="558.6686746987953" y="-8.939759036144578"/>
      <point x="664.198795180723" y="90.23493975903614"/>
      <point x="664.198795180723" y="243.40963855421685" type="curve" smooth="yes"/>
      <point x="664.198795180723" y="396.58433734939763"/>
      <point x="558.6686746987953" y="495.28915662650604"/>
      <point x="394.0240963855421" y="495.28915662650604" type="curve" smooth="yes"/>
      <point x="284.2530120481928" y="495.28915662650604"/>
      <point x="198.7168674698795" y="447.9879518072289"/>
      <point x="171.95180722891564" y="373.03614457831327" type="curve"/>
      <point x="185.42168674698794" y="373.03614457831327" type="line"/>
      <point x="185.42168674698794" y="486.34939759036143" type="line"/>
      <point x="96.4277108433735" y="486.34939759036143" type="line"/>
    </contour>
    <contour>
      <point x="378.578313253012" y="61.95783132530121" type="curve" smooth="yes"/>
      <point x="257.84939759036143" y="61.95783132530121"/>
      <point x="183.95180722891567" y="131.62048192771084"/>
      <point x="183.95180722891567" y="243.40963855421685" type="curve" smooth="yes"/>
      <point x="183.95180722891567" y="355.19879518072287"/>
      <point x="257.84939759036143" y="424.39156626506025"/>
      <point x="378.578313253012" y="424.39156626506025" type="curve" smooth="yes"/>
      <point x="498.83734939759034" y="424.39156626506025"/>
      <point x="573.2048192771085" y="354.96385542168673"/>
      <point x="573.2048192771085" y="243.40963855421685" type="curve" smooth="yes"/>
      <point x="573.2048192771085" y="131.85542168674698"/>
      <point x="498.83734939759034" y="61.95783132530121"/>
    </contour>
  </outline>
</glyph>
<glyph name="q" format="2">
  <advance width="722.4457831325301"/>
  <unicode hex="0071"/>
  <anchor x="359.39759036144574" y="0.0" name="bottom"/>
  <anchor x="359.39759036144574" y="484.0" name="top"/>
  <outline>
    <contour>
      <point x="536.789156626506" y="-180.0" type="line"/>
      <point x="626.0180722891566" y="-180.0" type="line"/>
      <point x="626.0180722891566" y="486.34939759036143" type="line"/>
      <point x="537.0240963855421" y="486.34939759036143" type="line"/>
      <point x="537.0240963855421" y="373.03614457831327" type="line"/>
      <point x="550.0240963855422" y="373.03614457831327" type="line"/>
      <point x="523.2590361445782" y="447.9879518072289"/>
      <point x="437.72289156626505" y="495.28915662650604"/>
      <point x="328.4216867469879" y="495.28915662650604" type="curve" smooth="yes"/>
      <point x="163.77710843373492" y="495.28915662650604"/>
      <point x="58.24698795180723" y="396.58433734939763"/>
      <point x="58.24698795180723" y="243.40963855421685" type="curve" smooth="yes"/>
      <point x="58.24698795180723" y="90.23493975903614"/>
      <point x="163.77710843373492" y="-8.939759036144578"/>
      <point x="328.4216867469879" y="-8.939759036144578" type="curve" smooth="yes"/>
      <point x="437.95783132530124" y="-8.939759036144578"/>
      <point x="523.2590361445783" y="38.36144578313253"/>
      <point x="550.0240963855422" y="113.78313253012048" type="curve"/>
      <point x="536.789156626506" y="113.78313253012048" type="line"/>
    </contour>
    <contour>
      <point x="343.86746987951807" y="61.95783132530121" type="curve" smooth="yes"/>
      <point x="223.13855421686748" y="61.95783132530121"/>
      <point x="149.24096385542168" y="131.85542168674698"/>
      <point x="149.24096385542168" y="243.40963855421685" type="curve" smooth="yes"/>
      <point x="149.24096385542168" y="354.96385542168673"/>
      <point x="223.13855421686748" y="424.39156626506025"/>
      <point x="343.86746987951807" y="424.39156626506025" type="curve" smooth="yes"/>
      <point x="464.1265060240964" y="424.39156626506025"/>
      <point x="538.4939759036145" y="355.19879518072287"/>
      <point x="538.4939759036145" y="243.40963855421685" type="curve" smooth="yes"/>
      <point x="538.4939759036145" y="131.62048192771084"/>
      <point x="464.1265060240964" y="61.95783132530121"/>
    </contour>
  </outline>
</glyph>
<glyph name="r" format="2">
  <advance width="433.53614457831327"/>
  <unicode hex="0072"/>
  <anchor x="141.51204819277106" y="0.0" name="bottom"/>
  <anchor x="263.9819277108434" y="484.0" name="top"/>
  <outline>
    <contour>
      <point x="96.4277108433735" y="0.0" type="line"/>
      <point x="186.8313253012048" y="0.0" type="line"/>
      <point x="186.8313253012048" y="270.0783132530121" type="line" smooth="yes"/>
      <point x="186.8313253012048" y="353.9759036144578"/>
      <point x="249.1987951807229" y="407.93373493975906"/>
      <point x="367.9759036144578" y="417.933734939759" type="curve" smooth="yes"/>
      <point x="426.94578313253015" y="422.81325301204816" type="line"/>
      <point x="419.30120481927713" y="498.8192771084337" type="line"/>
      <point x="385.60843373493975" y="496.34939759036143" type="line" smooth="yes"/>
      <point x="278.19879518072287" y="488.34939759036143"/>
      <point x="202.54819277108433" y="450.76506024096386"/>
      <point x="170.7168674698795" y="366.17469879518075" type="curve"/>
      <point x="183.7168674698795" y="366.17469879518075" type="line"/>
      <point x="183.7168674698795" y="486.34939759036143" type="line"/>
      <point x="96.4277108433735" y="486.34939759036143" type="line"/>
    </contour>
  </outline>
</glyph>
<glyph name="s" format="2">
  <advance width="593.2228915662652"/>
  <unicode hex="0073"/>
  <anchor x="303.34939759036143" y="0.0" name="bottom"/>
  <anchor x="304.93373493975906" y="484.0" name="top"/>
  <outline>
    <contour>
      <point x="302.87951807228916" y="-8.939759036144578" type="curve" smooth="yes"/>
      <point x="442.4518072289157" y="-8.939759036144578"/>
      <point x="533.5" y="48.34939759036145"/>
      <point x="533.5" y="137.92771084337352" type="curve" smooth="yes"/>
      <point x="533.5" y="207.92168674698794"/>
      <point x="481.62048192771084" y="250.03614457831324"/>
      <point x="381.855421686747" y="263.3915662650602" type="curve" smooth="yes"/>
      <point x="249.16265060240966" y="281.6867469879518" type="line" smooth="yes"/>
      <point x="188.26506024096386" y="289.86746987951807"/>
      <point x="164.13855421686748" y="314.6385542168675"/>
      <point x="164.13855421686748" y="350.4759036144578" type="curve" smooth="yes"/>
      <point x="164.13855421686748" y="394.31325301204816"/>
      <point x="207.3855421686747" y="429.3855421686747"/>
      <point x="303.28915662650604" y="429.3855421686747" type="curve" smooth="yes"/>
      <point x="375.4096385542169" y="429.3855421686747"/>
      <point x="439.5783132530121" y="412.3253012048193"/>
      <point x="491.0421686746988" y="375.84939759036143" type="curve"/>
      <point x="521.855421686747" y="434.81325301204816" type="line"/>
      <point x="478.74096385542174" y="472.99397590361446"/>
      <point x="400.9819277108434" y="495.28915662650604"/>
      <point x="307.51807228915663" y="495.28915662650604" type="curve" smooth="yes"/>
      <point x="164.46987951807228" y="495.28915662650604"/>
      <point x="78.19277108433735" y="430.87951807228916"/>
      <point x="78.19277108433735" y="346.59638554216866" type="curve" smooth="yes"/>
      <point x="78.19277108433735" y="278.77710843373495"/>
      <point x="128.24698795180723" y="231.4277108433735"/>
      <point x="224.36144578313252" y="217.83734939759034" type="curve" smooth="yes"/>
      <point x="357.0542168674699" y="199.54216867469881" type="line" smooth="yes"/>
      <point x="422.72289156626505" y="190.36144578313255"/>
      <point x="447.78915662650604" y="168.06024096385545"/>
      <point x="447.78915662650604" y="133.57831325301206" type="curve" smooth="yes"/>
      <point x="447.78915662650604" y="86.91566265060241"/>
      <point x="396.0120481927711" y="56.7289156626506"/>
      <point x="307.8132530120482" y="56.7289156626506" type="curve" smooth="yes"/>
      <point x="223.57228915662648" y="56.7289156626506"/>
      <point x="145.87951807228916" y="75.2590361445783"/>
      <point x="89.94578313253011" y="110.37951807228914" type="curve"/>
      <point x="63.71686746987952" y="49.24096385542169" type="line"/>
      <point x="111.47590361445782" y="13.120481927710843"/>
      <point x="198.29518072289156" y="-8.939759036144578"/>
    </contour>
  </outline>
</glyph>
<glyph name="t" format="2">
  <advance width="421.77108433734935"/>
  <unicode hex="0074"/>
  <anchor x="262.56626506024094" y="0.0" name="bottom"/>
  <anchor x="198.74096385542168" y="265.3614457831325" name="center"/>
  <anchor x="166.56024096385542" y="635.0" name="top"/>
  <anchor x="299.7831325301205" y="705.0" name="topright"/>
  <outline>
    <contour>
      <point x="323.62048192771084" y="-8.939759036144578" type="curve" smooth="yes"/>
      <point x="368.31927710843377" y="-8.939759036144578"/>
      <point x="410.7289156626506" y="-0.9397590361445783"/>
      <point x="434.77710843373495" y="11.644578313253012" type="curve"/>
      <point x="419.3132530120482" y="78.77710843373494" type="line"/>
      <point x="394.8433734939759" y="70.48192771084338"/>
      <point x="367.2530120481928" y="65.95180722891567"/>
      <point x="338.42771084337346" y="65.95180722891567" type="curve" smooth="yes"/>
      <point x="253.3012048192771" y="65.95180722891567"/>
      <point x="210.93975903614458" y="103.13855421686746"/>
      <point x="210.93975903614458" y="183.86144578313255" type="curve" smooth="yes"/>
      <point x="210.93975903614458" y="418.45180722891564" type="line"/>
      <point x="405.06626506024094" y="418.45180722891564" type="line"/>
      <point x="405.06626506024094" y="486.34939759036143" type="line"/>
      <point x="210.93975903614458" y="486.34939759036143" type="line"/>
      <point x="210.93975903614458" y="635.0" type="line"/>
      <point x="121.71084337349397" y="635.0" type="line"/>
      <point x="121.71084337349397" y="486.34939759036143" type="line"/>
      <point x="2.1204819277108435" y="486.34939759036143" type="line"/>
      <point x="2.1204819277108435" y="418.45180722891564" type="line"/>
      <point x="121.71084337349397" y="418.45180722891564" type="line"/>
      <point x="121.71084337349397" y="174.86144578313255" type="line" smooth="yes"/>
      <point x="121.71084337349397" y="55.05421686746988"/>
      <point x="196.17469879518072" y="-8.939759036144578"/>
    </contour>
  </outline>
</glyph>
<glyph name="u" format="2">
  <advance width="696.3855421686746"/>
  <unicode hex="0075"/>
  <anchor x="348.22289156626505" y="0.0" name="bottom"/>
  <anchor x="588.210843373494" y="0.0" name="ogonek"/>
  <anchor x="348.22289156626505" y="485.0" name="top"/>
  <anchor x="525.2349397590361" y="484.0" name="topright"/>
  <outline>
    <contour>
      <point x="306.2530120481928" y="-8.939759036144578" type="curve" smooth="yes"/>
      <point x="413.2723493975904" y="-8.939759036144578"/>
      <point x="483.98993975903613" y="38.09282530120481"/>
      <point x="522.6686746987951" y="113.30722891566265" type="curve"/>
      <point x="512.6686746987953" y="113.30722891566265" type="line"/>
      <point x="512.6686746987953" y="0.0" type="line"/>
      <point x="599.9578313253012" y="0.0" type="line"/>
      <point x="599.9578313253012" y="486.34939759036143" type="line"/>
      <point x="510.72891566265054" y="486.34939759036143" type="line"/>
      <point x="510.72891566265054" y="232.69879518072287" type="line" smooth="yes"/>
      <point x="510.72891566265054" y="133.6144578313253"/>
      <point x="440.85672891566264" y="63.60240963855422"/>
      <point x="326.63253012048193" y="63.60240963855422" type="curve" smooth="yes"/>
      <point x="234.83051807228915" y="63.60240963855422"/>
      <point x="183.1867469879518" y="101.02409638554217"/>
      <point x="183.1867469879518" y="212.9879518072289" type="curve" smooth="yes"/>
      <point x="183.1867469879518" y="486.34939759036143" type="line"/>
      <point x="93.95783132530121" y="486.34939759036143" type="line"/>
      <point x="93.95783132530121" y="209.28313253012047" type="line" smooth="yes"/>
      <point x="93.95783132530121" y="47.16867469879518"/>
      <point x="176.25751204819278" y="-8.939759036144578"/>
    </contour>
  </outline>
</glyph>
<glyph name="v" format="2">
  <advance width="633.1566265060242"/>
  <unicode hex="0076"/>
  <anchor x="317.2831325301205" y="0.0" name="bottom"/>
  <anchor x="317.2831325301205" y="484.0" name="top"/>
  <outline>
    <contour>
      <point x="273.8373493975904" y="0.0" type="line"/>
      <point x="359.31927710843377" y="0.0" type="line"/>
      <point x="621.0783132530121" y="486.34939759036143" type="line"/>
      <point x="526.6686746987951" y="486.34939759036143" type="line"/>
      <point x="302.46385542168673" y="57.87951807228916" type="line"/>
      <point x="335.7469879518072" y="57.87951807228916" type="line"/>
      <point x="112.01204819277109" y="486.34939759036143" type="line"/>
      <point x="12.313253012048193" y="486.34939759036143" type="line"/>
    </contour>
  </outline>
</glyph>
<glyph name="w" format="2">
  <advance width="1041.3915662650602"/>
  <unicode hex="0077"/>
  <anchor x="520.8132530120482" y="0.0" name="bottom"/>
  <anchor x="520.8132530120482" y="484.0" name="top"/>
  <outline>
    <contour>
      <point x="255.3012048192771" y="0.0" type="line"/>
      <point x="344.0783132530121" y="0.0" type="line"/>
      <point x="543.9216867469879" y="431.8855421686747" type="line"/>
      <point x="497.93975903614455" y="431.8855421686747" type="line"/>
      <point x="697.7831325301205" y="0.0" type="line"/>
      <point x="786.7951807228916" y="0.0" type="line"/>
      <point x="1009.0722891566265" y="486.34939759036143" type="line"/>
      <point x="914.6626506024096" y="486.34939759036143" type="line"/>
      <point x="730.5240963855422" y="64.2831325301205" type="line"/>
      <point x="757.1144578313252" y="64.2831325301205" type="line"/>
      <point x="561.0903614457832" y="486.34939759036143" type="line"/>
      <point x="483.0602409638554" y="486.34939759036143" type="line"/>
      <point x="286.8012048192771" y="64.2831325301205" type="line"/>
      <point x="315.4518072289157" y="64.2831325301205" type="line"/>
      <point x="132.25301204819277" y="486.34939759036143" type="line"/>
      <point x="32.554216867469876" y="486.34939759036143" type="line"/>
    </contour>
  </outline>
</glyph>
<glyph name="x" format="2">
  <advance width="643.3192771084338"/>
  <unicode hex="0078"/>
  <anchor x="322.5120481927711" y="0.0" name="bottom"/>
  <anchor x="322.5120481927711" y="484.0" name="top"/>
  <outline>
    <contour>
      <point x="19.024096385542165" y="0.0" type="line"/>
      <point x="129.42168674698794" y="0.0" type="line"/>
      <point x="337.855421686747" y="211.8433734939759" type="line"/>
      <point x="306.2289156626506" y="211.8433734939759" type="line"/>
      <point x="510.95783132530124" y="0.0" type="line"/>
      <point x="626.7650602409639" y="0.0" type="line"/>
      <point x="359.6626506024096" y="270.8072289156626" type="line"/>
      <point x="359.6626506024096" y="230.77710843373492" type="line"/>
      <point x="611.8253012048192" y="486.34939759036143" type="line"/>
      <point x="501.42771084337346" y="486.34939759036143" type="line"/>
      <point x="306.7590361445783" y="287.9759036144579" type="line"/>
      <point x="338.79518072289153" y="287.9759036144579" type="line"/>
      <point x="148.2409638554217" y="486.34939759036143" type="line"/>
      <point x="33.19879518072289" y="486.34939759036143" type="line"/>
      <point x="287.1867469879518" y="228.95180722891567" type="line"/>
      <point x="287.1867469879518" y="273.63253012048193" type="line"/>
    </contour>
  </outline>
</glyph>
<glyph name="y" format="2">
  <advance width="632.921686746988"/>
  <unicode hex="0079"/>
  <anchor x="477.9096385542168" y="0.0" name="bottom"/>
  <anchor x="317.04819277108436" y="484.0" name="top"/>
  <outline>
    <contour>
      <point x="167.85542168674698" y="-180.0" type="line"/>
      <point x="263.3795180722892" y="-180.0" type="line"/>
      <point x="621.0783132530121" y="486.34939759036143" type="line"/>
      <point x="526.433734939759" y="486.34939759036143" type="line"/>
      <point x="305.87349397590356" y="63.99397590361446" type="line"/>
      <point x="332.8072289156626" y="63.99397590361446" type="line"/>
      <point x="111.77710843373494" y="486.34939759036143" type="line"/>
      <point x="12.078313253012047" y="486.34939759036143" type="line"/>
      <point x="282.0180722891566" y="-15.83132530120482" type="line"/>
      <point x="282.0180722891566" y="31.445783132530124" type="line"/>
    </contour>
  </outline>
</glyph>
<glyph name="z" format="2">
  <advance width="569.7469879518072"/>
  <unicode hex="007A"/>
  <anchor x="293.93373493975906" y="0.0" name="bottom"/>
  <anchor x="293.93373493975906" y="484.0" name="top"/>
  <outline>
    <contour>
      <point x="66.83132530120483" y="0.0" type="line"/>
      <point x="534.8012048192771" y="0.0" type="line"/>
      <point x="534.8012048192771" y="67.89759036144578" type="line"/>
      <point x="148.71686746987953" y="67.89759036144578" type="line"/>
      <point x="148.71686746987953" y="42.439759036144586" type="line"/>
      <point x="520.8012048192771" y="426.6265060240964" type="line"/>
      <point x="520.8012048192771" y="486.34939759036143" type="line"/>
      <point x="66.83132530120483" y="486.34939759036143" type="line"/>
      <point x="66.83132530120483" y="418.45180722891564" type="line"/>
      <point x="437.7409638554217" y="418.45180722891564" type="line"/>
      <point x="437.7409638554217" y="444.37951807228916" type="line"/>
      <point x="66.83132530120483" y="59.722891566265055" type="line"/>
    </contour>
  </outline>
</glyph>
<glyph name="braceleft" format="2">
  <advance width="423.46987951807233"/>
  <unicode hex="007B"/>
  <outline>
    <contour>
      <point x="299.32530120481925" y="-180.0" type="curve" smooth="yes"/>
      <point x="417.7710843373494" y="-180.0" type="line"/>
      <point x="417.7710843373494" y="-110.63253012048193" type="line"/>
      <point x="324.17469879518075" y="-110.63253012048193" type="line" smooth="yes"/>
      <point x="289.17469879518075" y="-110.63253012048193"/>
      <point x="269.1144578313253" y="-92.10240963855422"/>
      <point x="269.1144578313253" y="-59.80722891566265" type="curve" smooth="yes"/>
      <point x="269.1144578313253" y="156.24698795180723" type="line" smooth="yes"/>
      <point x="269.1144578313253" y="220.24096385542168"/>
      <point x="223.23493975903614" y="264.5301204819277"/>
      <point x="157.18072289156626" y="264.5301204819277" type="curve"/>
      <point x="157.18072289156626" y="260.5301204819277" type="line"/>
      <point x="223.23493975903614" y="260.5301204819277"/>
      <point x="269.1144578313253" y="305.0542168674699"/>
      <point x="269.1144578313253" y="369.0481927710843" type="curve" smooth="yes"/>
      <point x="269.1144578313253" y="584.8072289156626" type="line" smooth="yes"/>
      <point x="269.1144578313253" y="617.1024096385541"/>
      <point x="289.17469879518075" y="635.6325301204819"/>
      <point x="324.17469879518075" y="635.6325301204819" type="curve" smooth="yes"/>
      <point x="417.7710843373494" y="635.6325301204819" type="line"/>
      <point x="417.7710843373494" y="705.0" type="line"/>
      <point x="299.32530120481925" y="705.0" type="line" smooth="yes"/>
      <point x="223.8734939759036" y="705.0"/>
      <point x="179.8855421686747" y="664.9518072289156"/>
      <point x="179.8855421686747" y="594.8493975903615" type="curve" smooth="yes"/>
      <point x="179.8855421686747" y="378.39156626506025" type="line" smooth="yes"/>
      <point x="179.8855421686747" y="318.9759036144578"/>
      <point x="150.64457831325302" y="301.50602409638554"/>
      <point x="90.2289156626506" y="298.03614457831327" type="curve" smooth="yes"/>
      <point x="58.536144578313255" y="296.09638554216866" type="line"/>
      <point x="58.536144578313255" y="229.43373493975903" type="line"/>
      <point x="90.2289156626506" y="227.49397590361448" type="line" smooth="yes"/>
      <point x="155.23493975903614" y="224.02409638554218"/>
      <point x="179.8855421686747" y="200.96385542168676"/>
      <point x="179.8855421686747" y="146.90361445783134" type="curve" smooth="yes"/>
      <point x="179.8855421686747" y="-69.84939759036145" type="line" smooth="yes"/>
      <point x="179.8855421686747" y="-139.95180722891567"/>
      <point x="223.8734939759036" y="-180.0"/>
    </contour>
  </outline>
</glyph>
<glyph name="braceright" format="2">
  <advance width="423.46987951807233"/>
  <unicode hex="007D"/>
  <outline>
    <contour>
      <point x="5.698795180722892" y="-180.0" type="line"/>
      <point x="124.37951807228914" y="-180.0" type="line" smooth="yes"/>
      <point x="199.8313253012048" y="-180.0"/>
      <point x="243.81927710843374" y="-139.95180722891567"/>
      <point x="243.81927710843374" y="-69.84939759036145" type="curve" smooth="yes"/>
      <point x="243.81927710843374" y="146.90361445783134" type="line" smooth="yes"/>
      <point x="243.81927710843374" y="200.96385542168676"/>
      <point x="268.23493975903614" y="224.02409638554218"/>
      <point x="333.2409638554217" y="227.49397590361448" type="curve" smooth="yes"/>
      <point x="365.16867469879514" y="229.43373493975903" type="line"/>
      <point x="365.16867469879514" y="296.09638554216866" type="line"/>
      <point x="333.2409638554217" y="298.03614457831327" type="line" smooth="yes"/>
      <point x="272.82530120481925" y="301.2710843373494"/>
      <point x="243.81927710843374" y="318.9759036144578"/>
      <point x="243.81927710843374" y="378.39156626506025" type="curve" smooth="yes"/>
      <point x="243.81927710843374" y="594.8493975903615" type="line" smooth="yes"/>
      <point x="243.81927710843374" y="664.9518072289156"/>
      <point x="199.8313253012048" y="705.0"/>
      <point x="124.37951807228914" y="705.0" type="curve" smooth="yes"/>
      <point x="5.698795180722892" y="705.0" type="line"/>
      <point x="5.698795180722892" y="635.6325301204819" type="line"/>
      <point x="99.76506024096385" y="635.6325301204819" type="line" smooth="yes"/>
      <point x="134.5301204819277" y="635.6325301204819"/>
      <point x="154.59036144578312" y="617.1024096385541"/>
      <point x="154.59036144578312" y="584.8072289156626" type="curve" smooth="yes"/>
      <point x="154.59036144578312" y="369.0481927710843" type="line" smooth="yes"/>
      <point x="154.59036144578312" y="305.0542168674699"/>
      <point x="200.7048192771084" y="260.5301204819277"/>
      <point x="266.28915662650604" y="260.5301204819277" type="curve"/>
      <point x="266.28915662650604" y="264.5301204819277" type="line"/>
      <point x="200.7048192771084" y="264.5301204819277"/>
      <point x="154.59036144578312" y="220.47590361445782"/>
      <point x="154.59036144578312" y="156.24698795180723" type="curve" smooth="yes"/>
      <point x="154.59036144578312" y="-59.80722891566265" type="line" smooth="yes"/>
      <point x="154.59036144578312" y="-92.10240963855422"/>
      <point x="134.5301204819277" y="-110.63253012048193"/>
      <point x="99.76506024096385" y="-110.63253012048193" type="curve" smooth="yes"/>
      <point x="5.698795180722892" y="-110.63253012048193" type="line"/>
    </contour>
  </outline>
</glyph>
<glyph name="asciitilde" format="2">
  <advance width="748.0"/>
  <unicode hex="007E"/>
  <outline>
    <contour>
      <point x="504.12048192771084" y="214.4819277108434" type="curve" smooth="yes"/>
      <point x="570.9939759036146" y="214.4819277108434"/>
      <point x="614.3373493975904" y="242.710843373494"/>
      <point x="652.9879518072289" y="314.12048192771084" type="curve"/>
      <point x="596.7168674698795" y="344.86746987951807" type="line"/>
      <point x="569.0060240963855" y="295.7409638554217"/>
      <point x="545.5361445783133" y="279.50602409638554"/>
      <point x="505.18072289156623" y="279.50602409638554" type="curve" smooth="yes"/>
      <point x="477.2409638554217" y="279.50602409638554"/>
      <point x="448.7168674698795" y="290.7409638554217"/>
      <point x="387.82530120481925" y="316.98192771084337" type="curve" smooth="yes"/>
      <point x="309.58433734939763" y="349.6927710843373"/>
      <point x="279.17469879518075" y="359.22289156626505"/>
      <point x="242.34939759036146" y="359.22289156626505" type="curve" smooth="yes"/>
      <point x="177.53614457831324" y="359.22289156626505"/>
      <point x="133.4277108433735" y="330.7590361445783"/>
      <point x="95.01204819277109" y="259.1144578313253" type="curve"/>
      <point x="152.4578313253012" y="228.83734939759037" type="line"/>
      <point x="178.99397590361448" y="277.72891566265065"/>
      <point x="202.6987951807229" y="294.19879518072287"/>
      <point x="244.81927710843374" y="294.19879518072287" type="curve" smooth="yes"/>
      <point x="274.644578313253" y="294.19879518072287"/>
      <point x="294.46385542168673" y="284.43373493975906"/>
      <point x="361.1144578313253" y="256.2530120481928" type="curve" smooth="yes"/>
      <point x="436.355421686747" y="224.01204819277106"/>
      <point x="466.06024096385545" y="214.4819277108434"/>
    </contour>
  </outline>
</glyph>
<glyph name="exclamdown" format="2">
  <advance width="272.9096385542169"/>
  <unicode hex="00A1"/>
  <outline>
    <contour>
      <point x="81.19879518072288" y="-180.0" type="line"/>
      <point x="191.71084337349396" y="-180.0" type="line"/>
      <point x="163.78915662650604" y="297.15060240963857" type="line"/>
      <point x="109.12048192771084" y="297.15060240963857" type="line"/>
    </contour>
    <contour>
      <point x="80.71686746987952" y="376.8734939759036" type="line"/>
      <point x="192.4277108433735" y="376.8734939759036" type="line"/>
      <point x="192.4277108433735" y="486.34939759036143" type="line"/>
      <point x="80.71686746987952" y="486.34939759036143" type="line"/>
    </contour>
  </outline>
</glyph>
<glyph name="cent" format="2">
  <advance width="748.0"/>
  <unicode hex="00A2"/>
  <outline>
    <contour>
      <point x="357.8433734939759" y="-115.0" type="line"/>
      <point x="434.855421686747" y="-115.0" type="line"/>
      <point x="434.855421686747" y="14.63855421686747" type="line"/>
      <point x="411.22289156626505" y="-6.0" type="line"/>
      <point x="497.04216867469876" y="-5.234939759036145"/>
      <point x="572.2710843373494" y="18.82530120481928"/>
      <point x="622.5060240963855" y="60.536144578313255" type="curve"/>
      <point x="588.8734939759037" y="125.43373493975903" type="line"/>
      <point x="543.343373493976" y="87.13253012048193"/>
      <point x="481.3975903614458" y="66.77710843373494"/>
      <point x="409.39156626506025" y="66.77710843373494" type="curve" smooth="yes"/>
      <point x="285.31325301204816" y="66.77710843373494"/>
      <point x="207.24096385542168" y="134.7951807228916"/>
      <point x="207.24096385542168" y="243.40963855421685" type="curve" smooth="yes"/>
      <point x="207.24096385542168" y="352.2590361445783"/>
      <point x="285.54819277108436" y="420.7469879518072"/>
      <point x="410.09638554216866" y="420.7469879518072" type="curve" smooth="yes"/>
      <point x="481.1024096385542" y="420.7469879518072"/>
      <point x="542.222891566265" y="400.9216867469879"/>
      <point x="589.1084337349398" y="362.855421686747" type="curve"/>
      <point x="622.5060240963855" y="425.81325301204816" type="line"/>
      <point x="573.7409638554217" y="467.99397590361446"/>
      <point x="498.0421686746988" y="491.8192771084337"/>
      <point x="412.22289156626505" y="492.34939759036143" type="curve"/>
      <point x="434.855421686747" y="466.8253012048193" type="line"/>
      <point x="434.855421686747" y="606.5843373493976" type="line"/>
      <point x="357.8433734939759" y="606.5843373493976" type="line"/>
      <point x="357.8433734939759" y="463.30120481927713" type="line"/>
      <point x="377.78313253012044" y="490.4698795180723" type="line"/>
      <point x="218.72289156626508" y="481.8313253012048"/>
      <point x="115.07228915662651" y="385.710843373494"/>
      <point x="115.07228915662651" y="243.17469879518072" type="curve" smooth="yes"/>
      <point x="115.07228915662651" y="99.6987951807229"/>
      <point x="219.8975903614458" y="3.3433734939759043"/>
      <point x="380.6024096385542" y="-4.825301204819278" type="curve"/>
      <point x="357.8433734939759" y="17.692771084337352" type="line"/>
    </contour>
  </outline>
</glyph>
<glyph name="sterling" format="2">
  <advance width="748.0"/>
  <unicode hex="00A3"/>
  <outline>
    <contour>
      <point x="62.77108433734939" y="0.0" type="line"/>
      <point x="690.5180722891566" y="0.0" type="line"/>
      <point x="690.5180722891566" y="76.06626506024097" type="line"/>
      <point x="282.89759036144574" y="76.06626506024097" type="line"/>
      <point x="282.89759036144574" y="319.43373493975906" type="line"/>
      <point x="508.9216867469879" y="319.43373493975906" type="line"/>
      <point x="508.9216867469879" y="387.5060240963855" type="line"/>
      <point x="282.89759036144574" y="387.5060240963855" type="line"/>
      <point x="282.89759036144574" y="507.96385542168673" type="line" smooth="yes"/>
      <point x="282.89759036144574" y="601.8614457831325"/>
      <point x="338.9698795180723" y="638.222891566265"/>
      <point x="450.51807228915663" y="638.222891566265" type="curve" smooth="yes"/>
      <point x="539.7048192771085" y="638.222891566265"/>
      <point x="607.4156626506024" y="614.0421686746988"/>
      <point x="665.4759036144579" y="561.3855421686748" type="curve"/>
      <point x="707.222891566265" y="630.0481927710842" type="line"/>
      <point x="645.7530120481928" y="683.8192771084338"/>
      <point x="549.4036144578313" y="713.9397590361446"/>
      <point x="454.17469879518075" y="713.9397590361446" type="curve" smooth="yes"/>
      <point x="281.36746987951807" y="713.9397590361446"/>
      <point x="189.67469879518075" y="646.8915662650602"/>
      <point x="189.67469879518075" y="509.9578313253012" type="curve" smooth="yes"/>
      <point x="189.67469879518075" y="387.5060240963855" type="line"/>
      <point x="62.77108433734939" y="387.5060240963855" type="line"/>
      <point x="62.77108433734939" y="319.43373493975906" type="line"/>
      <point x="189.67469879518075" y="319.43373493975906" type="line"/>
      <point x="189.67469879518075" y="76.06626506024097" type="line"/>
      <point x="62.77108433734939" y="76.06626506024097" type="line"/>
    </contour>
  </outline>
</glyph>
<glyph name="currency" format="2">
  <advance width="748.0"/>
  <unicode hex="00A4"/>
  <outline>
    <contour>
      <point x="133.8132530120482" y="-26.228915662650603" type="line"/>
      <point x="213.28313253012047" y="49.475903614457835" type="line"/>
      <point x="256.10843373493975" y="17.06024096385542"/>
      <point x="311.75903614457826" y="-2.2951807228915664"/>
      <point x="374.2349397590362" y="-2.2951807228915664" type="curve" smooth="yes"/>
      <point x="437.2409638554217" y="-2.2951807228915664"/>
      <point x="492.89156626506025" y="17.295180722891565"/>
      <point x="535.7168674698795" y="49.47590361445783" type="curve"/>
      <point x="614.656626506024" y="-26.228915662650603" type="line"/>
      <point x="657.4638554216867" y="18.753012048192772" type="line"/>
      <point x="579.4638554216867" y="92.51807228915663" type="line"/>
      <point x="613.4096385542168" y="134.57831325301206"/>
      <point x="632.5301204819277" y="186.99397590361446"/>
      <point x="632.5301204819277" y="245.46987951807228" type="curve" smooth="yes"/>
      <point x="632.5301204819277" y="303.4156626506024"/>
      <point x="613.4096385542168" y="356.59638554216866"/>
      <point x="580.2289156626506" y="398.4216867469879" type="curve"/>
      <point x="657.2289156626506" y="472.421686746988" type="line"/>
      <point x="614.656626506024" y="517.1686746987951" type="line"/>
      <point x="535.1867469879518" y="441.46385542168673" type="line"/>
      <point x="492.1265060240964" y="473.87951807228916"/>
      <point x="436.710843373494" y="493.23493975903614"/>
      <point x="374.2349397590362" y="493.23493975903614" type="curve" smooth="yes"/>
      <point x="310.9939759036144" y="493.23493975903614"/>
      <point x="256.3433734939759" y="473.87951807228916"/>
      <point x="212.51807228915663" y="441.46385542168673" type="curve"/>
      <point x="133.57831325301206" y="516.933734939759" type="line"/>
      <point x="90.7710843373494" y="472.65662650602405" type="line"/>
      <point x="168.00602409638554" y="398.6566265060241" type="line"/>
      <point x="134.82530120481928" y="356.5963855421687"/>
      <point x="115.70481927710843" y="303.65060240963857"/>
      <point x="115.70481927710843" y="245.46987951807228" type="curve" smooth="yes"/>
      <point x="115.70481927710843" y="187.52409638554215"/>
      <point x="135.06024096385542" y="134.34337349397592"/>
      <point x="168.00602409638554" y="92.75301204819277" type="curve"/>
      <point x="90.7710843373494" y="18.753012048192772" type="line"/>
    </contour>
    <contour>
      <point x="374.23493975903614" y="63.31325301204819" type="curve" smooth="yes"/>
      <point x="264.68072289156623" y="63.31325301204819"/>
      <point x="188.07831325301206" y="142.2710843373494"/>
      <point x="188.07831325301206" y="245.46987951807228" type="curve" smooth="yes"/>
      <point x="188.07831325301206" y="349.1385542168675"/>
      <point x="264.44578313253015" y="428.09638554216866"/>
      <point x="374.23493975903614" y="428.09638554216866" type="curve" smooth="yes"/>
      <point x="484.55421686746985" y="427.8614457831325"/>
      <point x="560.1566265060242" y="349.1385542168675"/>
      <point x="560.1566265060242" y="245.46987951807228" type="curve" smooth="yes"/>
      <point x="560.1566265060242" y="142.2710843373494"/>
      <point x="484.55421686746985" y="63.31325301204819"/>
    </contour>
  </outline>
</glyph>
<glyph name="yen" format="2">
  <advance width="748.0"/>
  <unicode hex="00A5"/>
  <outline>
    <contour>
      <point x="327.7409638554217" y="0.0" type="line"/>
      <point x="420.7289156626506" y="0.0" type="line"/>
      <point x="420.7289156626506" y="173.6686746987952" type="line"/>
      <point x="658.6385542168674" y="173.6686746987952" type="line"/>
      <point x="658.6385542168674" y="237.04216867469881" type="line"/>
      <point x="420.7289156626506" y="237.04216867469881" type="line"/>
      <point x="420.7289156626506" y="326.01807228915663" type="line"/>
      <point x="658.6385542168674" y="326.01807228915663" type="line"/>
      <point x="658.6385542168674" y="389.39156626506025" type="line"/>
      <point x="449.3132530120482" y="389.39156626506025" type="line"/>
      <point x="449.3132530120482" y="375.578313253012" type="line"/>
      <point x="752.277108433735" y="705.0" type="line"/>
      <point x="647.6445783132531" y="705.0" type="line"/>
      <point x="361.9457831325301" y="392.9578313253012" type="line"/>
      <point x="386.75903614457826" y="392.9578313253012" type="line"/>
      <point x="101.29518072289156" y="705.0" type="line"/>
      <point x="-3.807228915662651" y="705.0" type="line"/>
      <point x="301.9759036144578" y="375.578313253012" type="line"/>
      <point x="301.9759036144578" y="389.39156626506025" type="line"/>
      <point x="89.83132530120481" y="389.39156626506025" type="line"/>
      <point x="89.83132530120481" y="326.01807228915663" type="line"/>
      <point x="327.7409638554217" y="326.01807228915663" type="line"/>
      <point x="327.7409638554217" y="237.04216867469881" type="line"/>
      <point x="89.83132530120481" y="237.04216867469881" type="line"/>
      <point x="89.83132530120481" y="173.6686746987952" type="line"/>
      <point x="327.7409638554217" y="173.6686746987952" type="line"/>
    </contour>
  </outline>
</glyph>
<glyph name="brokenbar" format="2">
  <advance width="316.43373493975906"/>
  <unicode hex="00A6"/>
  <outline>
    <contour>
      <point x="113.60240963855422" y="372.0" type="line"/>
      <point x="202.83132530120483" y="372.0" type="line"/>
      <point x="202.83132530120483" y="705.0" type="line"/>
      <point x="113.60240963855422" y="705.0" type="line"/>
    </contour>
    <contour>
      <point x="113.60240963855422" y="-180.0" type="line"/>
      <point x="202.83132530120483" y="-180.0" type="line"/>
      <point x="202.83132530120483" y="153.46987951807228" type="line"/>
      <point x="113.60240963855422" y="153.46987951807228" type="line"/>
    </contour>
  </outline>
</glyph>
<glyph name="section" format="2">
  <advance width="667.3734939759037"/>
  <unicode hex="00A7"/>
  <outline>
    <contour>
      <point x="306.68674698795184" y="-188.93975903614458" type="curve" smooth="yes"/>
      <point x="469.0783132530121" y="-188.93975903614458"/>
      <point x="566.7168674698795" y="-122.0"/>
      <point x="566.7168674698795" y="-10.475903614457831" type="curve" smooth="yes"/>
      <point x="566.7168674698795" y="24.397590361445783"/>
      <point x="557.1927710843373" y="53.39156626506024"/>
      <point x="535.9698795180723" y="82.44578313253012" type="curve"/>
      <point x="527.3855421686748" y="57.10843373493976" type="line"/>
      <point x="585.7228915662649" y="95.16265060240964"/>
      <point x="616.9518072289156" y="146.27710843373495"/>
      <point x="616.9518072289156" y="203.68072289156626" type="curve" smooth="yes"/>
      <point x="616.9518072289156" y="279.62048192771084"/>
      <point x="571.5421686746987" y="324.6144578313253"/>
      <point x="443.355421686747" y="373.38554216867465" type="curve" smooth="yes"/>
      <point x="303.0361445783132" y="425.49397590361446" type="line" smooth="yes"/>
      <point x="224.01807228915663" y="455.0903614457831"/>
      <point x="190.06626506024097" y="490.5722891566265"/>
      <point x="190.06626506024097" y="540.7650602409639" type="curve" smooth="yes"/>
      <point x="190.06626506024097" y="606.4939759036145"/>
      <point x="250.1987951807229" y="646.5662650602409"/>
      <point x="354.0421686746988" y="646.5662650602409" type="curve" smooth="yes"/>
      <point x="429.86746987951807" y="646.5662650602409"/>
      <point x="508.63253012048193" y="624.1506024096386"/>
      <point x="561.7409638554218" y="588.4397590361446" type="curve"/>
      <point x="594.2590361445783" y="649.1084337349397" type="line"/>
      <point x="543.4397590361446" y="689.289156626506"/>
      <point x="456.15060240963857" y="713.4096385542168"/>
      <point x="361.39156626506025" y="713.4096385542168" type="curve" smooth="yes"/>
      <point x="199.0" y="713.4096385542168"/>
      <point x="101.36144578313252" y="646.4698795180723"/>
      <point x="101.36144578313252" y="534.9457831325301" type="curve" smooth="yes"/>
      <point x="101.36144578313252" y="500.0722891566265"/>
      <point x="110.88554216867469" y="471.078313253012"/>
      <point x="132.10843373493975" y="442.0240963855422" type="curve"/>
      <point x="140.69277108433735" y="467.3614457831325" type="line"/>
      <point x="82.35542168674698" y="429.3072289156626"/>
      <point x="51.126506024096386" y="378.1927710843374"/>
      <point x="51.126506024096386" y="320.78915662650604" type="curve" smooth="yes"/>
      <point x="51.126506024096386" y="244.84939759036146"/>
      <point x="96.53614457831326" y="199.85542168674698"/>
      <point x="224.72289156626508" y="151.0843373493976" type="curve" smooth="yes"/>
      <point x="365.0421686746988" y="98.97590361445782" type="line" smooth="yes"/>
      <point x="443.5903614457832" y="69.6144578313253"/>
      <point x="478.0120481927711" y="33.897590361445786"/>
      <point x="478.0120481927711" y="-16.06024096385542" type="curve" smooth="yes"/>
      <point x="478.0120481927711" y="-82.25903614457832"/>
      <point x="417.4096385542169" y="-122.09638554216868"/>
      <point x="314.7409638554217" y="-122.09638554216868" type="curve" smooth="yes"/>
      <point x="229.44578313253012" y="-122.09638554216868"/>
      <point x="142.7469879518072" y="-98.09638554216868"/>
      <point x="89.69277108433734" y="-59.271084337349386" type="curve"/>
      <point x="56.704819277108435" y="-121.5843373493976" type="line"/>
      <point x="110.93373493975903" y="-164.644578313253"/>
      <point x="201.63253012048193" y="-188.93975903614458"/>
    </contour>
    <contour>
      <point x="133.54216867469881" y="338.3072289156626" type="curve" smooth="yes"/>
      <point x="133.54216867469881" y="372.37349397590367"/>
      <point x="150.19277108433735" y="400.8493975903615"/>
      <point x="184.1987951807229" y="422.9698795180723" type="curve"/>
      <point x="154.85542168674698" y="423.9698795180723" type="line"/>
      <point x="180.2710843373494" y="396.54819277108436"/>
      <point x="230.5722891566265" y="371.6024096385542"/>
      <point x="287.0602409638554" y="350.53614457831327" type="curve" smooth="yes"/>
      <point x="399.68674698795184" y="308.3072289156626" type="line" smooth="yes"/>
      <point x="502.5903614457831" y="269.4156626506024"/>
      <point x="534.5361445783133" y="239.70481927710844"/>
      <point x="534.5361445783133" y="186.16265060240966" type="curve" smooth="yes"/>
      <point x="534.5361445783133" y="152.0963855421687"/>
      <point x="517.8855421686748" y="123.62048192771084"/>
      <point x="483.8795180722891" y="101.5" type="curve"/>
      <point x="513.222891566265" y="100.50000000000001" type="line"/>
      <point x="487.8072289156626" y="127.92168674698796"/>
      <point x="437.2710843373494" y="153.10240963855424"/>
      <point x="381.01807228915663" y="173.93373493975903" type="curve" smooth="yes"/>
      <point x="268.3915662650602" y="216.16265060240963" type="line" smooth="yes"/>
      <point x="166.25301204819274" y="254.81927710843374"/>
      <point x="133.54216867469881" y="284.76506024096386"/>
    </contour>
  </outline>
</glyph>
<glyph name="copyright" format="2">
  <advance width="1012.4096385542168"/>
  <unicode hex="00A9"/>
  <outline>
    <contour>
      <point x="506.7048192771084" y="-8.939759036144578" type="curve" smooth="yes"/>
      <point x="772.7048192771084" y="-8.939759036144578"/>
      <point x="955.8192771084337" y="138.4698795180723"/>
      <point x="955.8192771084337" y="353.0" type="curve" smooth="yes"/>
      <point x="955.8192771084337" y="566.7650602409639"/>
      <point x="772.9397590361446" y="713.9397590361446"/>
      <point x="506.7048192771084" y="713.9397590361446" type="curve" smooth="yes"/>
      <point x="240.70481927710844" y="713.9397590361446"/>
      <point x="57.59036144578313" y="566.5301204819277"/>
      <point x="57.59036144578313" y="352.0" type="curve" smooth="yes"/>
      <point x="57.59036144578313" y="138.23493975903617"/>
      <point x="240.46987951807228" y="-8.939759036144578"/>
    </contour>
    <contour>
      <point x="518.2831325301205" y="137.0" type="curve" smooth="yes"/>
      <point x="593.5180722891566" y="137.0"/>
      <point x="658.222891566265" y="156.2951807228916"/>
      <point x="702.0481927710842" y="191.71084337349396" type="curve"/>
      <point x="669.7048192771084" y="244.85542168674698" type="line"/>
      <point x="625.8192771084338" y="212.84939759036143"/>
      <point x="586.4036144578314" y="200.7289156626506"/>
      <point x="526.5722891566265" y="200.7289156626506" type="curve" smooth="yes"/>
      <point x="406.7289156626506" y="200.7289156626506"/>
      <point x="344.3072289156627" y="253.03614457831324"/>
      <point x="344.3072289156627" y="354.23493975903614" type="curve" smooth="yes"/>
      <point x="344.3072289156627" y="453.49397590361446"/>
      <point x="406.49397590361446" y="504.2710843373494"/>
      <point x="527.3975903614457" y="504.2710843373494" type="curve" smooth="yes"/>
      <point x="587.7590361445783" y="504.2710843373494"/>
      <point x="627.1746987951807" y="491.6807228915663"/>
      <point x="669.7048192771084" y="459.67469879518075" type="curve"/>
      <point x="702.0481927710842" y="513.289156626506" type="line"/>
      <point x="657.0481927710842" y="549.1746987951807"/>
      <point x="592.5783132530121" y="568.0"/>
      <point x="515.8132530120482" y="568.0" type="curve" smooth="yes"/>
      <point x="359.1144578313253" y="568.0"/>
      <point x="264.4759036144578" y="487.82530120481925"/>
      <point x="264.4759036144578" y="354.06024096385545" type="curve" smooth="yes"/>
      <point x="264.4759036144578" y="219.4698795180723"/>
      <point x="361.4096385542168" y="137.0"/>
    </contour>
    <contour>
      <point x="506.7048192771084" y="36.75301204819277" type="curve" smooth="yes"/>
      <point x="268.1686746987952" y="36.75301204819277"/>
      <point x="108.22289156626505" y="163.2289156626506"/>
      <point x="108.22289156626505" y="352.0" type="curve" smooth="yes"/>
      <point x="108.22289156626505" y="540.7710843373494"/>
      <point x="268.93373493975906" y="668.2469879518072"/>
      <point x="506.7048192771084" y="668.2469879518072" type="curve" smooth="yes"/>
      <point x="745.710843373494" y="668.2469879518072"/>
      <point x="905.1867469879518" y="541.7710843373494"/>
      <point x="905.1867469879518" y="353.0" type="curve" smooth="yes"/>
      <point x="905.1867469879518" y="164.2289156626506"/>
      <point x="744.9457831325301" y="36.75301204819277"/>
    </contour>
  </outline>
</glyph>
<glyph name="ordfeminine" format="2">
  <advance width="402.9819277108434"/>
  <unicode hex="00AA"/>
  <outline>
    <contour>
      <point x="171.29518072289156" y="410.4156626506024" type="curve" smooth="yes"/>
      <point x="226.70481927710844" y="410.4156626506024"/>
      <point x="267.5903614457831" y="430.4156626506024"/>
      <point x="292.00602409638554" y="469.8253012048193" type="curve"/>
      <point x="294.7710843373494" y="469.8253012048193" type="line"/>
      <point x="294.7710843373494" y="415.8855421686747" type="line"/>
      <point x="355.855421686747" y="415.8855421686747" type="line"/>
      <point x="355.855421686747" y="594.5421686746988" type="line" smooth="yes"/>
      <point x="355.855421686747" y="674.6506024096386"/>
      <point x="307.6265060240964" y="713.9397590361446"/>
      <point x="207.2289156626506" y="713.9397590361446" type="curve" smooth="yes"/>
      <point x="146.1144578313253" y="713.9397590361446"/>
      <point x="86.82530120481927" y="700.1746987951807"/>
      <point x="49.066265060240966" y="676.7048192771084" type="curve"/>
      <point x="67.29518072289157" y="633.843373493976" type="line"/>
      <point x="101.1144578313253" y="654.9036144578314"/>
      <point x="148.99397590361446" y="667.9638554216868"/>
      <point x="199.81927710843374" y="667.9638554216868" type="curve" smooth="yes"/>
      <point x="265.8313253012048" y="667.9638554216868"/>
      <point x="292.89156626506025" y="649.4277108433736"/>
      <point x="292.89156626506025" y="601.4156626506024" type="curve" smooth="yes"/>
      <point x="292.89156626506025" y="538.3012048192771" type="line" smooth="yes"/>
      <point x="292.89156626506025" y="490.7590361445783"/>
      <point x="244.29518072289156" y="454.86746987951807"/>
      <point x="179.8132530120482" y="454.86746987951807" type="curve" smooth="yes"/>
      <point x="131.6867469879518" y="454.86746987951807"/>
      <point x="99.09036144578313" y="474.578313253012"/>
      <point x="99.09036144578313" y="503.4096385542169" type="curve" smooth="yes"/>
      <point x="99.09036144578313" y="539.1807228915662"/>
      <point x="140.5" y="549.8915662650603"/>
      <point x="238.65060240963857" y="549.8915662650603" type="curve" smooth="yes"/>
      <point x="302.83132530120486" y="549.8915662650603" type="line"/>
      <point x="302.83132530120486" y="586.3493975903614" type="line"/>
      <point x="237.12048192771084" y="586.3493975903614" type="line" smooth="yes"/>
      <point x="93.83132530120483" y="586.3493975903614"/>
      <point x="34.83132530120482" y="562.8795180722891"/>
      <point x="34.83132530120482" y="504.4698795180723" type="curve" smooth="yes"/>
      <point x="34.83132530120482" y="449.5903614457832"/>
      <point x="91.94578313253011" y="410.4156626506024"/>
    </contour>
  </outline>
</glyph>
<glyph name="logicalnot" format="2">
  <advance width="748.0"/>
  <unicode hex="00AC"/>
  <outline>
    <contour>
      <point x="572.6867469879519" y="143.71686746987953" type="line"/>
      <point x="645.0" y="143.71686746987953" type="line"/>
      <point x="645.0" y="421.7469879518072" type="line"/>
      <point x="103.0" y="421.7469879518072" type="line"/>
      <point x="103.0" y="356.1385542168675" type="line"/>
      <point x="572.6867469879519" y="356.1385542168675" type="line"/>
    </contour>
  </outline>
</glyph>
<glyph name="registered" format="2">
  <advance width="1012.4096385542168"/>
  <unicode hex="00AE"/>
  <outline>
    <contour>
      <point x="506.7048192771084" y="-8.939759036144578" type="curve" smooth="yes"/>
      <point x="772.7048192771084" y="-8.939759036144578"/>
      <point x="955.8192771084337" y="138.4698795180723"/>
      <point x="955.8192771084337" y="353.0" type="curve" smooth="yes"/>
      <point x="955.8192771084337" y="566.7650602409639"/>
      <point x="772.9397590361446" y="713.9397590361446"/>
      <point x="506.7048192771084" y="713.9397590361446" type="curve" smooth="yes"/>
      <point x="240.70481927710844" y="713.9397590361446"/>
      <point x="57.59036144578313" y="566.5301204819277"/>
      <point x="57.59036144578313" y="352.0" type="curve" smooth="yes"/>
      <point x="57.59036144578313" y="138.23493975903617"/>
      <point x="240.46987951807228" y="-8.939759036144578"/>
    </contour>
    <contour>
      <point x="506.7048192771084" y="36.75301204819277" type="curve" smooth="yes"/>
      <point x="268.1686746987952" y="36.75301204819277"/>
      <point x="108.22289156626505" y="163.2289156626506"/>
      <point x="108.22289156626505" y="352.0" type="curve" smooth="yes"/>
      <point x="108.22289156626505" y="540.7710843373494"/>
      <point x="268.93373493975906" y="668.2469879518072"/>
      <point x="506.7048192771084" y="668.2469879518072" type="curve" smooth="yes"/>
      <point x="745.710843373494" y="668.2469879518072"/>
      <point x="905.1867469879518" y="541.7710843373494"/>
      <point x="905.1867469879518" y="353.0" type="curve" smooth="yes"/>
      <point x="905.1867469879518" y="164.2289156626506"/>
      <point x="744.9457831325301" y="36.75301204819277"/>
    </contour>
    <contour>
      <point x="329.13253012048193" y="142.46987951807228" type="line"/>
      <point x="400.1506024096385" y="142.46987951807228" type="line"/>
      <point x="400.1506024096385" y="331.1265060240964" type="line"/>
      <point x="379.5120481927711" y="312.83734939759034" type="line"/>
      <point x="506.7771084337349" y="312.83734939759034" type="line" smooth="yes"/>
      <point x="549.1325301204819" y="312.83734939759034"/>
      <point x="569.0180722891566" y="300.3072289156627"/>
      <point x="583.4337349397591" y="271.59638554216866" type="curve" smooth="yes"/>
      <point x="646.2710843373494" y="142.46987951807228" type="line"/>
      <point x="724.8734939759036" y="142.46987951807228" type="line"/>
      <point x="655.0963855421687" y="282.4759036144578" type="line" smooth="yes"/>
      <point x="636.5060240963855" y="320.4156626506024"/>
      <point x="610.6265060240964" y="335.35542168674704"/>
      <point x="574.9277108433735" y="335.35542168674704" type="curve"/>
      <point x="542.0542168674699" y="323.4156626506024" type="line"/>
      <point x="653.6987951807229" y="323.4156626506024"/>
      <point x="715.578313253012" y="366.65060240963857"/>
      <point x="715.578313253012" y="446.355421686747" type="curve" smooth="yes"/>
      <point x="715.578313253012" y="522.0602409638553"/>
      <point x="657.6385542168674" y="563.7048192771084"/>
      <point x="549.7590361445783" y="563.7048192771084" type="curve" smooth="yes"/>
      <point x="329.13253012048193" y="563.7048192771084" type="line"/>
    </contour>
    <contour>
      <point x="400.15060240963857" y="367.9879518072289" type="line"/>
      <point x="400.15060240963857" y="508.3192771084337" type="line"/>
      <point x="541.8855421686746" y="508.3192771084337" type="line" smooth="yes"/>
      <point x="610.1385542168674" y="508.3192771084337"/>
      <point x="643.0301204819277" y="486.31325301204816"/>
      <point x="643.0301204819277" y="438.7710843373494" type="curve" smooth="yes"/>
      <point x="643.0301204819277" y="391.2289156626506"/>
      <point x="609.6686746987951" y="367.9879518072289"/>
      <point x="541.8855421686746" y="367.9879518072289" type="curve" smooth="yes"/>
    </contour>
  </outline>
</glyph>
<glyph name="degree" format="2">
  <advance width="410.6927710843374"/>
  <unicode hex="00B0"/>
  <outline>
    <contour>
      <point x="205.46385542168676" y="393.72289156626505" type="curve" smooth="yes"/>
      <point x="297.39759036144574" y="393.72289156626505"/>
      <point x="366.4518072289157" y="462.8373493975904"/>
      <point x="366.4518072289157" y="554.066265060241" type="curve" smooth="yes"/>
      <point x="366.4518072289157" y="644.8253012048193"/>
      <point x="297.1626506024096" y="714.1746987951807"/>
      <point x="205.46385542168676" y="714.1746987951807" type="curve" smooth="yes"/>
      <point x="113.53012048192771" y="714.1746987951807"/>
      <point x="44.475903614457835" y="644.5903614457832"/>
      <point x="44.475903614457835" y="554.066265060241" type="curve" smooth="yes"/>
      <point x="44.475903614457835" y="463.07228915662654"/>
      <point x="113.53012048192771" y="393.72289156626505"/>
    </contour>
    <contour>
      <point x="205.46385542168676" y="451.69879518072287" type="curve" smooth="yes"/>
      <point x="147.33734939759034" y="451.69879518072287"/>
      <point x="107.86144578313252" y="494.4096385542168"/>
      <point x="107.86144578313252" y="554.066265060241" type="curve" smooth="yes"/>
      <point x="107.86144578313252" y="613.2530120481928"/>
      <point x="147.33734939759034" y="656.1987951807229"/>
      <point x="205.46385542168676" y="656.1987951807229" type="curve" smooth="yes"/>
      <point x="263.12048192771084" y="656.1987951807229"/>
      <point x="302.59638554216866" y="613.2530120481928"/>
      <point x="302.59638554216866" y="554.066265060241" type="curve" smooth="yes"/>
      <point x="302.59638554216866" y="494.4096385542168"/>
      <point x="263.12048192771084" y="451.69879518072287"/>
    </contour>
  </outline>
</glyph>
<glyph name="plusminus" format="2">
  <advance width="748.0"/>
  <unicode hex="00B1"/>
  <outline>
    <contour>
      <point x="337.84337349397595" y="129.2710843373494" type="line"/>
      <point x="410.15662650602405" y="129.2710843373494" type="line"/>
      <point x="410.15662650602405" y="302.5301204819277" type="line"/>
      <point x="645.0" y="302.5301204819277" type="line"/>
      <point x="645.0" y="367.6686746987952" type="line"/>
      <point x="410.15662650602405" y="367.6686746987952" type="line"/>
      <point x="410.15662650602405" y="540.9277108433735" type="line"/>
      <point x="337.84337349397595" y="540.9277108433735" type="line"/>
      <point x="337.84337349397595" y="367.6686746987952" type="line"/>
      <point x="103.0" y="367.6686746987952" type="line"/>
      <point x="103.0" y="302.5301204819277" type="line"/>
      <point x="337.84337349397595" y="302.5301204819277" type="line"/>
    </contour>
    <contour>
      <point x="103.0" y="0.0" type="line"/>
      <point x="645.0" y="0.0" type="line"/>
      <point x="645.0" y="65.60843373493975" type="line"/>
      <point x="103.0" y="65.60843373493975" type="line"/>
    </contour>
  </outline>
</glyph>
<glyph name="micro" format="2">
  <advance width="696.3855421686746"/>
  <unicode hex="00B5"/>
  <outline>
    <contour>
      <point x="94.42771084337349" y="-180.0" type="line"/>
      <point x="183.65662650602408" y="-180.0" type="line"/>
      <point x="176.13253012048193" y="63.963855421686745" type="line"/>
      <point x="169.42168674698794" y="63.963855421686745" type="line"/>
      <point x="199.0722891566265" y="10.301204819277109"/>
      <point x="255.5" y="-8.939759036144578"/>
      <point x="325.28313253012044" y="-8.939759036144578" type="curve" smooth="yes"/>
      <point x="426.3012048192771" y="-8.939759036144578"/>
      <point x="488.3132530120482" y="38.06626506024096"/>
      <point x="519.8493975903615" y="113.30722891566265" type="curve"/>
      <point x="513.1385542168675" y="113.30722891566265" type="line"/>
      <point x="513.1385542168675" y="0.0" type="line"/>
      <point x="600.4277108433735" y="0.0" type="line"/>
      <point x="600.4277108433735" y="486.34939759036143" type="line"/>
      <point x="511.19879518072287" y="486.34939759036143" type="line"/>
      <point x="511.19879518072287" y="233.16867469879517" type="line" smooth="yes"/>
      <point x="511.19879518072287" y="134.08433734939757"/>
      <point x="441.421686746988" y="64.07228915662651"/>
      <point x="327.1024096385542" y="64.07228915662651" type="curve" smooth="yes"/>
      <point x="235.66867469879517" y="64.07228915662651"/>
      <point x="183.65662650602408" y="101.49397590361447"/>
      <point x="183.65662650602408" y="213.4578313253012" type="curve" smooth="yes"/>
      <point x="183.65662650602408" y="486.34939759036143" type="line"/>
      <point x="94.42771084337349" y="486.34939759036143" type="line"/>
    </contour>
  </outline>
</glyph>
<glyph name="paragraph" format="2">
  <advance width="719.1204819277108"/>
  <unicode hex="00B6"/>
  <outline>
    <contour>
      <point x="299.8734939759036" y="-180.0" type="line"/>
      <point x="372.1867469879518" y="-180.0" type="line"/>
      <point x="372.1867469879518" y="637.9216867469879" type="line"/>
      <point x="538.2048192771083" y="637.9216867469879" type="line"/>
      <point x="538.2048192771083" y="-180.0" type="line"/>
      <point x="610.5180722891565" y="-180.0" type="line"/>
      <point x="610.5180722891565" y="705.0" type="line"/>
      <point x="301.578313253012" y="705.0" type="line" smooth="yes"/>
      <point x="148.8855421686747" y="705.0"/>
      <point x="54.24698795180723" y="628.8313253012047"/>
      <point x="54.24698795180723" y="505.60843373493975" type="curve" smooth="yes"/>
      <point x="54.24698795180723" y="382.3855421686747"/>
      <point x="148.65060240963857" y="304.7469879518072"/>
      <point x="299.8734939759036" y="304.7469879518072" type="curve"/>
    </contour>
  </outline>
</glyph>
<glyph name="periodcentered" format="2">
  <advance width="272.9096385542169"/>
  <unicode hex="00B7"/>
  <outline>
    <contour>
      <point x="79.30722891566266" y="211.5542168674699" type="line"/>
      <point x="193.36746987951807" y="211.5542168674699" type="line"/>
      <point x="193.36746987951807" y="321.0301204819277" type="line"/>
      <point x="79.30722891566266" y="321.0301204819277" type="line"/>
    </contour>
  </outline>
</glyph>
<glyph name="ordmasculine" format="2">
  <advance width="416.56626506024094"/>
  <unicode hex="00BA"/>
  <outline>
    <contour>
      <point x="208.51807228915663" y="410.1807228915663" type="curve" smooth="yes"/>
      <point x="317.80120481927713" y="410.1807228915663"/>
      <point x="387.32530120481925" y="469.18072289156623"/>
      <point x="387.32530120481925" y="562.2951807228916" type="curve" smooth="yes"/>
      <point x="387.32530120481925" y="654.9397590361446"/>
      <point x="317.80120481927713" y="713.9397590361446"/>
      <point x="208.51807228915663" y="713.9397590361446" type="curve" smooth="yes"/>
      <point x="98.76506024096386" y="713.9397590361446"/>
      <point x="29.240963855421686" y="654.9397590361446"/>
      <point x="29.240963855421686" y="562.2951807228916" type="curve" smooth="yes"/>
      <point x="29.240963855421686" y="469.18072289156623"/>
      <point x="98.76506024096386" y="410.1807228915663"/>
    </contour>
    <contour>
      <point x="208.51807228915663" y="459.39156626506025" type="curve" smooth="yes"/>
      <point x="135.74096385542168" y="459.39156626506025"/>
      <point x="93.144578313253" y="495.6927710843373"/>
      <point x="93.144578313253" y="562.2951807228916" type="curve" smooth="yes"/>
      <point x="93.144578313253" y="628.8975903614457"/>
      <point x="135.74096385542168" y="665.1987951807229"/>
      <point x="208.51807228915663" y="665.1987951807229" type="curve" smooth="yes"/>
      <point x="280.8253012048193" y="665.1987951807229"/>
      <point x="323.421686746988" y="628.8975903614459"/>
      <point x="323.421686746988" y="562.2951807228916" type="curve" smooth="yes"/>
      <point x="323.421686746988" y="495.6927710843373"/>
      <point x="280.8253012048193" y="459.39156626506025"/>
    </contour>
  </outline>
</glyph>
<glyph name="questiondown" format="2">
  <advance width="542.9156626506025"/>
  <unicode hex="00BF"/>
  <outline>
    <contour>
      <point x="261.4578313253012" y="-188.40963855421685" type="curve" smooth="yes"/>
      <point x="370.1024096385542" y="-188.40963855421685"/>
      <point x="476.4518072289157" y="-152.289156626506"/>
      <point x="543.210843373494" y="-91.87349397590361" type="curve"/>
      <point x="505.0542168674699" y="-22.09638554216868" type="line"/>
      <point x="433.69879518072287" y="-81.4578313253012"/>
      <point x="356.9879518072289" y="-109.87349397590361"/>
      <point x="265.7469879518072" y="-109.87349397590361" type="curve" smooth="yes"/>
      <point x="171.54819277108433" y="-109.87349397590361"/>
      <point x="121.00602409638554" y="-80.6867469879518"/>
      <point x="121.00602409638554" y="-25.66867469879518" type="curve" smooth="yes"/>
      <point x="121.00602409638554" y="13.10843373493976"/>
      <point x="146.01204819277106" y="48.355421686746986"/>
      <point x="208.49397590361446" y="95.72289156626506" type="curve" smooth="yes"/>
      <point x="293.39156626506025" y="160.2710843373494"/>
      <point x="317.03614457831327" y="211.1024096385542"/>
      <point x="317.03614457831327" y="266.8132530120482" type="curve" smooth="yes"/>
      <point x="317.03614457831327" y="297.62048192771084" type="line"/>
      <point x="262.83734939759034" y="297.62048192771084" type="line"/>
      <point x="260.13253012048193" y="274.6807228915663" type="line" smooth="yes"/>
      <point x="254.4277108433735" y="230.55421686746988"/>
      <point x="233.4277108433735" y="195.7831325301205"/>
      <point x="143.48192771084337" y="130.41566265060243" type="curve" smooth="yes"/>
      <point x="61.95180722891566" y="70.93373493975905"/>
      <point x="28.777108433734938" y="23.343373493975903"/>
      <point x="28.777108433734938" y="-35.596385542168676" type="curve" smooth="yes"/>
      <point x="28.777108433734938" y="-129.8855421686747"/>
      <point x="119.0" y="-188.40963855421685"/>
    </contour>
    <contour>
      <point x="234.1987951807229" y="376.8734939759036" type="line"/>
      <point x="345.67469879518075" y="376.8734939759036" type="line"/>
      <point x="345.67469879518075" y="486.34939759036143" type="line"/>
      <point x="234.1987951807229" y="486.34939759036143" type="line"/>
    </contour>
  </outline>
</glyph>
<glyph name="AE" format="2">
  <advance width="1216.2168674698794"/>
  <unicode hex="00C6"/>
  <anchor x="606.1746987951807" y="0.0" name="bottom"/>
  <anchor x="604.8795180722891" y="705.0" name="top"/>
  <outline>
    <contour>
      <point x="-18.030120481927714" y="0.0" type="line"/>
      <point x="89.54216867469879" y="0.0" type="line"/>
      <point x="237.7831325301205" y="200.83132530120483" type="line"/>
      <point x="197.22289156626508" y="176.5542168674699" type="line"/>
      <point x="682.933734939759" y="176.5542168674699" type="line"/>
      <point x="647.7168674698795" y="204.24096385542168" type="line"/>
      <point x="703.9518072289156" y="0.0" type="line"/>
      <point x="1157.0421686746988" y="0.0" type="line"/>
      <point x="1157.0421686746988" y="74.42168674698796" type="line"/>
      <point x="744.3855421686746" y="74.42168674698796" type="line"/>
      <point x="781.5421686746988" y="45.25903614457832" type="line"/>
      <point x="699.4759036144578" y="344.94578313253015" type="line"/>
      <point x="676.2530120481928" y="321.0240963855422" type="line"/>
      <point x="1131.5722891566265" y="321.0240963855422" type="line"/>
      <point x="1131.5722891566265" y="395.44578313253015" type="line"/>
      <point x="659.9698795180724" y="395.44578313253015" type="line"/>
      <point x="692.1265060240964" y="370.2289156626506" type="line"/>
      <point x="612.4698795180723" y="659.7469879518072" type="line"/>
      <point x="593.487951807229" y="630.578313253012" type="line"/>
      <point x="1157.0421686746988" y="630.578313253012" type="line"/>
      <point x="1157.0421686746988" y="705.0" type="line"/>
      <point x="511.6084337349398" y="705.0" type="line"/>
    </contour>
    <contour>
      <point x="535.7048192771084" y="605.1204819277109" type="line"/>
      <point x="537.7048192771084" y="605.1204819277109" type="line"/>
      <point x="640.8373493975904" y="228.58433734939757" type="line"/>
      <point x="657.8795180722891" y="251.74096385542168" type="line"/>
      <point x="241.66265060240963" y="251.74096385542168" type="line"/>
      <point x="258.30120481927713" y="229.16867469879517" type="line"/>
    </contour>
  </outline>
</glyph>
<glyph name="multiply" format="2">
  <advance width="748.0"/>
  <unicode hex="00D7"/>
  <outline>
    <contour>
      <point x="173.2168674698795" y="39.596385542168676" type="line"/>
      <point x="374.0" y="240.61445783132532" type="line"/>
      <point x="574.7831325301205" y="39.596385542168676" type="line"/>
      <point x="621.6385542168674" y="86.21686746987952" type="line"/>
      <point x="420.0903614457831" y="286.0" type="line"/>
      <point x="621.6385542168674" y="487.7831325301205" type="line"/>
      <point x="574.7831325301205" y="534.8734939759036" type="line"/>
      <point x="373.23493975903614" y="333.7951807228916" type="line"/>
      <point x="170.15662650602408" y="534.8734939759036" type="line"/>
      <point x="126.36144578313252" y="487.7831325301205" type="line"/>
      <point x="327.144578313253" y="286.76506024096386" type="line"/>
      <point x="126.36144578313252" y="86.21686746987952" type="line"/>
    </contour>
  </outline>
</glyph>
<glyph name="Thorn" format="2">
  <advance width="780.1445783132531"/>
  <unicode hex="00DE"/>
  <anchor x="399.86746987951807" y="0.0" name="bottom"/>
  <anchor x="400.1024096385542" y="705.0" name="top"/>
  <outline>
    <contour>
      <point x="108.60240963855422" y="0.0" type="line"/>
      <point x="201.35542168674698" y="0.0" type="line"/>
      <point x="201.35542168674698" y="152.24698795180723" type="line"/>
      <point x="463.26506024096386" y="152.24698795180723" type="line" smooth="yes"/>
      <point x="648.0843373493976" y="152.24698795180723"/>
      <point x="743.0783132530121" y="224.710843373494"/>
      <point x="743.0783132530121" y="365.93975903614455" type="curve" smooth="yes"/>
      <point x="743.0783132530121" y="507.933734939759"/>
      <point x="648.0843373493976" y="579.1626506024096"/>
      <point x="463.26506024096386" y="579.1626506024096" type="curve" smooth="yes"/>
      <point x="201.35542168674698" y="579.1626506024096" type="line"/>
      <point x="201.35542168674698" y="705.0" type="line"/>
      <point x="108.60240963855422" y="705.0" type="line"/>
    </contour>
    <contour>
      <point x="201.35542168674698" y="226.1987951807229" type="line"/>
      <point x="201.35542168674698" y="505.21084337349396" type="line"/>
      <point x="455.57228915662654" y="505.21084337349396" type="line" smooth="yes"/>
      <point x="590.777108433735" y="505.21084337349396"/>
      <point x="650.6144578313254" y="462.9638554216868"/>
      <point x="650.6144578313254" y="366.1746987951807" type="curve" smooth="yes"/>
      <point x="650.6144578313254" y="269.62048192771084"/>
      <point x="589.0722891566265" y="226.1987951807229"/>
      <point x="455.57228915662654" y="226.1987951807229" type="curve" smooth="yes"/>
    </contour>
  </outline>
</glyph>
<glyph name="germandbls" format="2">
  <advance width="751.7650602409639"/>
  <unicode hex="00DF"/>
  <outline>
    <contour>
      <point x="490.6024096385542" y="-8.939759036144578" type="curve" smooth="yes"/>
      <point x="627.5843373493976" y="-8.939759036144578"/>
      <point x="716.3433734939758" y="48.99397590361446"/>
      <point x="716.3433734939758" y="143.80722891566265" type="curve" smooth="yes"/>
      <point x="716.3433734939758" y="224.21686746987953"/>
      <point x="653.1626506024096" y="263.50602409638554"/>
      <point x="535.3373493975904" y="284.2710843373494" type="curve" smooth="yes"/>
      <point x="444.9277108433735" y="300.50602409638554"/>
      <point x="398.73493975903614" y="315.7469879518072"/>
      <point x="398.73493975903614" y="365.644578313253" type="curve" smooth="yes"/>
      <point x="398.73493975903614" y="402.06626506024094"/>
      <point x="428.3313253012048" y="421.77710843373495"/>
      <point x="472.2710843373494" y="450.066265060241" type="curve" smooth="yes"/>
      <point x="534.277108433735" y="488.30120481927713"/>
      <point x="573.1084337349397" y="526.066265060241"/>
      <point x="573.1084337349397" y="583.0722891566265" type="curve" smooth="yes"/>
      <point x="573.1084337349397" y="667.6506024096385"/>
      <point x="499.2409638554217" y="713.9397590361446"/>
      <point x="362.855421686747" y="713.9397590361446" type="curve" smooth="yes"/>
      <point x="188.65060240963857" y="713.9397590361446"/>
      <point x="94.13253012048193" y="638.4759036144578"/>
      <point x="94.13253012048193" y="496.433734939759" type="curve" smooth="yes"/>
      <point x="94.13253012048193" y="0.0" type="line"/>
      <point x="183.36144578313252" y="0.0" type="line"/>
      <point x="183.36144578313252" y="503.13253012048193" type="line" smooth="yes"/>
      <point x="183.36144578313252" y="599.0301204819277"/>
      <point x="244.72289156626505" y="645.3915662650602"/>
      <point x="364.5" y="645.3915662650602" type="curve" smooth="yes"/>
      <point x="445.57228915662654" y="645.3915662650602"/>
      <point x="485.34337349397595" y="623.3855421686748"/>
      <point x="485.34337349397595" y="576.1385542168675" type="curve" smooth="yes"/>
      <point x="485.34337349397595" y="535.3614457831326"/>
      <point x="453.09638554216866" y="511.8253012048193"/>
      <point x="409.15060240963857" y="483.65060240963857" type="curve" smooth="yes"/>
      <point x="348.68072289156623" y="445.3614457831326"/>
      <point x="312.6144578313253" y="409.0120481927711"/>
      <point x="312.6144578313253" y="353.83132530120486" type="curve" smooth="yes"/>
      <point x="312.6144578313253" y="274.3614457831325"/>
      <point x="375.4397590361446" y="237.83734939759034"/>
      <point x="493.9698795180723" y="218.24698795180723" type="curve" smooth="yes"/>
      <point x="598.3915662650602" y="200.36144578313252"/>
      <point x="629.9277108433735" y="177.23493975903614"/>
      <point x="629.9277108433735" y="139.69277108433735" type="curve" smooth="yes"/>
      <point x="629.9277108433735" y="89.73493975903615"/>
      <point x="579.2048192771084" y="60.01807228915663"/>
      <point x="496.5361445783132" y="60.01807228915663" type="curve" smooth="yes"/>
      <point x="432.066265060241" y="60.01807228915663"/>
      <point x="360.2469879518072" y="77.3132530120482"/>
      <point x="298.3072289156627" y="119.49397590361446" type="curve"/>
      <point x="264.37951807228916" y="57.8855421686747" type="line"/>
      <point x="319.90361445783134" y="14.825301204819278"/>
      <point x="409.1927710843373" y="-8.939759036144578"/>
    </contour>
  </outline>
</glyph>
<glyph name="ae" format="2">
  <advance width="1066.289156626506"/>
  <unicode hex="00E6"/>
  <anchor x="520.933734939759" y="0.0" name="bottom"/>
  <anchor x="520.933734939759" y="484.0" name="top"/>
  <outline>
    <contour>
      <point x="282.05421686746985" y="-8.939759036144578" type="curve" smooth="yes"/>
      <point x="406.5843373493976" y="-8.939759036144578"/>
      <point x="496.644578313253" y="47.126506024096386"/>
      <point x="529.8192771084337" y="143.66867469879517" type="curve"/>
      <point x="498.00602409638554" y="143.66867469879517" type="line"/>
      <point x="535.644578313253" y="46.18674698795181"/>
      <point x="637.1084337349397" y="-8.939759036144578"/>
      <point x="772.8734939759037" y="-8.939759036144578" type="curve" smooth="yes"/>
      <point x="870.7530120481928" y="-8.939759036144578"/>
      <point x="961.632530120482" y="18.180722891566266"/>
      <point x="1007.9819277108434" y="59.421686746987945" type="curve"/>
      <point x="979.933734939759" y="121.5" type="line"/>
      <point x="928.4578313253013" y="81.78313253012048"/>
      <point x="862.8734939759036" y="61.95783132530121"/>
      <point x="782.5180722891566" y="61.95783132530121" type="curve" smooth="yes"/>
      <point x="637.6807228915663" y="61.95783132530121"/>
      <point x="564.5481927710844" y="125.15060240963855"/>
      <point x="564.5481927710844" y="244.2289156626506" type="curve" smooth="yes"/>
      <point x="564.5481927710844" y="250.93373493975903" type="line" smooth="yes"/>
      <point x="564.5481927710844" y="361.42771084337346"/>
      <point x="639.3313253012047" y="430.855421686747"/>
      <point x="760.9397590361446" y="430.855421686747" type="curve" smooth="yes"/>
      <point x="875.6686746987951" y="430.855421686747"/>
      <point x="939.2710843373494" y="372.66265060240966"/>
      <point x="939.9759036144578" y="266.8132530120482" type="curve"/>
      <point x="961.4457831325302" y="283.9879518072289" type="line"/>
      <point x="541.9638554216867" y="283.9879518072289" type="line"/>
      <point x="541.9638554216867" y="226.4277108433735" type="line"/>
      <point x="1017.9819277108434" y="226.4277108433735" type="line"/>
      <point x="1017.9819277108434" y="256.00602409638554" type="line" smooth="yes"/>
      <point x="1017.9819277108434" y="406.0"/>
      <point x="920.8734939759036" y="495.28915662650604"/>
      <point x="759.1204819277108" y="495.28915662650604" type="curve" smooth="yes"/>
      <point x="658.5722891566265" y="495.28915662650604"/>
      <point x="567.632530120482" y="452.1024096385542"/>
      <point x="524.2831325301205" y="378.0843373493976" type="curve"/>
      <point x="542.6927710843373" y="378.0843373493976" type="line"/>
      <point x="521.1746987951807" y="455.3975903614458"/>
      <point x="448.2951807228916" y="495.28915662650604"/>
      <point x="333.2289156626506" y="495.28915662650604" type="curve" smooth="yes"/>
      <point x="243.70481927710844" y="495.28915662650604"/>
      <point x="153.1265060240964" y="471.7590361445783"/>
      <point x="93.4277108433735" y="433.7590361445783" type="curve"/>
      <point x="122.88554216867469" y="367.68072289156623" type="line"/>
      <point x="180.0" y="404.56626506024094"/>
      <point x="252.1144578313253" y="424.6265060240964"/>
      <point x="327.87951807228916" y="424.6265060240964" type="curve" smooth="yes"/>
      <point x="429.2469879518072" y="424.6265060240964"/>
      <point x="477.1385542168675" y="389.4397590361446"/>
      <point x="477.1385542168675" y="315.066265060241" type="curve" smooth="yes"/>
      <point x="477.1385542168675" y="201.46987951807228" type="line" smooth="yes"/>
      <point x="477.1385542168675" y="118.09638554216868"/>
      <point x="398.00602409638554" y="56.43373493975904"/>
      <point x="290.22289156626505" y="56.43373493975904" type="curve" smooth="yes"/>
      <point x="209.43975903614458" y="56.43373493975904"/>
      <point x="158.36746987951807" y="91.68072289156626"/>
      <point x="158.36746987951807" y="146.40361445783134" type="curve" smooth="yes"/>
      <point x="158.36746987951807" y="206.6566265060241"/>
      <point x="214.789156626506" y="226.4277108433735"/>
      <point x="379.4759036144578" y="226.4277108433735" type="curve" smooth="yes"/>
      <point x="488.6024096385542" y="226.4277108433735" type="line"/>
      <point x="488.6024096385542" y="283.9879518072289" type="line"/>
      <point x="377.4156626506024" y="283.9879518072289" type="line" smooth="yes"/>
      <point x="153.71686746987953" y="283.9879518072289"/>
      <point x="68.4277108433735" y="243.93373493975903"/>
      <point x="68.4277108433735" y="143.99397590361446" type="curve" smooth="yes"/>
      <point x="68.4277108433735" y="54.234939759036145"/>
      <point x="155.6566265060241" y="-8.939759036144578"/>
    </contour>
  </outline>
</glyph>
